<?xml version="1.0" standalone="no"?>
<!DOCTYPE svg PUBLIC "-//W3C//DTD SVG 20010904//EN"
 "http://www.w3.org/TR/2001/REC-SVG-20010904/DTD/svg10.dtd">
<svg version="1.0" xmlns="http://www.w3.org/2000/svg"
 width="2000.000000pt" height="2000.000000pt" viewBox="0 0 2000.000000 2000.000000"
 preserveAspectRatio="xMidYMid meet">

<g transform="translate(0.000000,2000.000000) scale(0.100000,-0.100000)"
fill="#000000" stroke="none">
<path d="M0 19416 c0 -575 0 -584 20 -589 26 -7 26 -44 0 -77 -18 -22 -20 -42
-20 -184 l0 -159 36 -39 c43 -48 42 -73 -4 -73 l-32 0 0 -163 0 -163 33 5
c292 48 367 47 367 -5 0 -23 -12 -30 -63 -34 -39 -3 -232 -28 -304 -41 l-33
-5 0 -2546 c0 -2420 1 -2545 18 -2538 9 4 173 63 364 131 461 164 415 141 423
206 39 311 111 558 204 700 64 97 135 161 229 206 72 34 84 37 188 40 105 4
116 2 173 -23 77 -35 171 -132 223 -230 20 -39 64 -140 98 -225 34 -85 65
-158 68 -162 4 -3 52 7 107 22 289 82 478 133 643 176 l182 47 0 51 c0 68 -18
384 -26 469 l-7 67 31 0 c17 0 34 -5 38 -11 10 -17 34 -266 40 -413 2 -72 7
-132 9 -135 6 -5 95 19 226 61 104 33 149 33 149 -1 0 -41 -38 -57 -321 -135
-54 -15 -57 -18 -63 -53 -3 -21 -6 -60 -6 -88 0 -63 -25 -215 -51 -320 -70
-276 -171 -453 -287 -503 -40 -18 -57 -19 -113 -13 -102 13 -171 52 -275 155
-107 106 -182 216 -265 391 -33 69 -63 125 -68 125 -9 0 -438 -123 -592 -170
-233 -71 -445 -142 -457 -154 -7 -7 -20 -64 -28 -127 -45 -345 -122 -538 -270
-679 -129 -122 -269 -163 -442 -126 -70 14 -67 17 -52 -64 5 -29 32 -206 60
-394 55 -374 68 -455 129 -781 70 -377 102 -526 114 -545 9 -15 7 -23 -7 -39
-23 -26 -38 -26 -59 -3 -21 24 -39 99 -87 367 -23 127 -55 294 -71 373 -16 78
-48 274 -70 435 -36 264 -85 576 -94 602 -2 6 -4 -1279 -4 -2855 l-1 -2865 69
-43 c83 -51 277 -225 344 -308 200 -248 332 -535 391 -852 21 -115 23 -154 21
-348 -2 -193 -5 -233 -29 -343 -22 -103 -81 -299 -110 -362 -5 -12 2 -28 23
-52 56 -63 38 -102 -59 -131 -50 -15 -58 -21 -89 -73 -108 -181 -349 -447
-493 -543 l-67 -45 -1 -869 c0 -790 1 -867 16 -855 36 29 66 111 75 203 4 50
9 94 9 98 0 4 11 15 25 24 51 33 51 28 49 -383 -2 -361 -3 -378 -21 -381 -11
-2 -28 7 -39 19 -17 19 -19 39 -22 195 -2 96 -7 174 -11 174 -4 0 -16 -9 -26
-20 -10 -11 -26 -22 -36 -25 -18 -6 -19 -21 -19 -270 0 -207 3 -263 13 -260
23 8 316 25 331 19 9 -3 16 -17 16 -30 0 -32 -22 -40 -140 -50 -91 -7 -114 -9
-187 -12 l-33 -2 0 -70 0 -71 114 2 c63 1 119 -2 125 -5 18 -11 13 -44 -8 -56
-11 -5 -53 -10 -94 -10 -41 0 -89 -3 -106 -6 -30 -6 -31 -8 -31 -59 l0 -52 45
-17 c51 -20 85 -57 85 -93 0 -50 -43 -98 -97 -109 l-33 -6 0 -119 0 -119 1136
0 c1033 1 1136 2 1141 17 4 9 0 89 -8 177 l-14 161 -70 0 c-60 0 -70 3 -73 19
-6 28 11 38 75 45 l58 6 -2 50 c-1 28 -5 77 -8 110 -6 55 -9 61 -38 75 -38 18
-44 53 -9 58 28 4 45 36 36 65 -4 12 -9 40 -10 62 -4 69 -12 159 -19 218 l-7
56 -51 3 c-34 2 -53 8 -61 20 -16 26 4 40 64 46 47 4 51 7 45 26 -4 11 -9 45
-12 74 -5 52 -7 54 -32 48 -66 -16 -99 -18 -106 -7 -13 22 22 58 70 71 26 7
49 19 52 26 3 8 -2 107 -10 221 -8 115 -15 257 -17 318 -1 60 -4 114 -7 119
-3 5 -7 217 -8 472 -2 485 -2 484 39 468 29 -11 33 -62 30 -319 -2 -143 0
-350 6 -460 5 -110 12 -258 15 -330 7 -203 28 -475 36 -475 4 0 19 4 32 9 33
13 67 3 67 -19 0 -23 -19 -38 -59 -46 -17 -4 -34 -11 -37 -15 -3 -5 -2 -45 2
-89 6 -70 9 -80 26 -80 11 0 28 5 39 11 29 15 59 2 59 -26 0 -21 -8 -27 -55
-40 l-55 -17 6 -81 c4 -45 12 -131 18 -192 11 -109 12 -110 36 -106 14 3 41 5
60 5 28 1 35 -3 35 -19 0 -12 -11 -25 -30 -33 -83 -36 -80 -32 -78 -108 4
-106 12 -154 28 -154 21 0 45 -29 38 -46 -3 -9 -17 -20 -30 -25 -17 -6 -23
-14 -19 -27 11 -35 27 -238 21 -268 -3 -21 -1 -35 9 -43 11 -9 77 40 337 251
178 144 520 419 759 612 239 192 487 393 551 445 64 53 167 136 228 184 61 49
123 104 137 122 14 18 38 38 53 43 16 6 161 117 322 249 162 131 311 251 331
266 45 35 73 33 73 -6 0 -23 -42 -61 -331 -294 -182 -148 -504 -408 -715 -578
-211 -171 -584 -472 -829 -670 -245 -198 -519 -419 -609 -493 l-164 -133 189
5 c104 4 217 9 252 12 l62 6 0 44 c0 32 5 46 17 51 21 8 53 -30 53 -63 0 -23
4 -24 63 -26 34 -1 78 -2 97 -1 19 1 70 2 113 2 42 1 77 5 77 10 0 5 -7 28
-15 51 -23 65 -20 90 10 90 27 0 45 -27 64 -98 l12 -42 154 2 c88 2 155 7 155
12 0 6 -5 36 -12 68 -11 51 -10 60 4 74 27 28 46 10 59 -55 19 -101 1 -95 265
-82 126 7 259 12 297 12 l68 0 -7 48 c-5 37 -3 50 11 61 15 13 19 12 36 -9 11
-13 19 -33 19 -45 0 -47 6 -48 186 -42 93 4 201 7 241 9 39 1 74 5 77 8 3 3
-3 41 -14 84 -11 43 -20 80 -20 81 0 2 9 8 19 14 34 18 56 -22 85 -153 6 -25
10 -27 39 -23 18 3 103 8 191 11 87 3 162 7 166 10 3 2 -2 47 -13 100 -20 103
-15 128 23 118 22 -6 32 -35 51 -147 l11 -68 152 8 c83 4 165 8 181 8 17 -1
126 5 244 12 118 7 217 11 221 9 4 -3 75 0 156 5 82 5 244 12 359 15 116 3
291 9 390 14 99 4 200 7 225 7 118 0 950 25 988 30 55 7 101 -18 81 -43 -7 -8
-23 -19 -35 -23 -12 -5 -154 -11 -315 -15 -162 -3 -377 -10 -479 -14 -102 -5
-188 -7 -191 -5 -3 2 -132 -3 -285 -10 -153 -8 -282 -12 -285 -10 -4 2 -125
-3 -270 -10 -145 -8 -267 -12 -271 -10 -3 2 -120 -3 -260 -11 -139 -8 -327
-18 -418 -23 l-165 -7 -3 -30 c-7 -55 -45 -61 -63 -10 l-13 34 -120 -4 c-67
-3 -154 -7 -193 -11 -73 -6 -73 -6 -73 -35 l0 -29 1754 0 1755 0 40 123 c21
67 44 148 51 181 14 67 8 76 -51 76 -81 0 -144 47 -103 77 11 8 28 11 39 8 11
-3 47 -8 80 -11 79 -9 115 -39 115 -99 0 -34 -31 -155 -86 -337 -5 -17 268
-18 5630 -18 l5636 0 0 490 0 490 -322 0 c-294 0 -776 -14 -784 -23 -9 -9 -97
-338 -119 -445 -33 -154 -34 -292 -4 -341 18 -30 19 -36 6 -48 -13 -13 -18
-13 -45 1 -39 20 -47 56 -46 196 1 73 9 139 27 217 22 93 84 331 103 395 4 15
-22 16 -293 20 -164 3 -306 8 -315 12 -10 5 -18 14 -18 20 0 33 23 36 291 36
146 0 287 3 313 6 54 8 49 1 92 139 145 470 365 767 614 831 71 18 124 14 207
-18 124 -46 205 -188 271 -478 20 -85 20 -48 21 6747 l1 6832 -54 6 c-30 4
-60 4 -66 0 -6 -4 -70 -9 -143 -11 -73 -2 -177 -6 -232 -10 -55 -3 -136 -7
-180 -9 -44 -2 -129 -6 -190 -9 -60 -4 -150 -8 -200 -10 -49 -3 -153 -9 -230
-15 -77 -6 -216 -16 -310 -21 -93 -6 -175 -12 -182 -15 -6 -2 -13 -19 -15 -37
-2 -27 -7 -33 -27 -33 -13 0 -28 8 -32 18 -5 9 -13 25 -18 35 -5 9 -17 16 -27
15 -76 -10 -117 -13 -255 -18 l-156 -7 1 -36 c1 -31 -3 -38 -21 -40 -17 -3
-28 6 -45 33 -21 37 -21 37 -77 32 -31 -3 -156 -11 -279 -18 l-222 -13 7 -36
c4 -19 8 -51 8 -70 0 -29 -4 -36 -22 -38 -27 -4 -47 25 -63 96 l-12 54 -37 -7
c-20 -4 -83 -9 -141 -11 -58 -2 -150 -7 -205 -10 -55 -3 -131 -7 -170 -8 -125
-3 -118 0 -100 -42 12 -28 12 -40 3 -51 -20 -24 -51 -10 -78 37 l-26 45 -60
-2 c-32 0 -104 -3 -159 -5 l-100 -3 0 -40 c0 -33 -4 -41 -21 -43 -15 -2 -31 9
-55 39 l-33 42 -85 -7 c-47 -3 -130 -8 -184 -10 -54 -2 -100 -6 -103 -9 -3 -3
0 -22 7 -41 27 -75 -46 -76 -83 -2 -12 24 -26 43 -32 41 -6 -2 -72 -7 -146
-10 -121 -5 -207 -11 -477 -33 -45 -4 -87 -12 -93 -18 -9 -9 0 -143 35 -525
25 -283 55 -588 65 -679 20 -176 18 -190 -26 -190 -16 0 -27 8 -33 23 -9 23
-27 161 -24 187 1 8 -3 53 -8 100 -6 47 -12 101 -14 120 -2 19 -8 76 -14 125
-5 50 -12 131 -16 180 -13 225 -17 270 -26 292 -5 13 -10 63 -10 111 -1 48 -4
109 -8 135 l-6 49 -100 -84 c-55 -45 -163 -135 -240 -199 -77 -63 -260 -215
-407 -337 -147 -122 -275 -222 -286 -222 -23 0 -45 23 -40 43 3 15 111 111
283 252 61 49 229 189 375 309 146 121 288 238 315 260 28 22 55 44 60 49 6 5
-12 6 -45 3 -210 -24 -1038 -97 -1063 -94 -21 2 -33 9 -35 21 -5 24 28 59 49
54 18 -5 485 40 704 67 138 17 292 29 350 27 69 -2 68 -5 50 190 -9 96 -20
181 -24 189 -6 11 -27 15 -82 15 -72 0 -74 1 -77 26 -4 31 10 39 88 48 l55 6
-1 60 c0 33 -4 90 -8 128 -6 53 -11 67 -25 67 -23 0 -61 28 -61 46 0 8 16 22
35 30 19 8 35 21 35 29 0 28 -41 400 -45 413 -3 9 -15 11 -40 6 -53 -10 -85 2
-85 31 0 31 26 45 84 45 51 0 52 2 31 53 -8 20 -15 57 -15 82 0 25 -2 45 -5
45 -3 0 -22 -7 -42 -15 -47 -20 -92 -19 -100 1 -10 27 10 47 72 71 32 12 59
24 61 26 2 2 -1 53 -6 113 -5 60 -12 161 -14 224 -3 63 -8 144 -11 180 -4 36
-8 97 -9 135 -2 39 -8 151 -15 250 -6 99 -10 320 -9 490 0 171 -2 331 -7 357
-6 42 -5 47 16 53 18 6 28 2 46 -19 23 -27 23 -31 25 -299 2 -385 3 -438 12
-567 5 -63 10 -151 11 -195 2 -44 6 -118 9 -165 4 -47 8 -123 11 -170 2 -47 7
-112 10 -145 7 -69 14 -160 14 -193 1 -21 4 -22 56 -16 47 6 56 4 61 -11 11
-28 -8 -47 -60 -62 l-48 -14 7 -77 c10 -121 14 -125 84 -101 38 13 64 -2 59
-35 -2 -16 -18 -26 -63 -41 -42 -14 -60 -25 -58 -35 10 -58 36 -332 34 -363
-2 -47 15 -55 77 -38 39 10 48 10 61 -4 22 -22 4 -46 -46 -65 -72 -27 -76 -34
-69 -120 13 -151 16 -161 46 -172 16 -5 31 -16 34 -25 7 -18 -10 -43 -30 -43
-23 0 -24 -16 -8 -152 8 -73 14 -151 13 -173 -3 -59 -1 -65 19 -65 9 0 145
107 302 238 380 316 740 613 1110 919 168 138 366 302 441 365 74 62 188 156
251 208 64 52 124 108 133 123 9 16 31 34 48 39 16 6 194 148 395 314 241 201
372 304 387 304 22 0 35 -17 35 -45 0 -8 -89 -87 -198 -177 -108 -89 -330
-273 -492 -408 -162 -136 -479 -399 -705 -585 -225 -187 -516 -427 -646 -535
-130 -107 -387 -321 -573 -474 -185 -153 -335 -281 -333 -283 3 -2 78 1 168 8
90 6 193 12 229 13 36 1 89 3 118 4 l52 2 -6 55 c-7 54 -6 55 19 55 31 0 57
-33 57 -73 l0 -29 128 7 c70 3 156 8 192 9 62 3 65 4 63 27 -1 13 -7 42 -14
65 -15 48 -7 74 21 74 25 0 55 -47 71 -113 l12 -49 101 7 c55 4 134 7 175 7
l73 0 -7 41 c-14 78 -11 129 7 141 25 16 36 0 58 -84 10 -39 21 -74 24 -77 11
-11 266 -7 421 7 55 5 125 10 155 11 97 2 103 6 96 51 -7 42 6 78 29 78 19 0
41 -36 49 -81 l6 -36 83 3 c45 1 152 5 237 8 178 6 240 13 240 27 0 5 -10 48
-21 95 -19 73 -20 87 -8 95 8 5 20 9 27 9 21 0 51 -60 68 -136 l15 -71 42 7
c23 5 121 11 217 15 96 4 178 9 182 11 3 2 -3 43 -13 91 -23 103 -24 137 -5
152 10 9 18 7 35 -6 16 -14 26 -45 42 -124 l21 -107 142 4 c77 3 161 9 186 14
25 6 65 10 90 9 25 0 81 2 125 5 44 3 125 8 180 12 55 3 134 7 175 9 41 2 156
8 255 14 99 5 234 12 300 15 66 3 175 8 242 12 l123 6 0 902 0 902 -30 11
c-16 6 -33 19 -36 27 -8 21 22 56 48 56 17 0 18 16 18 320 l0 320 -32 0 c-18
0 -114 -7 -213 -15 -373 -29 -559 -47 -633 -60 -74 -13 -78 -13 -94 6 -34 40
1 64 115 79 160 21 390 41 685 62 l172 12 0 1103 0 1103 -693 0 -694 0 -6
-128 c-10 -184 -63 -429 -127 -577 l-19 -44 30 -37 c50 -64 33 -104 -57 -130
-51 -15 -54 -17 -137 -142 -195 -291 -399 -472 -709 -628 -135 -68 -256 -108
-433 -144 -143 -30 -402 -33 -540 -6 -466 89 -838 333 -1098 724 -192 287
-301 652 -297 990 l1 122 -433 0 -433 0 -23 -142 c-12 -79 -33 -224 -47 -322
-13 -98 -29 -184 -34 -189 -7 -7 -19 -7 -37 2 -25 11 -26 14 -21 79 3 37 19
161 36 276 17 115 31 210 31 212 0 2 -12 -1 -26 -6 -50 -20 -85 -12 -120 26
-19 19 -34 42 -34 50 0 12 -71 14 -485 14 l-485 0 -74 -25 c-81 -27 -123 -26
-152 6 -16 17 -34 19 -228 19 l-211 0 -1 -58 c-2 -75 -35 -159 -84 -215 -22
-25 -40 -48 -40 -51 0 -5 60 -3 265 7 45 2 50 0 53 -21 8 -53 -178 -88 -345
-64 -57 8 -84 7 -128 -4 -48 -13 -58 -13 -84 1 -39 20 -49 52 -23 77 15 15 36
21 86 23 54 3 74 9 101 30 71 53 125 155 125 235 l0 40 -1388 0 -1389 0 -12
-41 c-17 -56 -45 -83 -72 -68 -21 11 -22 21 -3 87 l6 22 -994 0 -994 0 -42
-43 -43 -44 45 -17 c80 -31 126 -112 106 -186 -11 -43 -41 -73 -91 -94 -52
-22 -204 -39 -277 -31 -54 6 -65 10 -74 31 -8 18 -8 27 3 40 11 14 26 16 89
11 87 -7 198 6 240 28 37 19 46 49 26 80 -21 32 -57 50 -140 71 -57 14 -66 19
-66 39 0 22 34 58 90 97 24 16 -192 17 -3682 17 l-3708 1 0 -584z m10614 466
c98 -150 157 -191 206 -142 28 28 40 63 40 113 0 48 22 87 49 87 35 0 43 -24
36 -102 -3 -40 -2 -210 4 -377 12 -328 11 -335 -38 -329 -34 4 -40 37 -40 238
-1 85 -4 185 -7 221 l-7 66 -36 -10 c-91 -25 -172 34 -275 201 -61 100 -66
132 -20 132 20 0 36 -18 88 -98z m3136 69 c8 -16 5 -24 -19 -43 -21 -19 -54
-29 -132 -42 -341 -57 -577 -100 -674 -122 -108 -24 -109 -24 -129 -5 -16 17
-17 22 -6 36 7 9 22 20 31 26 27 14 218 51 509 98 140 23 280 48 310 55 79 19
98 19 110 -3z m-2116 -67 c19 -7 21 -48 4 -61 -7 -5 -87 -26 -177 -47 -144
-33 -166 -36 -178 -23 -9 9 -12 23 -9 35 7 21 59 38 246 81 103 23 95 22 114
15z m-3170 -40 c9 -8 16 -18 16 -20 0 -14 -57 -112 -120 -209 -54 -81 -70
-113 -63 -125 5 -8 44 -37 86 -65 65 -42 77 -54 74 -75 -2 -22 -7 -25 -37 -24
-36 1 -101 36 -152 82 l-26 24 -52 -79 c-87 -130 -125 -159 -149 -114 -11 19
6 51 97 182 23 34 42 64 42 68 0 4 -39 51 -86 105 -79 90 -86 100 -75 122 19
41 45 29 115 -54 100 -120 80 -125 196 47 55 83 104 151 109 151 5 0 17 -7 25
-16z m4864 -160 c42 -21 55 -34 76 -77 14 -29 28 -69 32 -90 8 -47 16 -52 83
-52 40 0 56 -4 65 -17 18 -29 -5 -53 -50 -54 -81 -3 -74 7 -74 -112 0 -105 -7
-132 -35 -132 -33 1 -40 20 -45 127 l-5 108 -110 0 -110 0 0 25 c0 37 37 52
115 45 48 -4 70 -2 84 8 19 14 19 15 -3 74 -26 69 -57 93 -121 93 -71 0 -100
29 -64 64 24 25 101 20 162 -10z m-1596 -19 c10 -21 8 -27 -8 -39 -21 -16
-110 -26 -249 -29 -88 -2 -90 -1 -93 22 -2 13 1 28 6 33 5 5 72 15 148 22 195
19 183 19 196 -9z m-1592 -26 c13 -24 2 -43 -42 -65 -52 -27 -442 -153 -495
-160 l-53 -7 0 30 c0 37 -2 36 242 112 106 33 222 71 258 85 80 31 77 31 90 5z
m-912 -132 c10 -52 -70 -78 -236 -76 -170 2 -236 11 -240 32 -8 41 10 45 191
44 106 0 182 4 197 11 37 17 84 11 88 -11z m-1347 -18 c18 -35 -5 -45 -155
-69 -77 -12 -261 -52 -408 -89 -165 -41 -274 -63 -283 -58 -16 9 -19 35 -7 55
16 24 360 110 631 157 177 31 207 31 222 4z m2067 -123 c70 -36 52 -152 -36
-233 -25 -23 -44 -44 -41 -46 14 -10 180 -57 201 -57 72 0 103 -43 53 -76 -34
-22 -86 -13 -233 41 -65 24 -139 49 -165 55 -58 15 -74 32 -59 65 9 19 21 25
69 30 98 12 161 57 178 128 6 22 3 27 -19 33 -15 3 -40 4 -57 0 -35 -7 -69 8
-69 29 0 8 10 25 21 36 18 18 29 21 74 16 29 -3 66 -12 83 -21z m-2554 -112
c20 -19 20 -11 -5 -138 -19 -100 -20 -109 -4 -132 24 -37 60 -47 96 -28 40 20
59 68 67 168 7 75 9 81 31 84 13 2 27 0 32 -5 5 -5 19 -63 30 -129 10 -65 28
-159 39 -209 11 -49 21 -121 23 -160 2 -64 0 -70 -19 -73 -11 -2 -26 3 -32 11
-14 16 -36 104 -52 205 -7 39 -16 72 -20 72 -5 0 -26 -11 -46 -25 -46 -32
-125 -34 -168 -6 -70 47 -82 113 -45 268 27 113 40 131 73 97z m12482 -308 c3
-13 1 -39 -4 -59 -18 -66 7 -422 53 -727 10 -69 11 -98 3 -107 -17 -21 -51
-11 -64 17 -7 14 -25 131 -40 260 -35 293 -40 568 -11 613 22 34 54 36 63 3z
m-10413 -36 c10 -27 16 -30 53 -30 80 0 130 -33 102 -68 -10 -12 -28 -13 -88
-9 -41 4 -90 9 -107 13 -43 8 -42 -2 5 -56 34 -40 37 -49 37 -103 0 -54 -3
-61 -33 -88 -48 -43 -136 -37 -162 11 -18 35 3 51 64 48 47 -3 51 -1 54 20 4
24 -77 159 -104 175 -21 12 -17 58 5 64 10 2 40 15 67 28 69 33 93 32 107 -5z
m-650 -179 c41 -39 42 -41 42 -104 0 -57 -4 -70 -38 -121 -21 -32 -37 -59 -35
-59 129 -63 184 -133 164 -210 -15 -62 -112 -127 -189 -127 -48 0 -87 35 -87
80 0 27 3 30 29 30 17 0 33 -4 36 -10 3 -5 21 -10 40 -10 36 0 95 41 95 66 0
29 -57 75 -125 103 -89 35 -94 54 -35 126 77 91 89 143 45 185 -20 19 -30 22
-62 15 -68 -13 -87 -11 -91 8 -2 11 6 30 19 43 19 20 32 24 86 24 60 0 66 -2
106 -39z m2428 -338 c66 -84 129 -153 140 -153 4 0 42 42 83 94 41 52 79 97
85 100 6 4 20 -3 31 -14 26 -26 22 -34 -72 -154 l-70 -88 39 -40 c21 -22 75
-69 121 -105 87 -69 98 -90 51 -107 -31 -11 -77 18 -195 121 l-74 65 -72 -67
c-93 -86 -153 -122 -173 -105 -27 22 -16 47 43 96 77 64 142 126 142 136 0 4
-35 49 -78 100 -107 127 -116 142 -102 167 19 37 46 24 101 -46z m3062 -19
c34 -25 78 -54 97 -64 62 -31 77 -69 38 -93 -18 -12 -84 24 -179 96 -27 20
-58 37 -69 37 -25 0 -33 15 -26 46 5 20 13 24 42 24 27 0 51 -11 97 -46z
m-7039 -210 c11 -11 16 -34 16 -78 0 -85 26 -283 52 -389 20 -82 20 -89 5
-105 -35 -34 -69 12 -92 125 -18 87 -45 322 -45 391 0 53 2 55 47 71 1 1 9 -6
17 -15z m-684 -64 c71 -20 130 -112 130 -204 0 -46 -34 -126 -73 -172 -15 -18
-27 -34 -27 -38 0 -9 111 -38 195 -51 55 -7 93 -8 124 -1 38 9 45 7 57 -8 10
-14 10 -24 3 -38 -27 -50 -144 -51 -334 -3 -119 29 -148 33 -214 28 -72 -5
-78 -4 -103 20 -34 31 -34 37 -6 72 21 27 22 27 100 20 74 -6 81 -5 111 18 18
14 45 48 61 77 51 93 23 186 -63 210 -80 22 -183 1 -233 -47 -23 -22 -32 -25
-46 -17 -9 6 -18 22 -20 36 -4 33 43 73 101 88 23 6 47 13 52 15 22 8 152 4
185 -5z m-3717 -89 c45 -42 76 -98 108 -199 17 -55 28 -74 44 -77 11 -2 317
-7 680 -11 363 -4 689 -8 725 -10 36 -1 240 -6 455 -9 430 -7 434 -8 482 -73
37 -50 189 -342 290 -557 107 -227 194 -389 369 -692 68 -116 189 -332 270
-480 199 -364 254 -460 398 -696 163 -269 256 -406 300 -440 37 -29 46 -57 23
-76 -18 -14 -57 -2 -137 44 -63 36 -303 164 -540 288 -63 33 -191 103 -285
157 -93 53 -269 152 -390 220 -121 67 -332 187 -470 265 -394 224 -679 381
-1275 700 -305 163 -637 342 -738 397 -101 55 -185 98 -187 96 -2 -2 -17 -64
-34 -138 -59 -256 -142 -484 -197 -541 -31 -33 -46 -36 -64 -14 -11 13 -6 31
28 103 22 48 51 116 65 152 27 72 91 315 111 421 l13 66 -56 33 c-31 18 -186
106 -346 195 -159 89 -389 218 -510 285 -121 68 -276 150 -345 181 -155 71
-190 109 -137 144 21 13 78 14 498 5 261 -5 570 -13 687 -16 147 -5 212 -4
212 3 0 26 -51 159 -74 194 -23 34 -31 39 -66 39 -44 0 -55 10 -46 45 7 26 49
46 81 38 11 -3 37 -22 58 -42z m5498 29 c10 -6 19 -19 19 -29 0 -39 -25 -45
-219 -52 -102 -4 -219 -13 -259 -19 -81 -13 -106 -4 -100 34 5 34 111 53 348
65 85 5 163 9 173 10 10 0 27 -4 38 -9z m2245 -25 c9 -36 -2 -55 -31 -55 -29
0 -40 19 -31 55 5 18 13 25 31 25 18 0 26 -7 31 -25z m-8988 -37 c7 -7 12 -20
12 -29 0 -27 -89 -98 -205 -164 -58 -33 -105 -63 -105 -67 0 -14 45 -50 112
-90 76 -45 91 -60 86 -84 -7 -39 -32 -38 -107 7 -105 63 -159 113 -167 155 -9
51 13 75 125 139 55 30 124 75 153 100 55 46 76 53 96 33z m8352 -24 c127 -17
150 -26 150 -53 0 -35 -24 -44 -82 -31 -79 18 -404 24 -574 11 -309 -25 -563
-64 -695 -108 -81 -27 -109 -26 -109 5 0 29 39 58 106 81 69 23 269 61 348 65
28 2 107 11 176 20 162 20 192 22 395 24 111 1 211 -4 285 -14z m-4610 -24
c10 -6 40 -38 67 -73 26 -34 76 -93 112 -130 54 -56 63 -71 55 -85 -23 -36
-48 -25 -130 60 -44 46 -94 100 -111 122 -37 46 -57 45 -127 -9 -47 -35 -61
-40 -90 -29 -40 15 -5 65 88 123 51 32 101 40 136 21z m2810 -134 l155 -1 3
-32 c3 -30 1 -32 -34 -39 -53 -10 -357 2 -381 15 -27 14 -36 40 -21 58 9 12
24 13 67 7 31 -4 126 -8 211 -8z m1594 -210 c42 -18 50 -30 48 -79 l-2 -39 43
6 c52 8 77 0 77 -24 0 -31 -33 -47 -155 -77 -66 -17 -138 -39 -160 -49 -37
-18 -40 -22 -40 -60 -1 -90 -96 -159 -168 -123 -58 30 -74 98 -34 144 12 14
40 36 62 48 l40 23 0 76 c0 89 12 108 90 144 58 27 148 31 199 10z m-878 -24
c5 -4 18 -60 28 -124 10 -64 31 -154 46 -200 29 -86 27 -108 -10 -108 -37 0
-59 47 -90 187 -35 162 -23 279 26 245z m7879 -694 c43 -11 50 -17 53 -41 2
-17 -2 -29 -11 -33 -9 -3 -73 3 -143 13 -132 19 -155 30 -140 68 6 16 16 17
99 12 50 -3 115 -12 142 -19z m-645 -23 c5 -3 10 -17 10 -30 0 -32 -33 -38
-188 -32 -119 4 -152 13 -152 41 0 32 24 37 172 32 82 -3 152 -8 158 -11z
m-709 -45 c24 -13 25 -46 2 -58 -10 -6 -79 -11 -153 -13 -131 -4 -135 -3 -138
17 -2 11 4 27 14 34 26 22 242 37 275 20z m-610 -40 c15 0 10 -37 -7 -54 -23
-23 -265 -23 -285 0 -9 11 -10 20 -2 32 8 14 33 18 134 22 68 3 130 4 137 3 8
-2 18 -3 23 -3z m2066 -330 c17 -38 47 -234 39 -264 -7 -29 -36 -35 -56 -11
-13 15 -49 220 -50 278 0 25 3 28 27 25 18 -2 32 -12 40 -28z m-5337 -105 c58
-30 76 -104 40 -163 -20 -32 -104 -81 -140 -82 -8 0 -21 -4 -29 -9 -20 -13 23
-84 72 -118 37 -26 49 -28 141 -30 56 -1 104 -2 109 -2 4 -1 7 -12 7 -26 0
-60 -154 -82 -257 -36 -67 30 -137 104 -154 162 -8 30 -26 57 -57 84 -40 37
-44 44 -38 72 10 46 53 52 69 11 10 -28 23 -21 35 20 34 110 119 160 202 117z
m-1040 -145 c11 -6 18 -42 25 -126 l10 -116 53 67 c95 118 218 178 256 123 19
-26 5 -58 -25 -58 -57 0 -147 -76 -220 -184 -35 -53 -39 -64 -39 -123 0 -73
-12 -103 -40 -103 -39 0 -50 38 -55 193 -3 80 -9 156 -14 169 -12 33 -4 150
11 160 16 10 20 10 38 -2z m-1823 -310 c56 -32 81 -61 118 -142 20 -43 25 -69
25 -133 -1 -123 -42 -201 -142 -265 -32 -21 -55 -41 -51 -43 15 -9 285 -28
353 -25 l65 3 0 -30 c0 -26 -5 -31 -40 -41 -64 -20 -218 -15 -388 12 l-38 6 6
-39 c4 -21 16 -71 28 -112 20 -72 20 -74 2 -87 -48 -35 -68 -9 -95 125 -21
102 -26 113 -57 137 -39 30 -42 56 -9 77 21 14 23 20 16 54 -24 116 -60 315
-66 360 -6 50 -5 53 20 64 16 8 30 9 36 3 5 -5 21 -74 35 -154 36 -200 55
-280 66 -280 21 0 86 40 115 72 92 97 96 228 10 326 -17 19 -44 43 -60 53 -25
15 -33 16 -73 4 -25 -8 -51 -11 -59 -8 -24 9 -16 50 14 72 41 31 105 28 169
-9z m2320 22 c7 -4 15 -21 19 -38 7 -38 -27 -75 -54 -58 -17 11 -28 64 -18 90
6 15 34 18 53 6z m5823 -111 c5 -11 10 -34 10 -51 0 -17 7 -60 16 -95 18 -72
14 -95 -15 -95 -39 0 -59 43 -66 144 -4 52 -4 99 -1 105 11 18 44 13 56 -8z
m-7376 -265 c84 -14 106 -29 106 -73 0 -34 -26 -39 -76 -14 -53 25 -153 29
-206 6 -40 -16 -58 -6 -58 32 0 26 23 41 83 53 57 11 61 11 151 -4z m2395
-160 c7 -8 11 -27 9 -43 -2 -22 -7 -27 -23 -24 -38 9 -341 4 -530 -8 -104 -6
-300 -18 -435 -27 -277 -17 -467 -38 -554 -60 -69 -18 -86 -14 -86 20 0 19 9
30 38 44 20 11 49 22 63 26 220 52 1485 112 1518 72z m4989 2 c5 -7 11 -65 13
-128 4 -107 3 -115 -15 -115 -10 0 -28 13 -40 28 -17 23 -20 42 -20 110 0 45
3 90 6 100 8 20 41 23 56 5z m-7280 -57 c21 -13 10 -44 -18 -57 -14 -7 -112
-15 -227 -19 l-203 -7 -12 26 c-8 19 -8 30 -1 37 6 6 62 13 124 16 63 3 116 7
118 9 8 8 206 4 219 -5z m1590 -311 c116 -52 66 -245 -87 -335 -28 -16 -51
-33 -51 -37 0 -3 50 -18 111 -33 126 -30 303 -43 361 -27 45 12 72 -2 66 -38
-5 -34 -55 -48 -171 -49 -113 -1 -241 22 -418 75 -65 19 -138 34 -166 34 -96
0 -160 76 -98 116 25 16 29 16 100 -6 65 -20 78 -22 120 -11 66 17 100 36 156
88 74 69 86 140 27 164 -25 10 -34 10 -60 -6 -27 -15 -32 -16 -45 -2 -21 20
-10 61 19 75 35 17 89 14 136 -8z m-3950 -153 c6 -7 25 -56 42 -108 39 -116
42 -190 8 -226 -29 -31 -135 -63 -209 -63 -48 0 -60 3 -69 20 -17 32 4 62 43
59 44 -4 126 11 161 28 26 14 28 17 21 60 -4 26 -20 80 -36 122 -34 88 -34 85
-13 105 19 19 38 20 52 3z m-3706 -892 c136 -15 174 -30 184 -71 9 -37 -2 -68
-73 -196 -69 -126 -101 -160 -128 -138 -25 20 -18 45 39 144 78 135 89 157 79
167 -4 4 -57 13 -118 19 -130 14 -159 25 -163 63 -4 33 -3 33 180 12z m13532
-101 c8 -22 18 -392 11 -415 -8 -23 -38 -25 -56 -3 -20 24 -33 373 -16 418 8
21 53 21 61 0z m-396 -41 c5 -10 13 -62 17 -116 l7 -97 51 7 c29 4 68 8 87 8
31 0 35 -3 38 -28 3 -23 -2 -30 -32 -42 -19 -8 -60 -15 -91 -15 l-55 0 0 -90
c0 -88 0 -90 -26 -96 -39 -10 -49 9 -53 101 l-3 84 -42 5 c-22 3 -52 7 -65 8
-33 4 -49 31 -31 53 12 14 26 16 76 12 l62 -6 -4 95 c-2 54 1 104 7 115 12 24
45 25 57 2z m-330 -90 c5 -34 -45 -128 -99 -187 -27 -30 -49 -58 -49 -63 0 -5
24 -23 53 -40 48 -29 78 -43 150 -72 51 -20 25 -71 -36 -71 -26 0 -101 36
-185 90 -50 32 -59 34 -126 31 -61 -2 -76 1 -99 20 -25 19 -28 27 -25 73 3 44
6 52 31 64 25 12 34 11 93 -17 50 -23 70 -28 84 -21 21 11 81 83 100 120 38
74 61 101 83 98 14 -2 23 -11 25 -25z m-5874 -212 c31 -34 17 -56 -35 -56 -78
-1 -172 -72 -232 -177 -20 -34 -26 -38 -65 -38 l-43 0 32 61 c40 75 131 169
196 203 60 31 123 34 147 7z m-6914 -219 c0 -10 -13 -39 -30 -65 -16 -26 -30
-50 -30 -52 0 -3 30 -25 68 -48 83 -54 100 -73 85 -95 -18 -29 -42 -25 -117
22 -41 25 -78 46 -82 46 -5 0 -27 -29 -49 -65 -41 -68 -66 -85 -90 -65 -23 19
-18 48 14 89 17 21 35 50 42 65 11 24 11 29 -3 37 -75 42 -106 109 -50 109 16
0 47 -14 70 -31 l41 -30 32 50 c17 28 38 55 47 60 21 12 52 -4 52 -27z m12198
8 c2 -20 -12 -38 -70 -90 -40 -36 -111 -95 -158 -132 -114 -87 -118 -93 -94
-120 11 -11 62 -53 114 -94 52 -40 108 -83 124 -96 31 -26 32 -54 4 -71 -21
-14 -86 29 -218 140 -51 43 -98 82 -106 87 -9 7 -34 -6 -86 -46 -94 -72 -138
-98 -164 -98 -26 0 -48 24 -41 44 3 8 53 46 111 86 58 40 106 76 106 82 0 6
-23 35 -50 65 -47 51 -50 57 -37 77 24 35 42 30 92 -28 26 -31 54 -56 63 -56
17 0 156 102 282 209 90 76 123 86 128 41z m2007 -502 c3 -13 7 -93 8 -178 l2
-155 85 -5 c77 -5 85 -7 88 -26 5 -33 -23 -47 -96 -49 l-67 -1 -3 -64 c-3 -69
-13 -90 -43 -90 -26 0 -39 31 -39 94 l0 55 -103 -6 c-121 -7 -147 2 -147 47
l0 30 83 2 c45 1 100 2 122 2 l40 1 1 167 c1 174 6 198 45 198 11 0 21 -9 24
-22z m1014 -76 c41 -20 55 -52 36 -79 -13 -17 -15 -17 -58 6 -34 19 -54 23
-86 18 -91 -12 -172 -87 -186 -172 -8 -55 23 -100 95 -136 111 -56 180 -56
232 2 37 40 62 35 66 -12 3 -31 -3 -41 -38 -72 -38 -35 -44 -37 -106 -37 -125
0 -259 60 -301 135 -31 56 -31 142 1 211 26 55 94 113 163 139 54 20 141 19
182 -3z m-1561 -209 c8 -58 -83 -66 -663 -64 -203 1 -415 -3 -470 -9 -55 -6
-170 -15 -255 -20 -127 -7 -605 -57 -815 -85 -57 -8 -79 6 -73 47 4 28 11 30
298 62 686 77 673 77 1263 80 295 2 540 6 544 10 4 4 43 5 88 4 74 -3 80 -5
83 -25z m-9455 -163 c13 -11 27 -30 31 -43 3 -13 17 -29 31 -35 34 -16 128
-211 182 -377 64 -201 111 -363 127 -447 9 -42 21 -89 27 -105 6 -15 24 -82
40 -148 26 -111 67 -246 90 -304 15 -36 24 -17 47 94 11 55 32 152 46 215 13
63 54 250 90 415 75 345 84 402 67 444 -22 52 23 111 96 124 18 4 35 2 38 -3
3 -6 17 -10 30 -10 42 0 60 -42 61 -140 2 -118 52 -457 98 -665 8 -38 20 -106
26 -150 6 -44 16 -95 22 -114 6 -19 12 -58 14 -85 2 -28 8 -73 13 -101 5 -27
15 -77 21 -110 6 -33 13 -76 15 -96 2 -20 11 -54 19 -74 9 -21 16 -57 16 -81
0 -40 -4 -46 -40 -70 -48 -32 -104 -35 -132 -7 -15 15 -22 47 -33 139 -29 244
-37 293 -75 474 -37 173 -63 319 -76 434 -3 27 -9 45 -14 40 -12 -12 -68 -232
-81 -318 -6 -39 -22 -108 -35 -153 -13 -45 -28 -124 -34 -175 -13 -123 -17
-140 -51 -225 -23 -57 -28 -87 -27 -145 1 -98 -11 -125 -59 -134 -21 -4 -46
-11 -55 -15 -11 -6 -29 -3 -52 8 -39 20 -51 51 -42 111 4 21 0 58 -9 87 -8 28
-32 113 -53 190 -21 77 -53 183 -70 235 -41 126 -120 410 -180 650 -48 191
-110 371 -130 378 -5 1 -15 -25 -20 -60 -26 -150 -33 -363 -30 -908 l3 -565
24 -32 c46 -61 -5 -124 -106 -131 -52 -3 -61 -1 -81 21 -13 13 -23 33 -22 43
0 11 3 262 5 559 5 803 11 896 77 1160 11 44 25 109 31 145 6 36 15 68 21 72
21 14 73 8 99 -12z m4721 -241 c25 -23 30 -38 34 -88 3 -45 0 -67 -12 -86 -9
-13 -16 -40 -16 -60 0 -19 -6 -79 -14 -133 -20 -136 -21 -332 -1 -358 24 -31
18 -70 -16 -109 -35 -39 -34 -22 -9 -230 24 -197 29 -234 40 -300 17 -95 16
-116 -10 -137 -29 -23 -92 -40 -138 -36 -48 4 -62 32 -62 123 0 39 -4 86 -9
105 -5 19 -12 98 -15 175 -7 159 -15 248 -25 262 -21 32 -386 88 -416 63 -11
-9 -13 -43 -9 -193 8 -278 19 -386 44 -444 42 -97 12 -149 -91 -160 -74 -7
-82 5 -98 137 -7 58 -16 121 -22 142 -16 60 -15 894 1 1179 0 4 19 14 41 23
33 14 48 15 75 6 45 -15 50 -38 34 -176 -10 -89 -11 -128 -1 -187 7 -42 10
-90 6 -109 -7 -41 0 -51 50 -67 59 -19 317 -27 355 -11 16 7 31 13 31 14 7 7
24 515 17 528 -5 10 -4 19 2 23 5 3 10 23 10 44 0 92 150 132 224 60z m3716
-164 c0 -2 -6 -32 -14 -67 -23 -98 -31 -224 -16 -233 7 -4 55 -10 106 -13 82
-4 94 -7 94 -23 0 -34 -39 -49 -127 -49 l-83 0 0 -135 0 -135 -26 -6 c-44 -11
-49 6 -49 154 l0 137 -85 8 c-47 4 -103 11 -125 15 -36 7 -40 11 -40 37 l0 30
65 0 c36 0 93 -4 126 -8 l61 -8 6 98 c7 128 24 198 51 211 18 8 56 0 56 -13z
m-6360 -7 c40 -28 45 -37 59 -113 10 -58 101 -275 143 -342 23 -38 35 -40 85
-13 21 11 44 20 52 20 8 0 47 18 87 40 108 59 184 52 214 -20 18 -43 6 -62
-62 -102 -52 -31 -65 -35 -87 -26 -52 20 -191 -25 -191 -62 0 -19 57 -97 116
-160 30 -33 58 -73 86 -128 27 -53 -50 -117 -131 -109 -57 6 -88 39 -130 137
-18 41 -49 100 -69 130 -32 47 -42 55 -67 53 -56 -4 -470 -223 -533 -282 -31
-28 -45 -54 -67 -121 -35 -105 -74 -150 -131 -150 -41 0 -74 23 -74 52 0 10
25 60 56 111 51 84 55 96 51 137 -7 62 14 115 61 156 23 19 44 45 48 57 3 12
47 105 96 207 50 102 101 212 113 245 13 33 39 87 59 119 23 38 36 73 36 94 0
24 8 42 29 63 38 37 101 40 151 7z m1164 2 c19 -12 37 -29 41 -38 4 -9 8 -72
10 -138 1 -67 5 -127 9 -132 4 -7 43 -9 109 -6 145 6 197 5 234 -7 35 -11 83
-61 83 -87 0 -27 -50 -90 -76 -96 -44 -11 -167 -16 -178 -7 -6 5 -40 11 -76
13 l-65 3 0 -55 c1 -30 7 -89 14 -130 7 -41 16 -97 21 -125 19 -125 43 -244
57 -293 16 -50 16 -53 -3 -80 -11 -15 -36 -35 -55 -44 -41 -22 -122 -24 -138
-4 -16 19 -74 381 -102 638 -10 95 -14 108 -33 114 -11 4 -79 8 -151 8 -78 1
-139 7 -151 14 -81 44 14 142 137 142 32 0 69 -4 83 -10 14 -5 39 -7 55 -4 28
6 28 7 34 91 5 65 3 92 -8 114 -31 58 -15 93 55 123 46 20 53 20 94 -4z m4656
-74 c0 -75 -124 -262 -225 -338 -28 -21 -51 -42 -53 -47 -2 -5 27 -26 63 -46
51 -29 83 -39 141 -46 41 -4 79 -11 84 -14 18 -11 11 -43 -12 -59 -49 -35
-146 -13 -282 64 l-90 50 -35 -16 c-102 -49 -231 -58 -296 -21 l-40 23 0 154
0 155 35 3 c31 3 57 -11 190 -99 l154 -101 33 17 c56 30 140 113 187 184 25
38 46 72 46 76 0 5 11 28 25 52 19 32 32 43 50 43 22 0 25 -5 25 -34z m1132
-86 c17 -35 24 -121 33 -409 4 -125 -1 -151 -31 -151 -7 0 -21 12 -31 26 -13
20 -17 57 -21 167 -3 78 -4 164 -3 190 1 27 -1 58 -5 69 -5 18 -9 17 -36 -16
-33 -41 -72 -46 -92 -14 -9 14 -4 25 25 55 19 21 48 57 63 81 22 36 32 43 54
40 19 -2 32 -13 44 -38z m-11676 -41 l109 -45 3 -71 c3 -69 2 -72 -27 -92 -17
-12 -56 -31 -87 -41 -143 -49 -243 -1 -268 129 -9 48 10 109 45 144 26 26 35
29 73 25 23 -3 91 -25 152 -49z m13735 -729 c88 -47 106 -417 34 -668 -16 -52
-37 -74 -56 -55 -5 5 1 47 17 108 18 73 27 138 31 240 9 213 -17 327 -79 347
-17 6 -2 38 17 38 9 0 25 -5 36 -10z m-333 -62 c-2 -18 -11 -24 -35 -26 -40
-4 -130 -83 -168 -147 -51 -88 -105 -265 -105 -347 0 -16 8 -43 17 -59 14 -23
15 -31 5 -41 -30 -30 -72 31 -72 103 0 68 44 233 85 316 62 125 167 222 243
223 29 0 33 -3 30 -22z m283 -84 c11 -14 10 -19 -8 -33 -11 -9 -36 -28 -55
-43 -19 -14 -51 -57 -71 -96 -35 -66 -36 -70 -17 -75 30 -8 24 -37 -10 -48
-31 -11 -39 -29 -55 -122 -5 -32 -10 -38 -28 -35 -24 3 -27 26 -12 104 l7 41
-52 7 c-47 6 -54 5 -69 -16 -56 -81 -112 -121 -135 -98 -8 9 -4 18 20 38 17
15 43 44 58 64 27 36 27 37 7 48 -23 12 -28 35 -10 46 6 3 22 0 35 -7 23 -12
28 -9 97 59 51 50 102 87 172 126 55 31 103 56 106 56 4 0 13 -7 20 -16z
m-1091 -81 c1 -19 1 -369 0 -380 0 -7 -6 -13 -14 -13 -25 0 -31 22 -36 139
l-5 113 -48 -66 c-67 -94 -126 -127 -159 -88 -27 31 -30 69 -8 111 27 55 72
84 136 89 52 4 53 5 74 53 15 35 26 49 40 49 11 0 20 -3 20 -7z m201 -81 c8
-63 27 -70 66 -26 21 23 38 34 48 31 19 -8 19 1 -9 -223 -14 -104 -26 -206
-28 -226 l-4 -38 91 0 c51 0 161 -6 246 -14 85 -8 207 -18 272 -22 102 -6 117
-9 117 -24 0 -28 -20 -30 -162 -20 -306 22 -460 30 -571 30 -115 0 -118 -1
-127 -24 -5 -13 -12 -102 -15 -197 -6 -177 -14 -211 -42 -187 -13 10 -14 30
-8 113 4 56 3 96 -2 90 -5 -5 -26 -36 -47 -68 -57 -84 -100 -119 -144 -115
-29 2 -38 9 -48 33 -31 78 77 205 175 205 25 0 34 7 50 38 10 20 22 52 26 70
l7 33 -64 -2 c-34 -1 -126 -7 -203 -15 -184 -18 -215 -18 -215 1 0 8 8 19 18
24 27 14 206 31 483 47 l125 6 -4 27 c-2 14 6 95 17 180 26 188 26 180 1 174
-55 -14 -100 31 -100 100 0 38 7 49 30 45 9 -2 17 -19 21 -46z m1527 -76 c2
-16 -6 -50 -17 -76 -29 -68 -28 -115 4 -136 23 -15 29 -15 52 -3 34 18 63 82
63 141 0 48 20 81 43 72 17 -6 13 -467 -4 -473 -27 -9 -39 32 -39 135 l0 101
-40 -19 c-46 -23 -76 -19 -117 16 -25 22 -28 31 -28 83 1 37 9 76 22 108 12
28 24 58 27 68 8 27 30 15 34 -17z m-18502 -151 c16 -24 15 -27 -23 -92 -22
-38 -47 -86 -55 -108 -34 -87 -118 -252 -137 -269 -24 -22 -71 -15 -71 11 0 9
16 44 35 78 l34 62 -28 27 c-30 29 -77 117 -107 204 -20 57 -14 71 29 72 18 0
25 -13 82 -147 10 -24 21 -43 24 -43 4 0 26 33 51 73 50 81 116 157 136 157 7
0 21 -11 30 -25z m8309 -135 c20 -23 23 -17 -66 -126 -31 -38 -73 -103 -93
-144 -20 -41 -52 -105 -71 -141 -19 -37 -35 -76 -35 -88 0 -13 33 -56 81 -109
45 -48 106 -125 136 -172 31 -47 63 -94 73 -105 10 -11 21 -31 25 -45 4 -14
18 -42 32 -62 23 -35 24 -40 11 -60 -9 -13 -32 -29 -52 -36 -33 -12 -40 -12
-57 4 -10 9 -19 24 -19 33 0 9 -10 32 -22 51 -12 19 -38 67 -58 106 -56 108
-174 273 -187 260 -12 -12 -13 -363 -1 -409 15 -60 5 -78 -47 -92 -68 -17 -66
-28 -65 475 2 341 5 460 16 508 8 35 14 74 14 87 0 30 27 46 58 34 25 -10 27
-24 13 -164 -5 -49 -6 -110 -3 -133 l7 -44 33 84 c18 47 60 123 97 176 36 51
65 99 65 107 0 30 88 35 115 5z m6841 -103 c27 -23 71 -60 97 -81 55 -44 44
-48 150 54 38 36 74 65 80 65 7 0 14 -11 15 -24 3 -19 -12 -39 -73 -97 l-77
-74 63 -57 c102 -93 109 -101 109 -123 0 -39 -39 -21 -130 61 l-91 81 -41 -27
c-48 -32 -101 -39 -106 -14 -2 11 14 27 47 48 28 17 51 32 51 34 0 2 -38 34
-85 71 -85 68 -111 98 -100 116 12 20 44 9 91 -33z m-3981 -72 c18 -55 40
-136 50 -180 18 -82 89 -308 120 -380 16 -36 18 -37 28 -20 15 27 16 413 1
439 -16 27 -6 53 25 66 34 14 78 4 91 -19 5 -10 7 -44 5 -77 -3 -32 -7 -113
-10 -179 -6 -152 -19 -248 -39 -304 -13 -36 -14 -51 -5 -78 6 -19 8 -40 5 -48
-8 -21 -65 -47 -90 -41 -21 5 -27 20 -171 424 -33 93 -50 108 -41 35 3 -21 10
-126 16 -233 7 -107 16 -208 21 -223 14 -45 -13 -87 -58 -87 -31 0 -37 15 -38
100 -1 41 -9 145 -18 230 -37 359 -43 652 -13 673 6 4 28 6 50 5 l38 -3 33
-100z m-2361 61 c39 -30 46 -54 47 -181 1 -122 -9 -183 -32 -195 -24 -14 -35
-13 -52 5 -12 12 -13 22 -5 49 13 41 1 218 -16 241 -18 25 -41 9 -85 -56 -50
-75 -66 -158 -65 -339 1 -197 30 -317 80 -337 20 -7 75 21 115 58 33 30 49 67
49 110 l0 29 -57 -6 c-32 -3 -68 -7 -79 -10 -30 -5 -84 24 -84 46 0 57 108 88
366 106 102 6 102 6 119 -19 33 -52 -3 -87 -89 -87 -54 0 -66 -13 -76 -87 -14
-98 -23 -121 -67 -167 -60 -64 -99 -80 -176 -72 -71 8 -95 19 -130 61 -61 74
-90 298 -68 525 10 102 16 124 51 195 46 92 64 115 111 145 43 27 97 22 143
-14z m5607 -25 c-1 -29 0 -82 4 -116 l6 -62 45 10 c32 8 48 7 56 -1 17 -17
-15 -49 -59 -57 l-35 -6 4 -82 c3 -79 2 -82 -19 -85 -30 -4 -43 30 -43 109 l0
59 -78 -6 c-66 -6 -81 -4 -95 11 -30 29 -15 40 59 41 114 0 104 -10 102 108
-2 109 8 140 41 134 13 -3 15 -14 12 -57z m-5097 42 c4 -5 46 -8 93 -8 78 0
86 -2 105 -25 17 -21 19 -34 14 -78 -9 -79 -29 -116 -80 -153 -25 -19 -45 -38
-46 -44 0 -5 33 -30 73 -54 90 -55 191 -143 223 -192 13 -21 51 -68 84 -105
72 -79 79 -114 29 -140 -53 -27 -71 -14 -153 109 -91 137 -103 150 -191 220
-77 60 -140 97 -168 97 -17 0 -17 -12 -12 -202 3 -112 8 -227 10 -256 6 -62
-5 -87 -41 -96 -49 -13 -56 6 -53 128 2 61 -1 194 -5 296 -7 159 -6 198 10
275 9 50 18 108 19 130 2 56 29 105 59 105 12 0 26 -3 30 -7z m8836 -13 c0
-19 -7 -20 -125 -20 -118 0 -125 1 -125 20 0 19 7 20 125 20 118 0 125 -1 125
-20z m-3352 -25 c56 -63 55 -140 -4 -226 l-36 -52 88 7 c49 3 106 9 127 12 36
6 39 5 35 -17 -6 -42 -48 -53 -211 -57 -167 -4 -197 0 -197 27 0 22 16 36 52
45 34 8 94 59 114 97 22 43 18 94 -10 126 -24 27 -25 27 -44 9 -24 -21 -42
-14 -42 18 0 32 19 46 61 46 30 0 43 -7 67 -35z m-7132 -51 c53 -25 80 -83 89
-183 4 -46 11 -94 15 -107 11 -28 -18 -69 -56 -78 -41 -11 -53 8 -52 77 2 169
-47 259 -117 213 -33 -22 -41 -40 -63 -142 -51 -237 -2 -454 103 -454 26 0 36
7 56 37 27 42 43 49 82 34 41 -16 36 -55 -11 -100 -63 -60 -159 -78 -219 -41
-47 28 -91 94 -115 173 -19 62 -20 85 -15 211 9 201 44 307 119 355 41 26 134
28 184 5z m10374 0 c58 -1 108 -3 113 -3 19 -2 4 -30 -23 -41 -55 -23 -250 4
-250 34 0 20 13 28 35 20 11 -3 67 -8 125 -10z m-7148 -26 c10 -11 16 -23 14
-27 -4 -6 -8 -62 -25 -362 -10 -160 -15 -176 -80 -250 -67 -77 -167 -102 -246
-61 -53 27 -79 56 -109 122 -44 98 -56 186 -46 360 5 85 13 166 18 180 14 36
37 53 62 45 19 -6 20 -14 20 -148 1 -205 14 -335 41 -392 27 -58 82 -115 110
-115 31 0 72 27 97 66 37 56 47 195 38 535 -1 59 16 82 58 74 17 -4 39 -16 48
-27z m776 13 c9 -5 51 -16 92 -26 113 -26 209 -74 254 -126 59 -68 68 -99 70
-229 1 -101 -2 -120 -21 -157 -30 -54 -79 -94 -160 -127 -151 -62 -300 -71
-320 -20 -3 9 2 30 12 46 16 28 17 49 11 227 -10 254 -14 330 -22 353 -8 26
21 57 64 67 1 1 10 -3 20 -8z m-4732 -16 c13 -8 24 -30 28 -55 8 -54 81 -210
98 -210 21 0 99 29 122 45 34 25 83 19 103 -11 17 -27 17 -27 -17 -56 -28 -23
-41 -28 -67 -23 -34 6 -103 -17 -103 -34 0 -6 19 -34 43 -63 76 -94 81 -106
62 -134 -15 -23 -30 -28 -70 -24 -31 3 -41 16 -81 97 -21 41 -44 77 -51 80
-17 7 -251 -111 -298 -150 -21 -17 -40 -45 -50 -77 -25 -76 -82 -111 -109 -68
-8 14 -4 30 21 75 20 38 31 72 31 98 0 29 6 45 24 60 22 19 117 202 156 300 8
22 24 51 34 64 10 13 18 34 18 47 0 48 61 71 106 39z m7064 0 c15 -18 6 -45
-15 -45 -10 0 -15 10 -15 30 0 33 11 38 30 15z m3101 -58 c49 -97 45 -96 111
-30 45 44 61 54 70 45 17 -17 -7 -56 -59 -99 -24 -20 -43 -39 -43 -44 0 -5 16
-27 37 -49 34 -38 35 -42 20 -57 -15 -16 -19 -14 -56 25 -22 23 -44 42 -48 42
-4 0 -19 -9 -33 -20 -34 -26 -70 -26 -70 0 0 13 14 27 41 40 22 12 39 24 37
28 -2 4 -20 42 -41 85 -31 62 -36 81 -27 92 17 21 26 12 61 -58z m-10882 33
c8 -13 25 -20 45 -20 41 -1 112 -33 125 -58 15 -29 13 -112 -4 -142 -20 -34
-20 -34 24 -63 73 -49 103 -183 58 -262 -39 -70 -180 -129 -301 -126 -82 1
-79 -10 -71 291 4 146 8 281 10 300 1 19 3 45 4 57 3 54 78 69 110 23z m3876
-47 c73 -24 158 -112 179 -182 52 -179 -48 -351 -204 -351 -93 0 -196 85 -226
186 -20 69 -15 191 10 229 9 13 16 30 16 37 1 22 44 66 80 82 46 20 86 20 145
-1z m8670 -22 c0 -23 -43 -29 -236 -37 -160 -6 -179 -5 -179 9 0 26 20 32 130
38 180 10 285 6 285 -10z m-69 -133 c13 -20 -28 -38 -86 -38 -60 0 -116 -14
-139 -35 -11 -11 -4 -15 38 -24 103 -22 138 -58 107 -106 -27 -41 -106 -46
-148 -8 -29 26 -23 46 12 39 17 -3 44 -9 60 -12 22 -5 30 -3 30 8 0 8 -25 20
-68 31 -38 10 -74 23 -80 29 -18 18 -14 53 8 73 11 10 20 26 20 37 0 16 10 18
119 18 80 0 122 -4 127 -12z m-4596 -63 c0 -24 -40 -48 -83 -49 -40 -1 -42 0
-45 32 -3 30 -1 32 20 27 13 -3 37 -1 53 3 34 10 55 5 55 -13z m1648 -168 c6
-7 8 -18 4 -24 -13 -20 -1178 -175 -1482 -197 -41 -3 -124 -7 -185 -8 l-110
-3 0 28 0 28 105 4 c223 11 959 95 1430 164 155 23 224 25 238 8z m-844 -234
c4 -9 4 -40 1 -68 -5 -44 7 -181 18 -191 2 -2 20 3 40 11 65 27 160 -9 181
-69 20 -55 -62 -116 -186 -136 -77 -12 -151 4 -156 34 -6 30 10 36 73 26 45
-7 70 -6 106 4 58 18 109 44 109 56 0 16 -37 30 -77 30 -32 0 -41 -5 -55 -30
-21 -37 -45 -47 -64 -28 -33 33 -59 310 -34 359 13 24 36 25 44 2z m-11424
-29 c6 -14 11 -53 12 -85 1 -32 5 -64 9 -70 5 -8 31 -12 74 -10 52 2 71 -1 86
-15 43 -39 6 -68 -83 -66 -69 2 -65 17 -38 -168 20 -139 17 -160 -20 -160 -28
0 -48 58 -65 190 -9 68 -17 126 -19 127 -1 1 -29 -2 -62 -8 -128 -22 -131 -22
-137 -4 -16 41 26 68 132 81 l54 7 -6 85 c-4 50 -2 92 4 103 14 28 48 24 59
-7z m795 -28 c12 -17 15 -43 13 -92 l-3 -69 -37 56 c-42 64 -48 89 -29 112 19
24 38 21 56 -7z m-1352 -35 c23 -16 61 -49 84 -74 108 -117 243 -509 243 -704
0 -131 -38 -233 -86 -233 -35 0 -41 39 -15 106 13 34 21 79 21 114 0 181 -109
514 -216 661 -47 65 -79 84 -139 84 -47 0 -50 2 -53 28 -3 23 2 30 30 42 42
19 78 13 131 -24z m11503 -100 c12 -42 28 -77 38 -83 9 -5 76 -10 149 -11 114
-2 132 -4 135 -19 6 -32 -35 -41 -160 -36 -134 6 -128 10 -104 -79 11 -42 11
-55 1 -69 -23 -32 -43 -9 -60 71 -19 82 -34 105 -70 105 -30 0 -71 33 -60 50
5 8 21 11 47 7 39 -5 40 -5 34 21 -3 15 -9 49 -12 75 -7 47 -6 49 17 45 21 -3
27 -14 45 -77z m-336 4 c16 -20 -1 -60 -55 -131 -20 -26 -32 -50 -28 -54 4 -5
40 -21 78 -37 59 -25 70 -34 70 -54 0 -21 -4 -24 -30 -21 -16 2 -57 18 -90 35
l-60 32 -3 50 c-3 46 2 57 45 123 26 39 51 72 54 72 4 0 12 -7 19 -15z
m-10050 -23 c65 -32 67 -37 76 -222 6 -114 5 -129 -14 -165 -26 -51 -56 -79
-112 -104 -107 -49 -212 0 -170 78 16 32 40 33 62 5 16 -20 26 -24 47 -19 78
19 111 72 111 177 0 113 -3 116 -64 62 -79 -72 -130 -88 -185 -59 -31 16 -51
59 -51 110 0 74 114 165 204 165 24 -1 64 -12 96 -28z m-2732 -14 c20 -20 13
-42 -25 -78 -49 -46 -88 -134 -114 -255 -18 -83 -22 -136 -23 -310 -1 -198 1
-216 26 -318 30 -116 38 -137 74 -180 26 -31 22 -54 -12 -67 -36 -14 -50 -4
-78 60 -93 207 -119 472 -76 761 32 210 74 313 152 369 45 33 58 36 76 18z
m2982 -203 c0 -39 -4 -46 -30 -60 -16 -8 -36 -15 -44 -15 -21 0 -39 36 -28 56
8 15 80 63 95 64 4 0 7 -20 7 -45z m5444 -92 c-2 -30 1 -33 26 -33 38 0 60 -9
60 -25 0 -8 -25 -14 -77 -18 -43 -3 -87 -7 -97 -9 -38 -6 -27 21 13 33 42 12
50 26 30 46 -18 18 -2 45 23 41 19 -2 23 -9 22 -35z m-7020 -139 l79 -115 34
33 c19 18 53 57 75 86 43 55 70 65 88 31 14 -25 2 -46 -82 -140 -32 -37 -58
-70 -58 -73 0 -16 97 -109 127 -121 63 -27 51 -75 -18 -75 -36 0 -46 7 -105
69 l-66 69 -50 -35 c-79 -57 -175 -57 -152 0 2 6 29 22 58 35 30 13 64 34 76
47 l21 23 -28 33 c-33 39 -106 151 -124 191 -15 35 -6 58 24 58 19 0 39 -23
101 -116z m7231 36 c22 -24 34 -25 50 -3 14 19 45 11 45 -13 0 -9 -9 -18 -20
-21 -24 -6 -24 -8 -3 -44 15 -25 16 -31 4 -39 -11 -6 -22 3 -43 35 -16 24 -40
50 -53 59 -15 10 -22 22 -19 31 8 20 17 19 39 -5z m-121 -4 c87 -26 155 -101
171 -188 7 -34 5 -39 -26 -58 -46 -28 -150 -57 -229 -65 -70 -7 -196 9 -217
27 -16 13 -17 78 -1 132 17 58 92 131 154 150 63 19 90 19 148 2z m560 8 c10
-4 16 -18 16 -41 0 -33 -2 -35 -26 -29 -41 11 -64 -1 -64 -34 0 -27 3 -29 43
-32 41 -3 42 -4 42 -38 0 -34 -1 -35 -42 -38 l-43 -3 0 -105 0 -104 -40 0 -40
0 0 104 0 105 -27 3 c-25 3 -28 7 -28 38 0 31 3 35 28 38 24 3 27 7 27 42 0
27 8 48 26 69 21 26 33 31 69 31 24 0 50 -3 59 -6z m1263 -23 c21 -43 -12 -79
-61 -67 -33 8 -42 40 -21 72 21 33 64 30 82 -5z m123 -92 l0 -120 58 50 c50
44 64 51 100 51 23 0 42 -3 42 -7 0 -5 -30 -36 -67 -69 l-67 -62 67 -73 67
-74 -48 -3 c-45 -3 -49 -2 -93 47 -25 28 -49 51 -52 51 -4 0 -7 -22 -7 -50 l0
-50 -40 0 -40 0 0 208 c0 115 3 212 7 215 3 4 21 7 40 7 l33 0 0 -121z
m-10106 95 c9 -8 16 -22 16 -29 0 -17 -31 -35 -60 -35 -29 0 -80 -28 -80 -43
0 -7 23 -35 51 -62 111 -108 131 -159 86 -226 -32 -49 -103 -81 -193 -87 -70
-4 -74 -3 -84 19 -8 17 -8 33 -1 52 11 29 30 34 60 15 38 -23 161 25 161 64 0
10 -33 54 -74 97 -82 86 -97 121 -71 170 30 59 153 101 189 65z m286 -23 c13
-26 -4 -45 -33 -37 -30 7 -42 42 -19 55 20 11 40 4 52 -18z m-1912 -24 c2 -9
-6 -25 -17 -36 -39 -39 -21 -139 31 -175 44 -31 75 -21 139 44 32 33 65 60 74
60 28 0 43 -43 48 -148 6 -127 -6 -275 -29 -347 -34 -109 -142 -175 -284 -175
-56 0 -70 3 -87 23 -31 34 -35 45 -23 67 14 26 43 26 78 0 25 -18 33 -19 77
-10 79 17 125 48 154 105 24 45 26 62 29 199 l4 149 -30 -21 c-95 -69 -200
-44 -252 58 -41 80 -34 177 16 227 23 23 27 24 47 10 12 -8 23 -21 25 -30z
m6512 -162 l0 -195 -25 0 c-17 0 -25 6 -25 17 0 14 -2 14 -21 -3 -15 -13 -36
-19 -69 -19 -40 0 -54 5 -80 30 -52 49 -62 134 -24 207 28 53 105 73 164 43
l30 -16 0 66 c0 63 1 65 25 65 l25 0 0 -195z m1960 0 l0 -195 -25 0 c-15 0
-25 6 -25 15 0 12 -6 11 -32 -5 -84 -51 -172 1 -185 109 -11 95 32 159 112
169 37 4 52 0 76 -17 l29 -22 0 71 c0 68 1 70 25 70 l25 0 0 -195z m250 125
l0 -70 33 20 c59 36 133 21 166 -34 80 -134 -31 -294 -159 -227 -33 17 -40 18
-40 6 0 -8 -9 -15 -20 -15 -19 0 -20 7 -20 195 0 188 1 195 20 195 18 0 20 -7
20 -70z m792 64 c3 -3 -9 -31 -28 -61 -19 -31 -34 -65 -34 -76 0 -12 -6 -17
-17 -15 -19 4 -19 7 -9 51 5 19 3 27 -8 27 -7 0 -19 7 -26 15 -10 12 -10 18 0
30 11 14 15 14 36 0 22 -14 24 -13 41 10 18 24 34 31 45 19z m-2306 -19 c7
-18 -13 -45 -33 -45 -17 0 -27 24 -19 45 7 20 45 19 52 0z m-5064 -48 l-4 -49
34 8 c120 27 224 -39 289 -182 23 -50 29 -78 29 -133 0 -76 -15 -105 -54 -99
-19 3 -21 9 -21 69 -1 68 -27 145 -68 202 -51 68 -137 88 -183 42 -24 -24 -25
-29 -18 -104 6 -71 5 -80 -12 -89 -27 -14 -62 2 -69 31 -4 14 -5 87 -3 164 2
114 6 144 21 167 13 18 25 26 40 24 20 -3 22 -8 19 -51z m15982 -31 c47 -20
76 -61 76 -109 0 -56 -54 -109 -138 -134 -54 -16 -61 -21 -56 -38 13 -42 59
-88 110 -112 45 -21 65 -24 136 -21 l83 3 3 -26 c3 -24 -3 -29 -42 -44 -142
-55 -330 39 -369 183 -9 34 -21 51 -49 70 -43 28 -52 49 -39 86 14 34 47 35
63 1 6 -14 14 -25 17 -25 4 0 13 21 20 46 17 57 63 111 105 123 43 13 43 13
80 -3z m-11333 -22 c29 -26 46 -62 50 -104 l4 -35 -112 -3 c-123 -3 -130 -7
-93 -55 27 -34 76 -43 125 -23 39 17 64 9 50 -14 -10 -17 -69 -40 -102 -40
-14 0 -46 9 -69 20 -97 48 -104 203 -11 261 41 26 126 22 158 -7z m269 11 c30
-15 39 -38 20 -50 -5 -3 -20 1 -32 9 -28 20 -92 21 -108 1 -24 -29 -7 -48 60
-68 72 -20 100 -45 100 -88 0 -75 -97 -112 -184 -69 -40 19 -44 24 -36 41 10
18 11 18 48 -1 62 -34 122 -21 122 26 0 26 -15 36 -88 54 -85 22 -109 85 -51
134 36 31 102 35 149 11z m140 -130 l0 -145 -25 0 -25 0 0 138 c0 76 3 142 7
145 3 4 15 7 25 7 17 0 18 -11 18 -145z m248 125 c32 -20 32 -20 32 0 0 13 7
20 20 20 19 0 20 -7 20 -166 0 -99 -4 -173 -11 -186 -13 -25 -84 -58 -124 -58
-16 0 -49 9 -73 20 -39 18 -42 21 -32 40 11 21 12 21 38 4 15 -10 45 -17 70
-17 53 0 80 23 89 78 l6 38 -32 -24 c-38 -28 -97 -30 -136 -5 -52 34 -71 121
-45 200 23 70 110 97 178 56z m192 0 c0 -20 0 -20 33 0 46 28 102 26 132 -5
24 -23 25 -30 25 -145 l0 -120 -25 0 -25 0 0 115 c0 106 -1 115 -21 126 -26
13 -76 5 -101 -18 -15 -14 -18 -32 -18 -120 l0 -103 -25 0 -25 0 0 138 c0 76
3 142 7 145 15 15 43 7 43 -13z m471 -6 c29 -26 46 -62 50 -104 l4 -35 -112
-3 c-123 -3 -130 -7 -93 -55 27 -34 76 -43 125 -23 39 17 64 9 50 -14 -10 -17
-69 -40 -102 -40 -41 0 -106 36 -127 71 -23 39 -24 115 -2 158 26 50 71 73
133 68 34 -2 60 -11 74 -23z m907 -11 c11 -21 32 -71 47 -110 16 -40 31 -73
34 -73 3 0 26 50 50 110 39 96 48 110 68 110 13 0 23 -3 23 -7 0 -8 -128 -318
-146 -355 -15 -28 -70 -53 -97 -42 -19 7 -19 7 -11 28 3 9 16 16 29 16 12 0
27 6 33 13 27 33 22 63 -33 196 -30 73 -55 137 -55 142 0 5 9 9 20 9 13 0 26
-13 38 -37z m1442 20 c0 -15 1 -15 18 0 20 19 102 24 102 7 0 -26 -33 -58 -65
-64 -19 -4 -39 -15 -45 -26 -5 -10 -10 -57 -10 -104 l0 -86 -40 0 -40 0 0 138
c0 76 3 142 7 145 3 4 21 7 40 7 24 0 33 -4 33 -17z m326 -2 c37 -22 64 -76
64 -125 l0 -36 -100 0 c-55 0 -100 -3 -100 -7 0 -3 7 -15 17 -25 19 -21 60
-23 98 -6 23 10 29 9 51 -14 l25 -25 -28 -18 c-35 -24 -123 -31 -163 -15 -64
26 -100 100 -86 175 8 38 48 92 80 105 38 15 109 11 142 -9z m319 -12 c21 -19
39 -46 45 -71 20 -71 17 -72 -98 -78 l-103 -5 22 -23 c22 -24 58 -26 115 -7
16 5 25 0 37 -19 17 -25 16 -26 -10 -43 -19 -13 -47 -18 -95 -18 -65 0 -69 2
-104 37 -32 31 -38 45 -42 91 -8 104 46 167 145 167 44 0 58 -5 88 -31z m160
21 c4 -7 12 -7 25 0 10 5 37 10 60 10 135 0 190 -174 85 -270 -21 -20 -37 -25
-78 -25 -29 0 -60 4 -69 9 -16 7 -18 2 -18 -58 l0 -66 -40 0 -40 0 0 205 0
205 34 0 c19 0 38 -5 41 -10z m335 -135 l0 -145 -40 0 -40 0 0 138 c0 76 3
142 7 145 3 4 21 7 40 7 l33 0 0 -145z m-9764 19 c7 -44 13 -123 15 -178 4
-85 2 -100 -13 -110 -14 -8 -22 -6 -38 10 -18 18 -22 41 -31 193 -12 187 -8
206 36 177 15 -10 23 -32 31 -92z m-1000 14 c13 -12 14 -20 5 -37 -11 -19 -20
-21 -109 -21 -53 0 -114 -5 -135 -11 -31 -8 -43 -7 -63 6 -71 46 13 82 193 80
71 0 96 -4 109 -17z m9095 -76 c-75 -146 -277 -176 -398 -59 -18 17 -33 34
-33 38 0 4 46 4 103 2 119 -6 222 8 293 41 27 13 50 22 52 21 2 -2 -6 -21 -17
-43z m7177 26 c5 -7 13 -62 17 -122 l8 -108 69 75 c71 78 157 137 200 137 14
0 33 -9 44 -21 25 -28 10 -49 -50 -71 -66 -23 -108 -58 -173 -145 -57 -75 -57
-76 -63 -159 -5 -89 -18 -111 -50 -94 -36 19 -40 37 -44 187 -2 93 -8 159 -16
173 -12 23 -9 127 5 149 9 15 40 14 53 -1z m-16197 -84 c32 -39 -41 -64 -189
-64 -105 0 -121 2 -140 20 -25 23 -24 22 -16 43 5 13 23 15 112 10 59 -2 125
-1 147 4 45 11 69 7 86 -13z m14360 -215 c42 -23 67 -45 88 -78 52 -80 63
-119 62 -204 -1 -65 -7 -89 -30 -136 -31 -60 -87 -118 -143 -147 l-33 -17 30
-9 c17 -4 110 -11 209 -13 98 -3 182 -8 187 -11 5 -3 9 -14 9 -25 0 -47 -129
-61 -353 -38 -59 6 -110 10 -112 8 -5 -6 13 -97 31 -156 19 -60 10 -83 -32
-83 -31 0 -38 16 -65 143 -21 98 -25 109 -56 133 -39 30 -41 46 -9 72 23 17
24 22 15 62 -17 74 -57 303 -62 352 -2 26 0 51 6 57 13 13 44 14 51 2 3 -5 22
-93 41 -197 50 -262 40 -236 83 -218 92 38 151 116 159 211 6 67 -16 128 -66
185 -44 50 -82 64 -131 48 -45 -15 -70 -8 -70 18 0 29 41 60 85 65 22 2 42 4
44 5 2 1 30 -12 62 -29z m2335 5 c31 -47 -11 -107 -51 -74 -18 15 -20 71 -3
88 19 19 36 14 54 -14z m-13496 -111 c19 -24 21 -37 17 -81 -7 -69 -36 -124
-99 -188 l-50 -51 27 -54 c42 -83 60 -99 116 -99 37 0 51 -4 59 -19 15 -29
-16 -61 -67 -68 -73 -10 -145 55 -192 173 -15 39 -25 51 -50 58 -37 11 -39 28
-6 54 18 14 28 38 39 90 19 93 39 134 87 177 49 44 88 47 119 8z m-1441 -147
c7 -9 12 -41 11 -78 -3 -113 -6 -107 46 -110 87 -6 85 -68 -2 -68 l-43 0 -3
-97 c-3 -95 -4 -98 -27 -101 -33 -5 -41 12 -41 88 0 105 -3 110 -65 110 -46 0
-55 3 -61 22 -9 30 19 48 73 48 l43 0 0 84 c0 64 4 88 16 100 19 20 38 20 53
2z m-479 -94 c52 -52 77 -88 113 -162 150 -312 161 -812 24 -1090 -33 -68 -59
-83 -80 -48 -8 12 -1 46 31 140 48 143 63 226 66 375 5 198 -40 440 -110 593
-31 67 -95 152 -130 170 -35 19 -47 45 -34 70 19 35 49 23 120 -48z m1460 -4
c0 -14 -26 -48 -71 -92 l-72 -70 39 -35 c22 -20 50 -43 64 -53 21 -13 23 -19
14 -35 -9 -13 -23 -18 -54 -17 -38 1 -47 6 -84 48 l-41 47 -48 -21 c-52 -23
-83 -20 -92 11 -8 26 9 46 46 54 42 9 44 20 11 67 -48 71 -54 86 -42 108 20
37 47 24 87 -40 23 -36 45 -60 55 -60 10 0 47 29 83 65 56 57 68 64 85 55 11
-6 20 -20 20 -32z m12412 -9 c29 -6 61 -18 71 -27 21 -19 22 -55 2 -72 -13
-11 -22 -10 -53 7 -53 29 -136 37 -196 19 -56 -17 -76 -9 -76 30 0 13 1 24 3
24 1 0 20 7 42 15 48 17 135 19 207 4z m-12911 -28 c20 -16 22 -23 14 -47 -8
-23 -7 -32 12 -50 51 -51 64 -196 24 -277 -47 -96 -184 -138 -228 -70 -13 19
-14 29 -5 48 13 29 33 31 66 10 21 -14 26 -13 57 8 43 29 64 86 55 147 -11 71
-17 76 -68 57 -67 -26 -139 -23 -172 8 -31 29 -33 58 -6 102 42 70 196 109
251 64z m15289 -131 c6 -8 9 -26 8 -39 l-3 -23 -215 0 c-118 1 -237 -3 -265
-8 -27 -5 -111 -12 -185 -14 -186 -6 -597 -33 -699 -46 -47 -6 -114 -18 -150
-26 -92 -21 -92 -21 -104 -3 -40 62 95 103 428 129 161 12 402 27 445 27 46 0
294 13 297 16 1 1 99 2 218 2 181 0 217 -2 225 -15z m-17582 -46 c2 -15 -9
-31 -39 -55 -71 -56 -103 -153 -113 -349 -6 -104 14 -203 55 -278 34 -60 32
-92 -6 -92 -33 0 -69 55 -100 153 -33 103 -35 262 -5 409 28 136 57 188 125
227 33 18 79 10 83 -15z m-1264 -54 c2 -46 11 -81 30 -118 50 -99 94 -89 208
47 24 28 29 30 52 20 14 -7 28 -19 31 -28 2 -9 7 -133 10 -275 4 -143 10 -267
15 -277 13 -23 -20 -65 -43 -56 -43 16 -49 47 -54 275 l-6 220 -44 -34 c-36
-27 -54 -34 -91 -34 -70 0 -107 27 -145 108 -53 113 -48 227 9 220 24 -3 25
-7 28 -68z m16482 50 c83 0 84 0 84 -25 0 -40 -30 -48 -215 -52 -93 -2 -186
-5 -205 -6 -28 -1 -37 3 -50 26 -21 39 -9 44 129 52 64 3 123 8 131 9 8 2 21
2 28 0 8 -2 52 -4 98 -4z m-14647 -184 c7 -41 -69 -63 -89 -27 -18 35 -2 52
44 49 31 -2 42 -8 45 -22z m654 -102 c15 -43 32 -83 37 -87 10 -11 83 80 106
133 15 34 23 40 43 38 62 -8 44 -72 -54 -190 -30 -36 -55 -72 -55 -80 0 -7 25
-50 56 -95 48 -70 54 -84 45 -102 -23 -41 -59 -17 -128 85 -40 58 -42 60 -81
56 -29 -3 -41 0 -45 12 -9 22 1 44 24 57 25 13 24 33 -6 108 -38 92 -47 149
-26 161 28 16 54 -13 84 -96z m-911 51 c15 -34 0 -48 -53 -51 -67 -3 -69 -17
-11 -78 60 -63 69 -107 30 -144 -62 -57 -196 -83 -218 -41 -28 52 8 91 64 71
30 -11 40 -11 66 3 16 8 30 19 30 24 0 5 -25 36 -55 70 -30 34 -55 69 -55 77
0 48 71 93 148 94 36 0 44 -4 54 -25z m-813 -59 c12 -13 13 -20 5 -34 -15 -23
-32 -25 -151 -17 -99 7 -103 8 -109 32 -10 38 9 44 130 39 82 -3 113 -8 125
-20z m17353 -8 c58 -17 88 -58 88 -119 0 -27 -6 -65 -14 -84 -20 -48 -92 -122
-150 -155 l-49 -28 39 -11 c132 -34 171 -42 263 -52 79 -8 118 -8 168 1 71 14
86 7 81 -35 -5 -34 -45 -45 -171 -45 -129 0 -248 20 -397 66 -47 14 -116 31
-155 36 -38 5 -80 12 -93 14 -54 10 -83 82 -43 104 29 15 65 12 122 -10 49
-20 54 -20 108 -5 107 31 186 95 211 169 20 62 -27 104 -87 77 -67 -30 -89 39
-23 71 41 21 50 22 102 6z m-16377 -22 c17 -12 19 -26 16 -152 -1 -76 -5 -142
-7 -146 -3 -5 -16 -8 -29 -8 -30 0 -32 7 -40 172 -5 115 -4 127 12 137 24 14
26 13 48 -3z m353 -19 c40 -37 70 -99 92 -187 24 -100 24 -111 7 -134 -19 -27
-54 -12 -65 27 -6 18 -13 52 -16 77 -8 56 -51 147 -76 160 -48 26 -81 -97 -43
-160 14 -24 14 -31 3 -45 -35 -42 -91 14 -98 99 -6 74 32 160 80 181 41 18 85
12 116 -18z m-1373 -81 l130 -1 -3 -30 c-2 -16 -6 -32 -9 -35 -12 -12 -279 -5
-310 9 -58 24 -35 78 27 65 19 -4 94 -8 165 -8z m10567 -507 c293 -110 623
-214 632 -200 4 6 -8 99 -29 229 -6 32 -6 32 34 32 34 0 41 -4 45 -22 2 -13
10 -57 17 -98 8 -42 12 -106 9 -145 l-5 -70 -36 -9 c-30 -7 -62 -1 -185 34
-143 40 -362 115 -544 184 -142 55 -132 56 -169 -23 -47 -103 -161 -448 -161
-489 0 -38 -23 -72 -48 -72 -19 0 -52 29 -52 44 0 27 115 377 160 489 27 66
48 123 45 125 -2 2 -36 14 -77 27 l-73 23 137 1 136 1 164 -61z m1212 11 l-7
-50 37 0 c79 0 126 -50 126 -135 0 -39 -5 -51 -37 -86 -34 -35 -49 -42 -133
-63 -124 -30 -203 -25 -233 16 -17 23 -18 29 -6 44 11 13 24 15 66 10 l53 -6
0 34 c0 18 6 52 14 74 8 23 22 80 32 127 l17 85 39 0 39 0 -7 -50z m4340 -502
c73 -74 109 -250 109 -533 0 -162 -3 -211 -26 -335 -26 -146 -61 -274 -79
-297 -16 -19 -56 -16 -62 5 -4 10 7 70 24 133 74 282 87 612 34 852 -19 87
-35 113 -79 134 -24 11 -35 24 -35 38 0 29 8 35 48 35 25 0 42 -8 66 -32z
m-564 -63 c10 -12 10 -21 2 -41 -10 -20 -17 -23 -37 -18 -78 20 -245 -136
-333 -311 -67 -135 -130 -361 -136 -492 -2 -55 1 -71 21 -100 31 -45 27 -77
-9 -81 -34 -4 -60 21 -83 83 -17 43 -17 57 -7 144 26 202 95 408 188 558 59
96 174 211 245 247 60 30 129 35 149 11z m-5770 -90 c24 -23 30 -37 30 -72 0
-44 -16 -90 -45 -130 -16 -21 -15 -22 17 -38 65 -33 88 -64 88 -117 0 -43 -4
-52 -41 -89 -98 -98 -276 -129 -287 -50 -5 31 12 41 72 41 58 0 120 27 161 70
36 38 27 50 -65 85 -38 14 -74 32 -80 40 -17 20 -3 52 29 71 28 17 81 88 81
109 0 7 -9 20 -20 30 -18 16 -25 17 -54 7 -46 -17 -64 -15 -71 9 -5 14 0 28
17 46 20 22 29 24 81 21 46 -3 63 -10 87 -33z m6234 -67 c9 -12 16 -26 16 -30
0 -4 -26 -25 -59 -47 -79 -54 -131 -116 -185 -221 -25 -48 -46 -91 -46 -93 0
-3 10 -7 21 -9 12 -2 27 -11 33 -20 16 -26 -3 -50 -53 -68 -46 -16 -53 -30
-72 -155 -14 -87 -20 -99 -52 -103 -42 -5 -50 24 -32 110 9 40 18 87 21 103
l6 30 -84 12 c-56 7 -87 8 -95 1 -7 -6 -36 -41 -64 -79 -50 -68 -123 -129
-153 -129 -19 0 -35 28 -29 51 3 11 23 29 44 41 22 12 39 25 39 29 0 5 13 23
29 41 54 63 56 75 21 108 -26 25 -29 32 -20 50 13 24 38 26 66 5 33 -25 48
-17 113 55 94 106 185 174 348 261 82 43 153 79 160 79 6 0 19 -10 27 -22z
m-5220 -139 c11 -16 12 -28 4 -50 -24 -69 19 -269 57 -269 7 0 33 18 58 40 76
67 102 50 94 -62 -4 -62 -51 -411 -75 -558 -8 -48 -30 -63 -59 -39 -12 11 -14
28 -10 89 5 69 50 397 62 447 5 20 2 21 -53 16 -57 -5 -59 -5 -90 31 -45 51
-67 132 -65 240 3 119 37 171 77 115z m3431 11 c8 -13 8 -627 0 -640 -12 -20
-45 -10 -60 20 -12 23 -15 69 -16 217 0 109 -4 179 -9 168 -4 -12 -16 -27 -25
-35 -10 -8 -39 -47 -66 -86 -107 -158 -213 -203 -269 -112 -43 71 -16 164 69
240 62 56 107 72 172 65 59 -7 68 0 111 91 17 37 36 70 42 74 16 11 44 10 51
-2z m326 -125 c6 -70 15 -92 39 -105 22 -12 59 15 90 65 15 24 29 35 45 35 47
0 47 -11 9 -296 -19 -148 -39 -316 -43 -374 -5 -58 -11 -112 -15 -120 -5 -13
18 -15 176 -17 186 -1 376 -10 400 -18 7 -2 72 -9 143 -14 72 -6 164 -14 205
-17 41 -3 114 -7 161 -8 94 -3 109 -8 109 -37 0 -46 -57 -47 -605 -3 -251 20
-788 25 -806 7 -8 -8 -15 -81 -21 -220 -15 -363 -21 -425 -40 -437 -13 -8 -22
-6 -38 9 -20 18 -21 24 -14 177 4 87 4 158 1 158 -3 0 -13 -15 -22 -32 -24
-52 -146 -208 -188 -242 -32 -26 -47 -31 -94 -31 -49 0 -58 3 -77 28 -31 42
-28 119 6 178 59 100 204 195 279 183 32 -5 39 -3 54 20 26 39 65 152 65 186
0 27 -3 30 -32 30 -73 0 -450 -31 -546 -45 -135 -20 -188 -20 -196 1 -19 50
49 73 274 90 326 26 497 35 665 36 72 0 120 2 107 5 -46 9 -47 32 -8 330 43
332 42 317 17 303 -83 -44 -174 40 -174 161 0 67 7 81 41 77 25 -3 27 -7 33
-63z m-10398 24 c102 -52 104 -136 5 -236 l-50 -51 44 -19 c48 -22 94 -70 104
-109 11 -44 -3 -105 -31 -134 -15 -15 -50 -35 -78 -44 -66 -20 -198 -31 -271
-22 -49 7 -57 11 -62 32 -4 14 -2 30 4 36 6 6 51 10 104 9 149 -1 246 23 262
65 8 21 -18 67 -46 82 -13 7 -55 21 -93 31 -59 14 -71 21 -73 40 -4 28 13 48
92 106 95 69 115 118 60 144 -36 16 -55 14 -80 -10 -46 -43 -109 7 -67 53 10
11 27 24 38 29 30 12 113 11 138 -2z m4861 -32 c114 -64 129 -298 29 -424 -66
-83 -71 -76 58 -69 62 3 133 8 156 12 36 5 42 3 48 -16 10 -31 -8 -46 -81 -66
-53 -14 -89 -16 -211 -11 -94 4 -164 2 -195 -5 -43 -10 -51 -9 -76 9 -34 25
-39 49 -16 74 13 15 31 19 79 19 53 0 68 4 103 30 59 42 97 99 117 174 15 54
16 72 6 111 -15 61 -35 90 -72 105 -27 11 -32 10 -54 -10 -38 -35 -83 -2 -64
48 17 46 109 56 173 19z m-2710 -48 c13 -19 12 -26 -15 -78 -16 -31 -38 -77
-48 -104 -11 -26 -27 -50 -36 -53 -19 -8 -45 13 -45 34 0 24 61 185 78 205 20
23 48 22 66 -4z m10755 -43 c15 -18 -1 -98 -39 -187 -33 -79 -38 -125 -15
-169 33 -65 92 -67 149 -7 47 48 66 101 73 197 2 36 6 75 9 87 6 29 38 47 61
34 16 -8 17 -41 16 -388 l-2 -378 -25 -3 c-45 -6 -57 37 -57 206 -1 192 0 188
-51 154 -33 -21 -53 -27 -99 -27 -49 0 -63 4 -94 30 -42 34 -74 101 -74 159
-1 24 14 74 38 131 22 51 43 105 46 121 4 16 8 35 11 42 5 16 39 15 53 -2z
m-9832 -118 c11 -13 45 -62 76 -110 35 -55 71 -97 96 -113 37 -25 41 -26 69
-11 34 18 62 77 62 134 0 40 23 82 44 82 36 0 40 -27 38 -248 -1 -120 2 -289
7 -377 8 -167 6 -180 -34 -187 -37 -6 -48 42 -50 217 -1 88 -3 192 -4 232 l-1
72 -71 -6 -70 -6 -68 69 c-63 65 -161 209 -161 237 0 16 20 37 35 37 6 0 21
-10 32 -22z m3187 -10 c9 -14 6 -23 -14 -42 -22 -22 -57 -30 -325 -76 -165
-28 -356 -63 -425 -77 -151 -32 -179 -34 -194 -10 -9 15 -6 22 15 41 30 26
179 58 599 126 135 22 259 44 275 49 39 12 56 10 69 -11z m-2096 -94 c2 -11
-3 -25 -10 -31 -19 -16 -335 -86 -353 -79 -11 4 -15 15 -13 33 3 27 8 29 143
65 160 41 228 45 233 12z m-3182 -19 c11 -27 -4 -60 -91 -194 -47 -73 -85
-139 -85 -146 0 -14 49 -53 125 -98 36 -21 46 -32 43 -50 -7 -48 -97 -24 -177
48 -44 40 -42 41 -106 -60 -66 -106 -106 -136 -134 -101 -15 18 0 49 74 156
29 41 55 80 58 86 6 11 -134 185 -154 192 -14 6 -10 48 5 61 22 18 42 3 121
-87 39 -45 74 -81 78 -81 4 -1 51 64 103 144 69 106 100 145 115 145 11 0 22
-7 25 -15z m4869 -158 c46 -26 80 -80 95 -154 13 -58 21 -64 94 -61 32 1 51
-3 57 -13 24 -38 1 -57 -71 -61 l-55 -3 -5 -115 c-5 -109 -6 -115 -27 -118
-40 -6 -55 35 -48 125 9 106 1 116 -80 103 -94 -15 -145 -5 -145 29 0 35 27
45 121 43 87 -2 89 -2 89 21 0 13 -7 45 -16 71 -20 59 -59 86 -125 86 -50 0
-73 16 -67 47 2 13 16 20 48 24 57 8 85 3 135 -24z m-1611 -3 c11 -29 6 -53
-11 -58 -43 -12 -146 -24 -235 -25 -92 -2 -96 -2 -103 20 -11 32 14 47 93 54
37 3 101 9 142 14 41 4 82 9 91 10 9 0 20 -6 23 -15z m-1589 -54 c0 -18 -10
-30 -40 -47 -56 -31 -430 -152 -491 -159 -55 -7 -66 0 -58 33 6 23 53 43 209
88 50 15 144 46 210 70 138 50 170 52 170 15z m-911 -112 c16 -25 -21 -58 -75
-69 -50 -9 -233 -10 -329 0 -52 5 -65 10 -68 25 -7 37 13 41 196 42 104 1 187
6 202 12 33 15 61 11 74 -10z m-1356 -10 c19 -19 14 -48 -10 -57 -13 -5 -50
-12 -83 -15 -92 -12 -320 -60 -535 -115 -207 -53 -224 -54 -218 -2 3 23 12 28
98 53 140 41 343 86 530 118 192 33 202 34 218 18z m11933 -78 c23 -13 25 -55
3 -64 -9 -3 -98 -6 -199 -6 -170 0 -185 1 -194 19 -7 13 -7 23 2 34 10 14 39
17 177 20 91 1 171 4 178 5 7 1 22 -3 33 -8z m-9890 -45 c44 -7 68 -31 76 -78
7 -48 -33 -135 -81 -172 -20 -15 -36 -30 -36 -34 0 -10 168 -64 219 -70 58 -8
76 -34 42 -62 -35 -28 -80 -24 -209 22 -65 23 -142 49 -173 58 -64 18 -89 36
-89 62 0 22 29 39 68 39 72 0 146 44 173 104 25 56 12 69 -56 61 -40 -5 -54
-3 -64 9 -29 34 16 81 69 72 14 -3 41 -7 61 -11z m9589 -106 c25 -6 108 -12
185 -12 134 -2 140 -3 143 -23 7 -49 -116 -67 -295 -44 -128 18 -171 38 -157
74 7 19 56 21 124 5z m-12106 -69 c0 -30 -7 -88 -14 -128 -16 -81 -11 -97 33
-122 19 -11 33 -12 53 -5 43 15 65 65 75 163 9 88 18 104 54 100 15 -2 22 -14
28 -53 5 -27 20 -108 33 -180 63 -339 64 -349 22 -343 -32 4 -53 55 -73 173
-9 55 -20 104 -24 108 -5 5 -24 -3 -44 -16 -74 -50 -156 -42 -210 22 -23 28
-27 42 -27 96 0 58 29 209 45 235 4 6 17 10 28 8 20 -3 22 -9 21 -58z m10656
18 c6 -7 33 -58 60 -113 27 -55 53 -107 59 -115 9 -12 26 1 99 73 70 70 94 88
113 85 17 -2 25 -10 27 -29 3 -22 -13 -42 -87 -115 -50 -49 -91 -94 -91 -101
0 -6 25 -39 55 -71 59 -64 66 -85 35 -102 -26 -14 -63 11 -116 75 -20 25 -40
45 -45 45 -5 0 -32 -16 -60 -35 -55 -38 -103 -46 -113 -19 -12 31 4 51 64 83
33 18 60 37 60 42 0 6 -27 65 -60 131 -33 66 -60 127 -60 137 0 35 39 53 60
29z m2775 -157 c0 -33 -19 -37 -238 -51 -292 -18 -426 -18 -437 0 -14 21 -8
33 26 50 21 11 68 15 179 16 131 1 336 11 341 17 1 1 31 0 66 -3 59 -5 63 -7
63 -29z m-11377 -133 c7 -7 12 -20 12 -30 0 -14 8 -18 43 -19 23 0 58 -5 77
-12 27 -9 35 -17 35 -37 0 -23 -4 -25 -56 -28 -30 -2 -81 1 -112 6 -35 6 -57
5 -57 0 0 -6 16 -28 35 -51 56 -65 59 -136 7 -189 -21 -24 -34 -28 -77 -28
-74 0 -120 47 -79 81 12 10 22 10 50 0 27 -10 38 -10 49 -1 26 22 16 51 -43
134 -32 44 -61 87 -66 94 -10 16 10 42 33 42 9 0 39 12 66 25 57 28 66 30 83
13z m11256 -74 c18 -18 19 -24 7 -44 -7 -10 -40 -16 -123 -21 -109 -6 -188
-25 -235 -55 -13 -8 -23 -18 -23 -23 0 -5 44 -19 98 -32 86 -19 102 -26 136
-60 34 -34 38 -43 32 -72 -8 -41 -55 -84 -102 -93 -75 -14 -191 46 -182 95 5
24 54 25 92 2 37 -23 76 -27 94 -9 25 25 10 36 -75 57 -122 31 -170 55 -178
91 -8 35 17 86 45 95 14 4 21 14 19 28 -3 47 -7 46 174 50 94 1 180 4 189 5 9
1 24 -5 32 -14z m-11901 -118 c68 -52 72 -139 10 -234 -19 -30 -33 -55 -31
-56 2 -1 24 -14 49 -29 92 -53 136 -132 109 -197 -24 -59 -110 -111 -184 -112
-33 0 -45 5 -69 32 -34 38 -33 73 1 78 13 2 34 -3 46 -12 29 -19 86 -6 116 26
24 26 25 32 3 65 -16 23 -122 83 -149 83 -6 0 -19 9 -29 20 -17 19 -17 21 9
57 90 126 96 137 96 168 0 45 -42 79 -85 70 -93 -19 -95 -19 -95 8 0 16 10 34
28 47 39 32 124 25 175 -14z m2439 -353 c97 -119 129 -153 139 -147 5 3 43 48
84 100 42 52 81 94 89 94 22 0 39 -28 32 -52 -3 -13 -38 -63 -77 -111 -39 -48
-69 -94 -66 -101 6 -16 122 -117 184 -161 59 -42 57 -85 -4 -85 -19 0 -106 65
-186 138 l-58 53 -77 -72 c-42 -39 -96 -81 -120 -93 -43 -20 -44 -20 -57 -2
-19 25 -8 43 52 91 78 62 133 118 133 135 0 9 -40 64 -90 123 -89 107 -101
132 -78 155 22 22 37 12 100 -65z m-3977 -223 c4 -6 8 -43 11 -82 8 -149 35
-331 61 -415 13 -43 14 -55 3 -67 -22 -28 -48 -19 -70 24 -35 68 -86 483 -67
534 7 18 52 22 62 6z m-644 -85 c57 -37 82 -99 77 -190 -3 -68 -7 -79 -47
-136 -52 -76 -50 -80 77 -102 126 -23 151 -25 194 -14 42 11 68 -2 68 -34 0
-61 -144 -67 -350 -15 -74 19 -137 33 -141 31 -3 -2 -36 -5 -72 -7 -58 -2 -69
0 -92 22 -31 29 -29 56 6 82 23 17 32 18 92 8 66 -10 69 -10 103 16 69 53 106
151 84 219 -18 54 -59 75 -145 75 -88 0 -135 -13 -165 -45 -31 -33 -58 -32
-66 2 -13 49 31 86 126 108 92 20 204 12 251 -20z m9299 -25 c6 -11 14 -55 18
-98 l7 -77 75 -3 c75 -3 100 -13 100 -39 0 -22 -67 -45 -110 -38 -21 4 -41 2
-44 -3 -3 -5 4 -73 15 -151 17 -113 19 -144 9 -156 -17 -20 -33 -19 -54 3 -11
13 -22 61 -34 153 l-17 134 -50 -1 c-27 -1 -72 -3 -100 -5 -45 -4 -50 -2 -53
18 -5 31 34 53 117 65 l71 10 -7 88 c-3 49 -3 95 0 104 9 23 44 20 57 -4z
m-7550 -25 c16 -20 6 -43 -24 -55 -13 -5 -78 -10 -143 -11 -65 -1 -176 -8
-246 -16 -100 -11 -131 -12 -143 -2 -17 14 -18 45 -2 56 29 17 233 37 429 41
93 2 119 -1 129 -13z m2228 3 c28 -28 2 -88 -33 -74 -21 8 -29 31 -21 61 7 27
34 33 54 13z m6114 -5 c8 -10 29 -45 47 -78 36 -64 87 -125 107 -125 7 0 49
41 95 90 45 50 87 90 94 90 7 0 18 -7 25 -15 20 -24 -3 -64 -85 -145 -41 -41
-75 -82 -75 -91 0 -21 73 -88 145 -134 30 -20 55 -41 55 -48 0 -23 -23 -37
-58 -37 -30 0 -46 12 -116 80 -45 44 -86 80 -90 80 -5 0 -36 -22 -71 -50 -95
-75 -155 -89 -155 -35 0 18 18 36 77 77 43 29 79 60 81 69 2 9 -24 54 -58 100
-33 46 -65 101 -72 123 -11 34 -10 40 7 52 24 18 29 18 47 -3z m-1362 -31 c14
-9 49 -38 78 -66 91 -87 191 -312 246 -560 20 -87 22 -114 15 -201 -10 -135
-35 -195 -81 -195 -35 0 -42 41 -18 99 21 47 22 63 17 159 -7 132 -33 238 -98
404 -83 211 -157 302 -246 303 -57 0 -77 23 -49 54 30 33 84 34 136 3z m-5260
-66 c18 -8 24 -19 22 -36 -1 -13 -5 -26 -7 -29 -3 -3 -39 1 -81 8 -105 18
-394 24 -554 11 -261 -20 -584 -69 -692 -106 -94 -32 -118 -32 -118 0 0 33 39
62 118 86 93 29 291 63 325 56 16 -3 36 -2 45 3 62 33 641 56 817 33 55 -8
111 -19 125 -26z m6396 -66 c23 -10 45 -23 49 -29 13 -23 32 -187 29 -258 -1
-41 -10 -85 -19 -104 -53 -101 -210 -155 -271 -94 -19 19 -23 31 -18 48 15 51
44 61 73 26 36 -45 129 10 151 90 11 42 4 181 -9 181 -4 0 -25 -18 -46 -41
-78 -80 -150 -99 -204 -53 -28 23 -31 31 -31 85 0 52 4 63 32 95 18 21 55 48
83 61 57 27 109 25 181 -7z m-2742 -6 c26 -10 18 -48 -15 -80 -60 -57 -113
-197 -133 -354 -37 -293 7 -619 96 -717 24 -26 18 -49 -16 -65 -20 -8 -29 -8
-42 3 -36 29 -88 182 -118 345 -28 150 0 534 48 670 32 92 82 160 141 192 24
14 20 13 39 6z m-5601 -61 l187 -6 0 -27 c0 -16 -7 -30 -16 -34 -26 -10 -347
-7 -386 4 -41 12 -57 42 -37 66 9 10 21 14 38 9 14 -3 110 -9 214 -12z m-3878
-223 c28 -20 67 -47 88 -59 48 -29 62 -54 41 -75 -8 -9 -19 -16 -23 -16 -8 0
-146 93 -172 116 -8 8 -25 14 -36 14 -30 0 -36 27 -12 51 25 25 47 19 114 -31z
m5508 9 c31 -17 37 -28 37 -75 l0 -42 40 9 c44 10 80 -1 80 -25 0 -27 -42 -48
-152 -75 -63 -16 -136 -38 -161 -49 -43 -19 -47 -24 -47 -57 0 -105 -110 -172
-184 -114 -64 50 -51 117 34 171 l51 33 2 77 c2 87 15 108 82 139 46 22 183
26 218 8z m-873 -59 c0 -49 43 -257 66 -316 19 -51 13 -77 -17 -72 -35 5 -60
50 -85 154 -22 95 -33 252 -17 267 3 4 17 7 30 7 20 0 23 -5 23 -40z m6257
-105 c43 -63 81 -115 85 -115 4 0 39 38 78 85 71 85 86 95 108 73 23 -23 12
-48 -50 -121 -35 -39 -69 -79 -76 -88 -10 -14 -5 -24 34 -68 26 -29 62 -58 80
-66 19 -8 37 -21 41 -30 9 -24 -21 -48 -59 -48 -27 0 -42 11 -94 66 -64 69
-82 78 -105 51 -30 -36 -121 -69 -150 -53 -37 19 -22 44 48 80 85 44 96 59 62
96 -27 30 -121 176 -132 206 -10 26 3 47 29 47 19 0 39 -23 101 -115z m-1056
25 c23 -13 25 -55 3 -64 -9 -3 -28 -6 -42 -6 -15 0 -40 -11 -57 -24 l-30 -24
81 -84 c87 -91 101 -122 79 -174 -29 -70 -116 -114 -225 -114 -44 0 -59 4 -64
16 -11 28 -6 61 10 75 13 10 20 10 42 -3 25 -14 32 -14 80 2 51 17 92 44 92
62 0 4 -31 41 -69 80 -79 84 -91 104 -91 150 0 43 40 84 101 103 55 17 66 18
90 5z m289 -25 c16 -19 6 -45 -18 -45 -25 0 -46 25 -38 45 7 19 40 19 56 0z
m-1922 -7 c17 -17 15 -35 -9 -68 -44 -59 7 -180 76 -180 39 0 65 16 116 73 33
37 50 49 63 44 34 -13 43 -64 41 -242 -2 -237 -27 -315 -122 -375 -61 -39
-102 -50 -187 -50 -58 0 -74 4 -93 22 -25 23 -30 57 -11 76 17 17 36 15 66 -9
21 -16 34 -19 66 -13 100 17 166 68 187 147 13 49 21 297 10 297 -5 0 -30 -12
-55 -26 -38 -21 -56 -25 -92 -21 -89 10 -155 96 -155 201 0 95 57 166 99 124z
m2155 -65 c-2 -52 -2 -52 23 -43 41 16 112 11 152 -9 53 -27 117 -100 148
-168 22 -47 26 -72 25 -132 -2 -81 -11 -101 -47 -101 -23 0 -24 3 -24 64 0 72
-35 165 -84 223 -30 36 -91 59 -129 49 -49 -12 -57 -30 -57 -126 0 -94 -10
-112 -50 -90 -30 16 -37 39 -39 125 -2 130 9 212 31 240 33 42 53 29 51 -32z
m-325 -66 c14 -16 29 -121 37 -253 5 -83 3 -103 -10 -114 -20 -17 -43 -6 -55
25 -11 30 -32 333 -24 346 8 13 40 11 52 -4z m-1016 -53 c39 -7 52 -24 43 -55
-6 -17 -18 -19 -101 -19 -52 0 -115 -5 -139 -11 -31 -8 -49 -8 -64 0 -24 13
-28 43 -8 60 28 23 190 38 269 25z m110 -152 c10 -10 8 -17 -10 -35 -21 -20
-33 -22 -158 -25 -118 -3 -138 -1 -155 14 -17 16 -25 45 -15 55 2 2 77 4 165
4 115 0 164 -4 173 -13z m3195 -314 c53 -49 17 -185 -73 -274 -45 -46 -46 -48
-35 -84 6 -20 24 -55 41 -78 27 -38 33 -41 81 -44 37 -2 55 -8 63 -21 17 -28
-33 -67 -85 -67 -56 0 -127 67 -166 156 -22 53 -35 68 -61 80 -28 12 -32 16
-23 33 6 11 19 22 30 26 14 4 20 19 24 58 11 86 37 147 83 194 50 49 84 55
121 21z m2000 -46 c-2 -15 -8 -36 -12 -46 -7 -16 -5 -18 9 -13 30 12 169 18
200 9 36 -10 56 -36 39 -53 -7 -7 -36 -13 -65 -15 -94 -5 -210 -22 -219 -31
-28 -28 -53 -315 -31 -350 4 -6 20 -13 36 -15 71 -8 49 -78 -25 -78 -37 0 -60
14 -78 49 -25 46 -22 249 5 355 5 21 2 27 -19 35 -14 5 -28 15 -32 21 -9 15
23 50 46 50 19 0 59 45 59 67 0 8 11 25 25 39 21 21 28 23 46 13 16 -8 20 -18
16 -37z m-1203 -54 c8 -13 6 -26 -7 -54 -36 -75 -34 -194 3 -194 10 0 38 16
62 35 69 55 84 61 108 40 27 -24 27 -110 0 -241 -45 -219 -97 -360 -136 -370
-36 -9 -57 -1 -74 29 -15 26 -14 28 26 64 37 35 43 48 72 158 39 149 57 234
49 241 -3 3 -19 -2 -36 -10 -16 -9 -50 -16 -74 -16 -35 0 -49 6 -71 29 -36 38
-43 93 -22 190 22 103 68 149 100 99z m-2230 -54 c3 -9 6 -54 6 -100 l0 -84
44 0 c84 0 89 -60 5 -70 l-44 -5 -5 -95 c-4 -81 -8 -95 -23 -98 -36 -7 -47 16
-47 97 0 42 -4 81 -8 88 -4 6 -30 13 -57 15 -40 2 -51 7 -53 22 -6 27 24 46
70 46 21 0 38 1 39 3 0 1 3 40 6 87 3 47 10 91 15 98 15 17 45 15 52 -4z
m1691 -39 c9 -27 13 -30 49 -27 48 4 77 -20 116 -98 57 -114 75 -241 38 -264
-28 -17 -45 10 -69 104 -21 82 -59 173 -78 184 -12 8 -38 -34 -70 -112 -30
-73 -51 -93 -75 -73 -20 17 -20 61 -1 171 22 126 33 152 58 148 14 -2 26 -14
32 -33z m2603 2 c11 -12 37 -57 57 -101 l35 -78 38 27 c20 15 63 55 94 88 49
53 60 60 75 51 10 -6 19 -19 21 -28 5 -24 -43 -84 -118 -148 -45 -38 -64 -61
-62 -74 2 -10 19 -45 38 -77 37 -60 40 -83 12 -101 -23 -14 -61 22 -97 91
l-26 53 -54 -25 c-62 -29 -84 -31 -102 -9 -19 23 -3 42 64 79 l57 32 -50 103
c-51 104 -57 140 -21 140 10 0 27 -10 39 -23z m-4811 -20 c144 -109 249 -380
268 -692 14 -217 -24 -456 -93 -594 -33 -66 -55 -83 -78 -59 -16 15 -14 26 29
155 67 202 83 395 51 611 -16 110 -71 308 -104 371 -29 58 -97 139 -130 156
-45 23 -41 81 5 84 6 0 29 -14 52 -32z m1238 -46 c11 -18 32 -47 46 -63 l26
-31 70 67 c73 69 96 78 112 48 13 -25 -19 -72 -89 -131 l-53 -45 39 -35 c22
-20 50 -43 64 -53 21 -13 23 -19 14 -35 -13 -21 -36 -27 -69 -19 -25 6 -36 16
-77 65 l-27 31 -55 -21 c-46 -18 -58 -19 -71 -9 -32 27 -13 58 47 80 l28 9
-40 62 c-40 63 -50 103 -27 112 24 11 42 1 62 -32z m3185 18 c46 -29 58 -46
66 -98 5 -32 2 -60 -11 -97 -15 -44 -16 -60 -6 -98 42 -166 -38 -306 -175
-306 -58 0 -84 20 -84 65 0 43 25 53 62 25 l29 -21 35 21 c42 27 64 66 64 117
0 67 -9 85 -39 80 -33 -7 -86 15 -100 41 -15 29 -16 131 0 181 14 48 58 97 92
104 12 2 24 5 27 6 3 0 21 -9 40 -20z m-3416 -58 c16 -17 18 -25 10 -39 -9
-14 -23 -16 -72 -14 -49 3 -69 0 -101 -19 -74 -41 -40 -54 51 -19 65 25 110
25 130 3 22 -24 48 -117 48 -168 0 -62 -27 -130 -66 -164 -74 -65 -194 -63
-194 4 0 55 21 68 65 39 21 -14 26 -14 53 0 36 18 62 71 62 124 0 40 -17 102
-28 102 -4 0 -29 -8 -57 -18 -70 -26 -127 -19 -161 21 -29 35 -26 67 9 105 63
68 202 91 251 43z m2494 -54 c16 -13 15 -42 -2 -57 -20 -16 -308 -25 -336 -10
-22 12 -27 44 -7 57 26 17 325 26 345 10z m-4798 -102 c17 -21 6 -42 -35 -66
-68 -41 -103 -144 -112 -330 -7 -144 3 -204 49 -291 36 -68 34 -93 -7 -93 -24
0 -34 7 -52 40 -44 77 -62 154 -66 274 -5 141 19 297 58 376 39 80 131 131
165 90z m-1260 -70 c4 -43 15 -89 29 -118 43 -88 84 -86 169 10 45 51 61 63
81 61 14 -2 30 -13 36 -24 6 -13 12 -120 13 -265 2 -134 8 -258 13 -276 19
-59 -26 -97 -64 -55 -21 23 -28 117 -27 325 1 86 -1 157 -3 157 -3 0 -24 -16
-47 -35 -36 -30 -49 -35 -92 -35 -73 0 -111 27 -149 106 -55 115 -47 231 14
222 20 -3 23 -11 27 -73z m6145 -15 c17 -53 -63 -75 -277 -75 -137 0 -160 2
-175 18 -14 14 -15 21 -7 35 10 15 26 17 120 14 61 -1 144 4 189 12 118 21
142 20 150 -4z m-11875 -1 c118 -18 140 -27 140 -54 0 -13 -4 -26 -8 -29 -5
-3 -62 3 -127 12 -121 17 -146 30 -132 66 7 19 36 20 127 5z m-482 -33 c20
-20 3 -45 -35 -52 -20 -4 -83 -3 -141 2 -80 7 -107 13 -115 26 -8 12 -7 21 1
31 10 12 36 14 145 10 83 -3 137 -10 145 -17z m-643 -26 c20 -7 26 -16 23 -33
-3 -20 -10 -23 -93 -29 -139 -11 -166 -11 -177 0 -30 30 30 67 99 59 22 -2 47
-1 55 4 18 12 61 11 93 -1z m-527 -52 c2 -9 -8 -24 -22 -33 -22 -15 -42 -16
-135 -10 -112 7 -128 14 -115 50 5 13 27 15 138 13 113 -3 131 -5 134 -20z
m9212 -2 c0 -45 -59 -63 -83 -25 -18 29 -1 49 43 49 35 0 40 -3 40 -24z m624
-28 c9 -12 25 -52 37 -88 12 -36 25 -69 29 -73 10 -12 75 64 105 123 20 40 30
50 50 50 18 0 26 -7 31 -27 9 -34 -23 -93 -93 -172 -29 -33 -53 -64 -53 -70 0
-6 25 -49 56 -96 56 -84 62 -109 29 -122 -21 -7 -67 36 -111 104 -30 48 -36
52 -76 55 -53 4 -63 29 -24 64 l25 24 -34 95 c-34 94 -42 135 -28 148 13 14
42 6 57 -15z m-886 -10 c33 -33 1 -68 -62 -68 -19 0 -38 -5 -42 -11 -3 -6 14
-32 39 -57 59 -60 72 -93 52 -132 -19 -36 -104 -78 -169 -82 -47 -3 -50 -2
-62 29 -12 28 -11 34 5 55 18 21 22 22 55 10 31 -11 40 -11 71 4 l35 16 -19
27 c-11 14 -31 37 -46 51 -58 54 -63 92 -18 131 39 35 137 51 161 27z m-820
-64 c26 -17 29 -49 6 -58 -9 -3 -59 -6 -113 -6 -71 0 -102 4 -119 16 -25 17
-28 34 -10 52 18 18 207 15 236 -4z m1005 -52 c3 -4 2 -70 -1 -147 -7 -134 -8
-140 -29 -143 -34 -5 -42 23 -45 162 -2 115 -1 129 16 142 18 13 47 6 59 -14z
m340 -11 c39 -36 73 -105 92 -190 19 -82 17 -120 -8 -135 -26 -16 -53 20 -62
81 -14 94 -65 203 -96 203 -17 0 -49 -64 -49 -98 0 -18 7 -46 16 -63 16 -33
11 -69 -11 -69 -29 0 -47 14 -65 51 -24 46 -25 83 -4 146 36 107 117 139 187
74z m-1373 -75 l125 -1 3 -31 c3 -28 0 -32 -29 -38 -53 -10 -242 -6 -278 7
-74 26 -63 85 13 71 23 -4 97 -8 166 -8z m-6258 -111 c22 -108 23 -194 2 -202
-32 -12 -47 23 -64 152 -9 69 -14 128 -11 131 3 2 17 4 31 2 23 -3 26 -10 42
-83z m-75 -517 c4 -7 10 -35 14 -63 4 -27 10 -74 14 -102 8 -52 7 -53 -17 -53
-14 0 -31 7 -38 15 -13 16 -34 179 -26 201 7 17 42 18 53 2z m16 -477 c8 -111
2 -135 -31 -115 -29 19 -44 82 -37 157 7 66 8 68 34 65 26 -3 26 -4 34 -107z"/>
<path d="M1690 17670 c19 -11 73 -39 119 -61 76 -38 349 -188 894 -493 115
-64 212 -116 216 -116 9 0 27 125 37 255 5 66 -11 383 -20 393 -5 4 -191 11
-466 17 -501 11 -616 14 -715 20 l-100 6 35 -21z m1168 -122 c7 -7 12 -22 12
-34 0 -33 -97 -117 -167 -144 -32 -13 -60 -25 -62 -26 -2 -2 34 -39 80 -83 72
-68 82 -82 73 -98 -6 -10 -18 -19 -27 -21 -9 -2 -62 37 -119 86 -79 68 -112
91 -143 96 -76 14 -111 55 -93 107 17 49 95 65 142 28 14 -11 26 -27 26 -35 0
-22 22 -17 108 26 50 25 89 53 106 75 29 37 44 43 64 23z"/>
<path d="M3015 17623 c3 -15 9 -48 13 -73 13 -70 5 -332 -13 -469 -9 -68 -12
-127 -8 -132 12 -11 241 -135 858 -466 703 -378 948 -512 1550 -853 557 -316
770 -435 970 -542 194 -104 393 -208 399 -208 3 0 -26 49 -64 110 -126 200
-265 439 -533 920 -145 261 -299 534 -341 605 -42 72 -173 324 -291 560 -118
237 -228 452 -245 478 -18 29 -43 53 -63 62 -35 14 -322 20 -1589 31 l-648 6
5 -29z"/>
<path d="M9595 17508 c-32 -17 -45 -39 -45 -75 0 -40 15 -42 92 -13 42 16 58
28 76 60 l23 40 -63 0 c-35 0 -72 -6 -83 -12z"/>
<path d="M9457 17254 c-28 -15 -32 -34 -9 -41 12 -5 52 31 52 47 0 13 -10 12
-43 -6z"/>
<path d="M11438 16243 c-19 -22 -38 -58 -38 -72 0 -28 92 3 104 35 18 46 -33
74 -66 37z"/>
<path d="M9628 11613 c-93 -229 -125 -301 -145 -336 -34 -57 -40 -87 -16 -87
25 0 346 164 351 179 2 7 -16 53 -41 104 -25 51 -57 122 -72 160 -15 37 -30
67 -34 67 -4 0 -23 -39 -43 -87z"/>
<path d="M14866 11618 c-18 -68 7 -138 59 -162 49 -24 98 -21 204 11 14 4
-228 173 -248 173 -5 0 -11 -10 -15 -22z"/>
<path d="M4866 11685 c-10 -28 -7 -75 9 -105 26 -51 95 -50 198 2 20 10 37 22
37 26 0 9 -166 77 -211 88 -19 4 -28 1 -33 -11z"/>
<path d="M18504 10691 c-28 -22 -58 -51 -68 -66 l-17 -26 42 3 c42 3 43 4 70
66 16 34 27 62 26 62 -1 0 -25 -18 -53 -39z"/>
<path d="M17441 10601 c-22 -21 -31 -38 -31 -61 0 -31 1 -32 21 -19 11 8 37
36 56 62 l35 47 -25 0 c-14 0 -39 -13 -56 -29z"/>
<path d="M17589 9937 c-36 -24 -82 -84 -76 -101 11 -33 77 17 120 92 23 40 6
43 -44 9z"/>
<path d="M10225 10150 c-29 -11 -41 -29 -54 -82 -18 -75 -15 -98 13 -98 31 0
88 40 104 73 22 45 27 98 11 108 -17 11 -47 11 -74 -1z"/>
<path d="M12545 10041 c-8 -14 11 -309 25 -392 6 -30 10 -71 10 -91 0 -35 1
-36 45 -42 80 -13 181 36 217 105 25 48 27 167 4 237 -20 60 -79 117 -160 157
-62 30 -130 42 -141 26z"/>
<path d="M7705 9898 c-21 -51 -49 -115 -63 -141 -13 -27 -21 -51 -19 -54 5 -5
207 94 207 102 0 2 -13 30 -28 62 -16 32 -35 73 -43 91 l-14 33 -40 -93z"/>
<path d="M7093 9992 c-15 -9 -28 -98 -15 -106 5 -3 26 1 46 9 30 13 36 20 36
45 0 19 -8 34 -22 44 -25 18 -28 19 -45 8z"/>
<path d="M7071 9657 c-2 -135 2 -142 76 -131 51 7 83 20 95 38 13 19 8 116 -7
146 -22 43 -53 60 -110 60 l-51 0 -3 -113z"/>
<path d="M10854 9953 c-13 -19 -19 -47 -19 -88 -1 -65 -8 -85 -31 -85 -21 0
-17 -24 11 -85 49 -103 128 -142 189 -94 102 80 75 298 -44 359 -54 28 -84 26
-106 -7z"/>
<path d="M4763 9151 c-47 -22 -76 -59 -71 -93 6 -41 35 -32 100 30 80 77 67
106 -29 63z"/>
<path d="M10490 8670 c-26 -26 -26 -81 -2 -103 26 -24 77 -21 102 5 27 29 25
64 -5 93 -29 30 -68 32 -95 5z"/>
<path d="M10696 8677 c-36 -27 -14 -97 31 -97 20 0 53 37 53 59 0 20 -34 51
-55 51 -6 0 -19 -6 -29 -13z"/>
<path d="M7248 8615 c-32 -18 -53 -74 -44 -118 10 -49 43 -77 91 -77 61 0 75
20 75 108 0 69 -1 72 -30 87 -36 18 -57 18 -92 0z"/>
<path d="M9207 8620 c-24 -15 -47 -63 -47 -100 0 -37 23 -85 45 -94 30 -11 80
-6 103 10 19 13 22 24 22 83 0 54 -4 71 -19 85 -23 21 -80 30 -104 16z"/>
<path d="M9663 8610 c-32 -19 -33 -22 -33 -84 0 -81 21 -106 86 -106 58 0 84
32 84 104 -1 54 -11 75 -47 94 -31 17 -53 15 -90 -8z"/>
<path d="M18956 8575 c-24 -25 -42 -73 -32 -82 8 -8 67 15 88 34 21 19 23 44
6 61 -18 18 -37 14 -62 -13z"/>
<path d="M7555 8604 c-14 -15 -25 -35 -25 -45 0 -17 9 -19 91 -19 89 0 90 0
84 23 -19 65 -106 89 -150 41z"/>
<path d="M8265 8618 c-34 -20 -44 -41 -45 -96 0 -43 5 -57 25 -77 30 -31 82
-33 119 -4 23 18 26 27 26 85 0 62 -1 65 -32 84 -37 22 -64 25 -93 8z"/>
<path d="M8875 8604 c-14 -15 -25 -35 -25 -45 0 -17 9 -19 91 -19 89 0 90 0
84 23 -19 65 -106 89 -150 41z"/>
<path d="M11576 8585 c-27 -28 -18 -35 45 -35 l61 0 -14 23 c-19 28 -69 34
-92 12z"/>
<path d="M11875 8578 c-15 -23 -15 -23 41 -26 31 -2 58 -1 61 2 3 2 0 14 -7
25 -15 30 -73 29 -95 -1z"/>
<path d="M12209 8590 c-29 -17 -43 -66 -29 -100 23 -57 107 -57 130 1 28 67
-41 134 -101 99z"/>
<path d="M4937 8022 c-19 -21 -46 -85 -47 -111 0 -10 8 -7 25 9 26 25 49 79
43 106 -3 14 -6 13 -21 -4z"/>
<path d="M3953 7760 c-60 -14 -110 -60 -65 -60 14 0 137 38 151 47 19 12 -49
23 -86 13z"/>
<path d="M13004 6572 c-20 -15 -64 -91 -64 -108 0 -3 17 -3 37 1 80 15 128 59
101 93 -29 37 -43 40 -74 14z"/>
<path d="M16894 5747 c-33 -24 -83 -70 -113 -103 l-54 -59 69 -5 69 -5 42 87
c43 90 58 128 50 128 -3 0 -31 -19 -63 -43z"/>
<path d="M15153 5603 c-47 -30 -83 -87 -83 -131 0 -44 14 -47 55 -11 32 28
107 120 129 157 14 23 -58 13 -101 -15z"/>
<path d="M15414 4521 c-84 -38 -170 -141 -162 -194 10 -72 121 29 222 201 10
17 -12 15 -60 -7z"/>
<path d="M14255 3375 c-77 -27 -125 -115 -68 -123 16 -2 39 13 79 52 73 70 69
99 -11 71z"/>
<path d="M7530 3083 c-61 -10 -100 -57 -85 -103 7 -23 13 -22 92 6 39 14 93
68 93 93 0 11 -49 13 -100 4z"/>
<path d="M7353 2820 c-25 -10 -31 -40 -9 -40 16 0 46 26 46 41 0 11 -8 11 -37
-1z"/>
<path d="M14400 2225 c-25 -40 -40 -112 -21 -101 25 16 72 136 52 136 -5 0
-19 -16 -31 -35z"/>
<path d="M16890 2008 c0 -19 38 -78 50 -78 13 0 13 46 0 71 -12 21 -50 26 -50
7z"/>
<path d="M14165 19990 c8 -13 35 -13 55 0 11 7 5 10 -23 10 -23 0 -36 -4 -32
-10z"/>
<path d="M15290 19915 c0 -146 47 -429 96 -574 143 -428 450 -783 835 -966
217 -102 405 -144 659 -145 156 -1 277 17 445 65 117 33 346 146 460 226 119
84 323 290 407 409 67 94 67 95 46 111 -33 26 -18 63 32 78 22 6 40 16 40 21
0 12 -85 38 -150 45 -83 10 -321 76 -655 185 -132 42 -260 83 -285 89 -98 25
-257 60 -300 66 -43 5 -44 5 -20 -9 14 -8 44 -18 67 -22 49 -7 66 -23 61 -56
-3 -20 -8 -23 -50 -22 -34 0 -72 13 -151 51 l-105 51 -87 -64 c-48 -35 -98
-67 -111 -70 -34 -9 -54 2 -54 29 0 18 19 36 85 81 47 32 87 61 90 66 3 4 -24
33 -60 64 -72 64 -87 92 -59 113 27 19 31 18 92 -41 51 -48 90 -76 106 -76 3
0 6 33 6 73 0 39 7 117 15 172 8 55 15 108 15 118 0 16 -42 17 -735 17 l-735
0 0 -85z m2078 -669 l3 -68 27 7 c104 26 233 10 240 -29 6 -30 -26 -40 -128
-41 -117 0 -150 -15 -150 -70 0 -48 -32 -80 -63 -64 -12 7 -25 17 -29 23 -14
20 -8 71 12 109 14 26 20 56 20 103 0 77 12 106 43 102 20 -3 22 -10 25 -72z"/>
<path d="M16840 19998 c0 -2 -7 -52 -15 -113 -8 -60 -15 -130 -15 -154 l0 -44
32 25 c18 14 40 38 49 54 17 32 52 42 75 24 27 -24 15 -53 -48 -111 -59 -55
-61 -58 -38 -63 95 -21 242 -47 246 -44 2 2 -18 38 -45 80 -27 41 -85 137
-131 212 -45 75 -88 136 -96 136 -8 0 -14 -1 -14 -2z"/>
<path d="M16981 19963 c69 -113 178 -287 220 -349 l47 -70 121 -41 c67 -23
121 -39 121 -37 0 2 -33 59 -74 127 -41 67 -105 186 -142 265 l-67 142 -124 0
-125 0 23 -37z"/>
<path d="M17300 19993 c0 -3 40 -83 88 -177 95 -185 176 -318 217 -356 14 -13
25 -29 25 -36 0 -12 159 -68 168 -59 2 2 -57 129 -131 282 -74 153 -142 295
-150 316 l-16 37 -100 0 c-56 0 -101 -3 -101 -7z"/>
<path d="M17606 19963 c9 -21 73 -157 144 -303 70 -146 133 -279 140 -297 10
-26 20 -33 61 -43 28 -7 53 -10 56 -6 3 3 -20 68 -52 143 -78 187 -135 329
-180 446 l-37 97 -74 0 -73 0 15 -37z"/>
<path d="M17830 19993 c0 -16 80 -216 185 -465 116 -275 110 -268 187 -268 21
0 61 -9 89 -20 73 -29 82 -20 22 24 -28 20 -54 43 -57 51 -6 18 3 45 15 45 5
0 9 6 9 12 0 7 -53 151 -117 320 l-118 307 -107 1 c-60 0 -108 -3 -108 -7z"/>
<path d="M18154 19938 c13 -35 68 -175 121 -313 53 -137 101 -262 107 -277 5
-16 13 -28 17 -28 8 0 75 208 91 282 10 47 0 98 -18 98 -13 0 -53 77 -97 190
l-42 105 -101 3 -101 3 23 -63z"/>
<path d="M18450 19920 c16 -44 37 -95 46 -112 16 -30 18 -31 25 -13 4 11 8 62
8 113 l1 92 -55 0 -54 0 29 -80z"/>
<path d="M1364 14005 c-226 -48 -369 -258 -443 -650 -34 -177 -40 -235 -25
-235 7 0 71 18 141 41 171 54 590 179 736 219 65 18 121 38 123 45 6 15 -82
238 -140 353 -99 198 -214 264 -392 227z"/>
<path d="M2888 13604 c-3 -3 -73 -22 -154 -44 -173 -44 -707 -191 -713 -196
-8 -7 118 -246 173 -329 154 -230 336 -336 454 -263 91 56 196 312 246 598 21
119 26 240 11 240 -6 0 -14 -3 -17 -6z"/>
<path d="M705 12964 c-107 -38 -247 -88 -380 -134 -66 -23 -166 -60 -222 -82
l-103 -40 0 -101 c0 -67 9 -154 27 -253 l26 -152 46 -22 c57 -27 183 -35 252
-15 220 63 355 281 414 665 9 58 18 117 20 133 3 15 1 27 -3 27 -4 0 -38 -12
-77 -26z"/>
<path d="M0 6194 c0 -16 35 -82 92 -173 152 -242 251 -455 444 -959 170 -445
185 -482 194 -482 13 0 22 173 16 290 -25 459 -189 835 -495 1140 -69 69 -154
144 -188 168 l-63 43 0 -27z"/>
<path d="M2 5815 l3 -210 67 -141 c65 -138 261 -623 448 -1111 51 -134 96
-243 99 -243 9 1 71 195 86 269 15 71 13 83 -23 126 -32 39 -58 98 -144 325
-190 507 -344 865 -449 1047 -98 172 -90 177 -87 -62z"/>
<path d="M3 5160 l2 -275 68 -170 c37 -93 113 -279 169 -412 l103 -242 65 -7
c36 -4 86 -15 113 -25 58 -23 61 -9 5 32 -52 37 -65 65 -42 91 16 17 13 29
-60 221 -127 329 -367 929 -389 972 -11 22 -24 51 -28 65 -4 14 -7 -99 -6
-250z"/>
<path d="M0 4536 l0 -139 55 -121 c31 -67 59 -128 64 -136 8 -15 100 -44 110
-34 3 2 -19 62 -48 132 -30 70 -82 197 -117 282 l-64 155 0 -139z"/>
<path d="M0 4175 c0 -8 4 -15 10 -15 5 0 7 7 4 15 -4 8 -8 15 -10 15 -2 0 -4
-7 -4 -15z"/>
<path d="M0 3696 c0 -207 3 -376 6 -376 13 0 126 96 214 182 87 84 207 232
240 294 11 20 11 27 -4 43 -10 11 -16 27 -14 37 3 17 12 23 62 43 18 7 25 16
20 21 -9 9 -93 31 -189 48 -27 5 -104 24 -170 42 -66 18 -130 35 -142 37 l-23
5 0 -376z"/>
<path d="M19505 1926 c-138 -45 -288 -188 -379 -361 -14 -27 -31 -57 -36 -65
-5 -8 -30 -67 -56 -130 -25 -63 -54 -136 -65 -161 -10 -25 -21 -60 -24 -79 -3
-18 -13 -46 -21 -62 -9 -16 -14 -32 -11 -34 2 -2 98 0 213 6 115 5 359 10 542
10 l332 0 0 32 c0 30 -46 231 -111 488 -48 189 -113 300 -200 346 -42 21 -135
26 -184 10z"/>
<path d="M0 349 c0 -32 11 -37 34 -13 19 18 14 29 -14 37 -17 4 -20 0 -20 -24z"/>
<path d="M4680 39 c-58 -3 -106 -7 -107 -8 -2 0 -3 -8 -3 -16 0 -13 36 -15
260 -15 l260 0 -12 25 -11 25 -141 -2 c-78 -1 -188 -5 -246 -9z"/>
<path d="M4279 25 c-2 -2 -87 -6 -188 -9 -101 -3 -187 -8 -189 -11 -3 -3 131
-5 297 -5 238 0 302 3 299 12 -3 9 -36 14 -110 15 -58 1 -107 0 -109 -2z"/>
<path d="M3743 3 c15 -2 37 -2 50 0 12 2 0 4 -28 4 -27 0 -38 -2 -22 -4z"/>
</g>
</svg>
