<?xml version="1.0" standalone="no"?>
<!DOCTYPE svg PUBLIC "-//W3C//DTD SVG 20010904//EN"
 "http://www.w3.org/TR/2001/REC-SVG-20010904/DTD/svg10.dtd">
<svg version="1.0" xmlns="http://www.w3.org/2000/svg"
 width="1999.000000pt" height="1866.000000pt" viewBox="0 0 1999.000000 1866.000000"
 preserveAspectRatio="xMidYMid meet">

<g transform="translate(0.000000,1866.000000) scale(0.100000,-0.100000)"
fill="#000000" stroke="none">
<path d="M0 15910 l0 -2750 273 -2 c264 -3 272 -4 272 -23 0 -19 -8 -20 -272
-23 l-273 -2 0 -391 0 -390 28 19 c15 11 70 64 122 118 451 467 710 1063 750
1721 6 91 13 169 16 174 3 5 17 9 31 9 l26 0 -7 -135 c-28 -573 -214 -1086
-555 -1534 -86 -113 -237 -275 -330 -356 l-80 -70 -1 -1067 0 -1068 305 0 305
0 0 70 c0 65 1 70 24 76 39 9 46 -2 46 -77 l0 -69 568 -2 c559 -3 567 -3 567
-23 0 -20 -8 -20 -567 -23 l-568 -2 -2 -276 c-3 -242 -5 -278 -19 -287 -9 -6
-24 -7 -33 -4 -14 6 -16 36 -16 287 l0 280 -305 0 -305 0 0 -1533 0 -1533 123
3 c313 7 1247 8 1247 1 0 -4 -8 -11 -17 -16 -10 -5 -281 -15 -603 -21 -322 -6
-622 -14 -668 -17 l-82 -6 0 -1153 0 -1153 40 10 c52 13 120 3 162 -25 43 -29
72 -87 63 -128 -15 -66 -104 -136 -205 -162 l-55 -14 -3 -186 -2 -186 52 -5
c29 -3 303 -10 608 -16 305 -6 557 -13 562 -16 4 -3 7 -339 7 -747 1 -408 4
-993 8 -1299 6 -539 6 -558 -13 -565 -15 -6 -324 -250 -1141 -902 l-83 -66 0
-177 0 -178 1344 0 1343 0 -33 36 c-29 30 -34 43 -34 83 0 121 123 195 285
171 39 -5 76 -10 84 -10 11 0 13 -13 8 -66 -7 -74 4 -108 49 -143 34 -27 76
-27 124 0 40 23 70 20 70 -5 0 -17 -48 -45 -95 -57 -27 -6 7078 -4 7265 3 41
1 90 -2 109 -6 25 -7 32 -6 27 3 -13 20 24 24 45 5 19 -17 21 -18 30 -1 12 21
49 23 49 2 0 -21 186 -21 214 0 26 19 90 19 110 0 22 -23 1057 -23 1076 0 7 8
20 15 30 15 10 0 23 -7 30 -15 14 -17 50 -20 50 -5 0 6 18 10 40 10 22 0 40
-4 40 -10 0 -7 1295 -10 3865 -10 l3865 0 0 3075 0 3076 -21 40 c-22 43 -20
69 6 69 13 0 15 381 15 3665 0 2016 -1 3666 -2 3667 -2 0 -471 4 -1043 7 -572
3 -1046 10 -1052 14 -10 6 -13 239 -13 1108 0 604 -1 1099 -2 1099 -2 0 -41
-7 -88 -15 -113 -20 -350 -21 -350 -1 0 22 23 26 143 26 99 0 182 8 270 26
l27 6 0 311 c0 271 -2 313 -16 328 -15 17 -14 19 17 39 42 25 63 22 67 -10 3
-20 52 -59 249 -194 l246 -170 58 62 c74 78 124 146 184 250 38 66 52 82 71
82 13 0 24 -6 24 -13 0 -41 -169 -285 -254 -366 -20 -19 -36 -38 -36 -42 0 -9
769 -539 1278 -880 l222 -149 0 1775 0 1775 -9995 0 -9995 0 0 -2750z m10988
1759 c1152 -366 2465 -895 3707 -1494 88 -43 216 -104 284 -136 l123 -59 20
25 c38 48 115 72 178 55 21 -6 43 -17 50 -25 10 -12 8 -17 -13 -26 -20 -9 -30
-8 -48 5 -41 28 -100 12 -124 -34 -14 -27 -13 -27 45 -55 l59 -28 41 18 c22
10 40 21 40 25 0 14 -31 20 -71 14 -48 -8 -53 9 -8 25 40 14 78 14 117 0 30
-10 44 -4 218 85 171 89 244 117 216 84 -6 -7 -96 -56 -201 -108 -121 -60
-187 -98 -182 -105 15 -19 21 -62 12 -93 l-9 -32 184 -96 c101 -52 184 -100
184 -105 0 -5 -11 -11 -25 -15 -18 -4 -66 16 -199 85 l-175 91 -36 -22 c-26
-15 -55 -21 -95 -22 -48 -1 -66 4 -110 32 l-53 33 -266 -124 c-512 -239 -1054
-473 -1536 -662 -155 -61 -216 -91 -275 -133 -174 -126 -393 -207 -628 -233
-90 -11 -153 -28 -402 -111 -335 -112 -732 -238 -749 -238 -6 0 -11 4 -11 9 0
6 66 31 148 56 81 26 298 97 482 158 l335 111 -108 7 c-635 41 -1265 409
-1446 844 -38 89 -57 173 -66 283 l-7 82 -114 0 c-87 0 -114 3 -114 13 0 30
25 37 132 37 102 0 108 1 108 20 0 37 31 173 56 250 142 424 502 789 926 938
146 52 237 64 485 66 121 0 220 2 219 3 -4 4 -446 167 -646 238 -206 73 -665
225 -859 285 -94 29 -103 34 -86 46 10 8 23 14 29 14 5 0 124 -36 264 -81z
m-5888 -125 l0 -66 73 6 c168 15 782 24 1102 15 379 -9 815 -36 830 -50 6 -6
3 -15 -6 -24 -14 -14 -36 -14 -220 -1 -488 36 -1167 44 -1651 20 l-127 -7 -3
-56 c-3 -53 -5 -56 -30 -59 -28 -3 -28 -3 -28 54 l0 56 -97 -6 c-320 -23 -753
-71 -1078 -121 -88 -14 -209 -31 -270 -39 -194 -26 -246 -50 -285 -133 -33
-71 -49 -163 -65 -385 -8 -112 -21 -275 -29 -363 -28 -300 -37 -460 -43 -812
l-6 -353 149 0 c82 0 231 5 332 11 101 6 186 8 189 5 4 -3 39 -196 80 -428 40
-233 75 -432 78 -444 5 -21 10 -21 362 -29 197 -4 932 -7 1633 -7 1016 1 1284
4 1315 14 77 25 74 -8 80 783 10 1244 8 1982 -4 2075 -16 109 -36 154 -74 158
-38 5 -32 33 9 45 41 12 82 -7 107 -50 31 -54 37 -183 37 -861 l0 -654 48 6
c158 18 162 18 168 1 11 -28 -9 -36 -111 -46 -54 -5 -100 -10 -102 -12 -2 -2
-8 -334 -14 -738 -9 -595 -13 -737 -24 -748 -12 -12 -188 -15 -1124 -19
l-1111 -5 0 -72 c0 -67 -2 -73 -22 -79 -13 -3 -26 -6 -30 -6 -5 0 -8 35 -8 78
l0 79 -352 6 c-557 11 -768 9 -768 -5 0 -7 6 -47 14 -88 16 -81 10 -103 -28
-98 -18 3 -23 17 -39 106 l-19 102 -201 1 c-111 1 -287 4 -392 8 l-190 6 -11
126 c-15 162 -34 527 -34 647 0 85 -1 92 -20 92 -25 0 -26 26 -1 39 17 10 18
33 24 373 8 492 40 904 107 1368 46 318 31 282 130 302 381 78 1130 177 1530
203 169 11 160 7 160 74 0 64 3 71 37 71 22 0 23 -4 23 -66z m7552 -151 c-2
-41 9 -56 24 -32 3 6 30 22 58 35 81 38 237 31 198 -8 -6 -6 -44 -11 -85 -12
-64 -1 -80 -5 -113 -28 -21 -16 -53 -52 -70 -80 -23 -41 -36 -53 -55 -53 l-24
0 4 100 c3 106 12 128 45 123 18 -3 21 -9 18 -45z m-11663 -229 c36 -30 51
-55 62 -104 17 -74 -33 -155 -115 -183 l-39 -13 53 -17 c29 -9 84 -20 121 -23
60 -6 67 -9 57 -22 -19 -22 -157 -10 -241 22 -60 22 -157 79 -157 92 0 2 11 9
24 14 18 6 34 4 62 -11 46 -23 75 -24 114 -4 40 21 60 53 60 98 0 65 -39 128
-93 151 -9 3 -8 7 3 15 25 18 57 12 89 -15z m4185 -196 c-4 -13 -8 -54 -8 -93
-1 -68 -2 -70 -28 -73 -24 -3 -28 1 -34 33 -7 37 0 127 11 145 3 6 20 10 36
10 27 0 30 -2 23 -22z m12068 -63 c4 -33 10 -86 13 -117 l6 -57 32 20 c49 29
102 25 139 -11 29 -30 30 -32 27 -116 -4 -88 -12 -104 -53 -104 -17 0 -18 5
-10 43 14 75 10 114 -16 142 -48 51 -81 19 -102 -95 -7 -43 -16 -64 -30 -71
-12 -7 -24 -7 -29 -2 -5 5 -17 101 -26 212 -15 176 -15 204 -2 212 31 20 44 5
51 -56z m-10890 -92 l97 -97 38 28 c95 69 143 98 160 94 13 -2 -9 -24 -79 -77
l-98 -73 113 -120 c122 -130 139 -154 116 -169 -8 -5 -19 -9 -25 -9 -6 0 -66
58 -133 130 l-121 129 -87 -71 c-49 -40 -110 -91 -138 -115 -31 -27 -59 -43
-75 -43 -23 1 -20 5 30 51 30 27 99 84 152 127 l98 77 -102 102 c-87 88 -100
104 -88 117 7 9 20 16 29 16 8 0 59 -44 113 -97z m-5852 -13 c0 -11 -12 -14
-117 -29 -39 -6 -91 -19 -116 -30 -160 -69 -210 -237 -106 -355 56 -64 121
-86 247 -85 53 0 118 4 145 8 26 4 47 4 47 0 0 -14 -17 -19 -119 -30 -174 -19
-320 11 -389 80 -81 82 -62 251 39 335 78 66 168 95 357 115 6 0 12 -3 12 -9z
m4676 -360 c2 -30 5 -66 6 -80 3 -21 -2 -26 -24 -28 -22 -3 -30 2 -38 23 -17
45 -13 122 8 134 33 20 45 9 48 -49z m-836 -154 c0 -12 -93 -203 -130 -266
l-42 -73 32 -86 c50 -132 105 -233 166 -300 l56 -61 -28 -10 c-25 -10 -31 -7
-79 40 -65 64 -109 138 -153 253 -19 51 -35 94 -37 95 -2 2 -30 -23 -63 -56
-75 -75 -159 -119 -204 -106 -117 34 -86 252 48 334 77 48 145 46 200 -5 l35
-33 30 51 c16 29 48 91 71 140 38 79 45 87 70 87 15 0 28 -2 28 -4z m870 -350
c0 -95 -3 -115 -16 -120 -42 -16 -44 -11 -44 107 0 63 3 117 7 120 3 4 17 7
30 7 23 0 23 -1 23 -114z m4807 -12 c69 -61 74 -61 127 -5 28 29 76 43 76 22
0 -5 -24 -33 -52 -61 l-53 -51 70 -65 c67 -62 69 -65 51 -79 -11 -8 -24 -15
-30 -15 -6 0 -38 27 -71 60 l-61 60 -67 -60 c-38 -33 -74 -60 -82 -60 -33 0
-21 24 42 84 l68 65 -68 68 c-53 54 -65 71 -55 81 21 21 42 13 105 -44z
m-4069 -56 c-3 -22 -8 -23 -92 -26 -91 -3 -113 4 -103 32 5 13 24 16 102 16
94 0 96 -1 93 -22z m1009 6 c9 -24 -15 -34 -84 -34 -64 0 -83 11 -63 35 18 22
138 21 147 -1z m231 -3 c101 -20 107 -23 99 -46 -8 -19 -31 -19 -140 4 -97 20
-102 23 -94 46 8 19 19 18 135 -4z m-1518 -6 c-10 -12 -41 -15 -161 -15 -136
0 -162 4 -142 23 3 4 76 7 161 7 136 0 153 -2 142 -15z m648 7 c18 -12 5 -39
-21 -45 -12 -3 -66 -9 -119 -13 -84 -6 -98 -5 -98 8 0 27 23 36 115 46 50 5
95 10 100 10 6 1 16 -2 23 -6z m322 -1 c0 -15 -29 -21 -101 -21 -63 0 -88 11
-56 23 22 9 157 7 157 -2z m-1412 -438 l-3 -118 -27 -3 -28 -3 0 114 c0 62 3
117 7 120 3 4 17 7 30 7 l24 0 -3 -117z m1060 -192 c29 -43 66 -93 81 -111 27
-32 29 -33 60 -21 17 8 54 42 82 77 45 57 90 87 106 71 10 -11 -119 -253 -203
-379 -77 -116 -88 -128 -114 -128 l-29 0 72 108 c40 59 87 136 106 171 31 60
32 63 10 48 -13 -10 -41 -17 -61 -17 -31 0 -47 8 -83 41 -50 46 -149 194 -140
209 3 6 18 10 33 10 22 -1 36 -14 80 -79z m-1058 -148 c-1 -78 -31 -287 -42
-295 -21 -12 -48 -9 -48 6 0 66 33 301 43 308 27 17 47 9 47 -19z m8383 -342
c-3 -66 -92 -140 -170 -141 -17 0 -34 -3 -36 -7 -2 -5 -1 -44 3 -88 5 -44 11
-135 15 -202 6 -118 6 -121 -15 -128 -12 -4 -27 -2 -32 3 -11 11 -41 389 -33
403 7 10 -106 15 -186 8 -39 -3 -84 -15 -108 -27 -77 -40 -112 -22 -42 22 60
38 112 48 245 45 114 -3 125 -2 180 24 34 16 79 48 108 78 54 55 74 58 71 10z
m-8423 -220 c0 -135 -1 -139 -22 -145 -13 -3 -26 -6 -30 -6 -10 0 -11 274 -1
283 3 4 17 7 30 7 23 0 23 0 23 -139z m8074 32 c2 -10 8 -94 12 -187 7 -177 5
-185 -37 -186 -14 0 -18 17 -23 108 -4 59 -9 144 -12 189 -6 73 -4 82 12 86
35 9 43 7 48 -10z m-207 -1014 c34 -63 69 -124 77 -136 9 -12 16 -27 16 -33 0
-13 318 -630 336 -650 7 -8 12 -17 12 -20 -3 -19 16 -50 31 -50 25 0 32 -10
21 -30 -13 -25 38 -120 64 -120 15 0 17 -3 9 -11 -8 -8 -3 -24 19 -60 16 -27
32 -67 35 -89 5 -35 0 -48 -50 -122 -30 -46 -149 -240 -263 -433 -427 -720
-408 -690 -436 -693 -24 -3 -38 18 -209 315 -101 175 -219 381 -264 458 -44
77 -130 224 -189 327 l-108 187 23 38 c257 418 764 1221 777 1231 9 7 21 11
27 9 5 -2 38 -55 72 -118z m-807 -343 c0 -22 3 -24 40 -19 79 11 127 -32 130
-117 4 -109 -7 -140 -52 -140 -18 0 -19 4 -13 42 19 111 -1 168 -60 168 -42 0
-62 -26 -79 -102 -10 -47 -15 -53 -39 -56 -33 -4 -34 9 -12 124 22 108 29 124
60 124 20 0 25 -5 25 -24z m-3615 -238 c-7 -247 -9 -258 -58 -258 -17 0 -18 7
-11 98 l6 97 -37 -57 c-34 -50 -76 -80 -92 -64 -3 2 13 34 35 70 50 83 79 162
95 256 13 76 12 75 66 89 2 1 0 -104 -4 -231z m10815 -34 c0 -25 -281 -967
-292 -981 -11 -13 -58 -18 -58 -7 0 7 208 714 262 889 16 55 35 103 42 107 20
13 46 9 46 -8z m-10099 -70 c18 -22 25 -323 10 -439 -19 -143 -79 -361 -104
-377 -21 -13 -47 -9 -47 8 0 9 13 59 30 112 58 191 82 415 61 592 -10 85 -9
96 6 108 22 16 28 15 44 -4z m6532 -121 c71 -209 130 -466 144 -628 5 -69 5
-72 -17 -78 -33 -9 -37 -3 -45 56 -6 52 -31 204 -40 243 -4 20 -9 21 -47 13
-24 -4 -73 -11 -110 -14 l-66 -6 -16 -72 c-9 -40 -24 -112 -34 -162 -16 -81
-20 -91 -45 -99 -15 -5 -29 -7 -32 -4 -3 3 10 81 30 174 19 93 35 169 35 171
0 1 -10 3 -22 6 -22 3 -22 4 4 15 20 8 30 23 38 54 53 201 117 407 132 425 6
7 20 13 32 13 19 0 27 -15 59 -107z m-15225 -170 l-3 -248 -27 -3 -28 -3 0
244 c0 134 3 247 7 250 3 4 17 7 30 7 l23 0 -2 -247z m17332 198 c0 -11 -165
-185 -450 -476 -192 -196 -220 -228 -252 -295 -20 -41 -41 -87 -47 -102 -8
-20 -17 -28 -36 -28 -32 0 -33 22 -2 92 35 79 79 131 317 378 119 124 261 273
316 332 77 83 105 106 127 107 15 1 27 -3 27 -8z m-548 -203 c2 -68 -1 -129
-6 -136 -5 -7 -19 -12 -30 -10 -19 3 -22 12 -30 111 -5 59 -13 107 -18 107 -5
0 -31 -20 -57 -45 -45 -42 -91 -59 -91 -33 0 18 80 89 124 109 23 10 55 19 73
19 l31 0 4 -122z m1183 16 c66 -54 109 -83 117 -78 7 4 39 30 70 57 56 48 90
58 96 27 1 -9 -25 -39 -63 -70 -36 -29 -65 -56 -65 -59 0 -3 20 -21 43 -39 98
-75 102 -79 88 -96 -21 -25 -38 -19 -111 40 l-69 56 -121 -104 c-118 -100
-165 -125 -165 -86 0 9 55 64 121 121 l122 104 -109 88 c-118 94 -123 100
-114 115 17 27 59 6 160 -76z m1057 -66 l3 -103 58 91 c42 67 65 94 83 98 15
4 28 5 31 3 5 -5 -294 -728 -307 -740 -4 -5 -19 -7 -32 -5 -25 3 -24 4 64 213
111 264 106 248 74 233 -14 -6 -29 -8 -34 -4 -4 4 -7 73 -6 153 0 151 4 162
46 163 15 0 18 -13 20 -102z m-14435 -13 c7 -55 15 -119 18 -143 l6 -42 25 29
c38 46 123 83 202 89 113 8 207 -46 231 -134 13 -47 5 -82 -28 -124 -68 -88
-212 -111 -341 -56 -36 16 -81 29 -100 30 l-35 1 -28 219 c-29 232 -29 240 18
234 17 -3 21 -15 32 -103z m-623 -2 c-40 -153 -26 -285 45 -428 37 -73 39 -81
23 -93 -9 -7 -23 -11 -31 -10 -20 4 -87 138 -106 213 -19 74 -19 224 -1 295
26 98 33 110 64 110 l28 0 -22 -87z m-1789 -69 l88 -135 33 48 c62 88 85 113
103 113 10 0 21 -3 24 -6 4 -4 -23 -49 -58 -100 -36 -51 -65 -97 -65 -103 0
-6 24 -49 54 -95 56 -86 58 -106 11 -106 -14 0 -33 20 -63 70 -24 39 -45 70
-47 70 -3 0 -41 -52 -85 -115 -66 -93 -86 -115 -106 -115 -13 0 -24 5 -24 10
0 6 41 69 91 140 105 150 107 110 -22 310 -74 114 -79 125 -63 137 10 7 23 13
30 13 6 0 51 -61 99 -136z m13801 36 c35 -14 18 -34 -26 -31 -62 6 -126 4
-165 -4 -34 -6 -38 -5 -27 6 32 35 159 51 218 29z m-9716 -19 c0 -13 -27 -21
-71 -21 -58 0 -83 -29 -77 -91 9 -93 67 -137 194 -146 72 -6 91 -14 58 -27
-46 -18 -185 3 -244 36 -54 30 -75 65 -75 124 0 60 18 87 80 115 41 19 135 26
135 10z m-2890 -81 c0 -23 -48 -30 -219 -30 -144 0 -181 3 -181 13 0 8 3 17 7
20 10 11 393 8 393 -3z m4915 -15 c0 -20 -8 -20 -334 -23 -207 -1 -338 1 -344
7 -7 7 -6 16 3 26 11 13 54 15 344 13 323 -3 331 -3 331 -23z m-2737 -45 l-3
-60 52 0 c57 0 76 -15 47 -37 -13 -10 -32 -12 -61 -8 l-43 6 0 -50 c0 -41 -4
-52 -21 -61 -39 -22 -52 -6 -44 55 l6 55 -28 1 c-79 4 -101 13 -82 35 7 8 30
14 59 14 l47 0 7 48 c7 57 11 62 44 62 23 0 24 -2 20 -60z m1465 53 c43 -4 67
-10 67 -18 0 -21 -27 -25 -118 -19 -112 7 -123 11 -98 30 22 16 49 17 149 7z
m10334 -59 c2 -6 -44 -73 -102 -149 -58 -77 -105 -148 -105 -158 0 -31 30 -31
111 3 65 27 82 30 94 20 23 -19 5 -34 -80 -69 -99 -41 -159 -50 -185 -26 -40
36 -27 69 80 210 55 72 100 134 100 137 0 10 -70 -3 -124 -23 -38 -14 -53 -16
-63 -7 -19 16 -1 33 63 58 54 21 204 25 211 4z m-1307 -18 c0 -21 -23 -26
-134 -26 -107 0 -123 4 -105 27 17 19 239 19 239 -1z m-8076 -180 c76 -32 55
-59 -48 -60 -95 -1 -114 -15 -96 -70 13 -41 35 -56 82 -56 67 0 78 8 78 54 0
23 7 52 16 64 21 31 69 30 90 -3 18 -27 13 -54 -18 -97 -18 -26 -18 -35 -7
-178 6 -82 9 -157 5 -165 -6 -17 -42 -20 -51 -5 -5 8 -34 239 -35 273 0 5 -18
6 -40 2 -64 -11 -116 3 -157 41 -34 32 -35 36 -31 89 3 35 12 63 24 76 41 47
124 62 188 35z m-4594 -6 c0 -23 -48 -30 -219 -30 -144 0 -181 3 -181 13 0 8
3 17 7 20 10 11 393 8 393 -3z m-3355 -434 c0 -338 -2 -380 -16 -389 -9 -6
-24 -7 -33 -4 -14 6 -16 43 -16 380 0 393 1 401 45 395 20 -3 20 -10 20 -382z
m11379 358 c34 -33 12 -114 -41 -152 l-28 -20 28 -7 c34 -9 30 -29 -5 -33 -31
-4 -159 49 -154 63 1 6 25 10 52 11 27 1 55 2 62 3 18 2 42 63 35 89 -4 17
-10 20 -34 15 -22 -4 -29 -2 -29 10 0 35 85 51 114 21z m-433 -200 c4 -32 7
-98 8 -147 l1 -88 32 17 c42 22 118 21 152 -1 53 -35 71 -107 40 -166 -19 -38
-84 -69 -144 -68 -48 0 -151 36 -157 56 -6 18 34 26 70 14 79 -25 158 -17 177
19 12 23 -3 78 -27 96 -22 17 -83 17 -103 1 -8 -7 -23 -24 -33 -39 -11 -18
-26 -28 -41 -28 -22 0 -23 3 -29 128 -11 210 -9 250 11 261 29 17 37 7 43 -55z
m1879 -133 l0 -28 53 14 c61 15 86 11 67 -12 -7 -8 -21 -15 -32 -15 -28 0 -74
-26 -83 -47 -5 -10 -11 -43 -14 -73 -5 -48 -9 -55 -30 -58 -13 -2 -28 2 -32
10 -11 17 1 209 14 226 5 6 20 12 33 12 20 0 24 -5 24 -29z m-2642 -29 c2 -18
6 -32 10 -30 107 58 176 46 220 -37 11 -21 16 -59 16 -125 l1 -95 -27 -3 c-28
-3 -28 -3 -28 61 0 170 -86 255 -151 150 -18 -29 -24 -56 -27 -125 -4 -76 -7
-88 -24 -94 -11 -3 -24 -2 -28 3 -5 4 -11 58 -15 118 -3 61 -8 129 -11 152 -4
33 -1 44 13 52 30 18 48 8 51 -27z m529 -115 c3 -4 3 -13 0 -22 -7 -16 -79
-21 -124 -9 -25 7 -31 29 -10 38 15 7 126 1 134 -7z m10 -93 c8 -21 -9 -30
-70 -38 -83 -12 -84 23 -1 43 57 13 64 13 71 -5z m7669 -355 c3 -6 2 -15 -3
-20 -5 -5 -104 -45 -219 -88 -686 -258 -1316 -554 -1949 -919 -150 -86 -432
-257 -464 -281 l-22 -17 35 -126 c57 -207 77 -348 83 -575 l6 -202 66 -20
c562 -170 1208 -325 1820 -436 211 -38 223 -37 191 19 -38 67 -102 226 -97
241 4 8 17 15 30 15 18 0 28 -8 38 -32 7 -18 30 -71 51 -116 l38 -84 61 74
c34 40 69 76 78 80 23 10 41 9 41 -1 0 -15 -171 -216 -186 -219 -33 -8 -8 -20
64 -30 404 -59 511 -74 667 -92 98 -11 181 -23 184 -26 11 -10 -25 -24 -65
-24 -51 0 -452 51 -711 90 -666 101 -1383 258 -2036 445 -125 36 -231 65 -235
65 -5 0 -9 -21 -11 -47 -5 -109 -63 -392 -96 -470 -11 -25 -20 -33 -39 -33
-15 0 -26 3 -26 6 0 4 11 47 25 98 32 119 64 290 71 392 l7 81 -63 17 c-239
67 -910 305 -910 322 0 20 325 256 642 468 166 110 196 134 192 151 -3 11 -28
72 -55 134 -50 118 -51 130 -6 131 13 0 30 -26 62 -94 24 -51 47 -105 51 -120
3 -14 9 -26 13 -26 4 0 115 65 247 144 714 429 1405 764 2169 1052 225 85 249
92 261 73z m-18406 -363 c0 -213 -2 -245 -16 -250 -44 -17 -44 -19 -44 237 0
134 3 247 7 250 3 4 17 7 30 7 l23 0 0 -244z m17903 68 c18 -9 83 -46 144 -82
91 -52 111 -68 102 -78 -21 -25 -54 -15 -164 51 -61 35 -111 60 -113 55 -2 -4
-11 -37 -20 -72 -15 -56 -20 -63 -45 -66 -33 -4 -34 3 -6 111 26 103 39 113
102 81z m61 -241 c11 -40 47 -236 66 -358 58 -382 74 -638 68 -1098 -5 -396
-3 -386 -56 -387 -22 0 -22 2 -15 53 4 28 8 228 8 442 0 297 -5 432 -18 565
-22 218 -59 476 -93 643 -14 71 -23 135 -20 143 8 20 54 18 60 -3z m-15198
-108 c4 -9 -15 -44 -48 -88 -30 -39 -57 -77 -61 -83 -3 -6 21 -31 57 -57 89
-65 95 -74 61 -87 -25 -10 -34 -6 -93 40 l-65 50 -49 -67 c-26 -37 -54 -71
-62 -75 -15 -9 -46 -1 -46 12 0 4 25 42 56 85 31 42 53 80 48 84 -5 5 -34 27
-64 51 -60 47 -66 59 -33 71 15 5 29 3 45 -10 13 -9 39 -30 59 -45 l37 -27 53
73 c29 40 57 76 63 80 18 12 36 9 42 -7z m-1209 -143 c128 -82 212 -143 211
-151 -4 -17 -524 -321 -550 -321 -55 0 1 43 222 172 129 76 236 141 237 145 2
5 -87 66 -197 137 -110 70 -200 132 -200 137 0 13 34 29 50 23 8 -3 110 -67
227 -142z m4554 -350 c113 -248 227 -498 253 -554 l47 -102 225 494 c124 272
238 523 254 558 l29 62 298 -2 298 -3 3 -989 c1 -730 -1 -992 -9 -1003 -10
-11 -58 -13 -253 -11 l-241 3 -5 568 -5 567 -200 -461 c-133 -306 -207 -465
-220 -473 -14 -8 -72 -10 -195 -6 l-174 5 -201 459 -200 458 -3 -547 c-1 -385
-5 -552 -13 -562 -9 -10 -63 -13 -255 -13 l-244 0 -1 973 c-1 976 -1 1016 8
1030 2 4 138 6 301 5 l296 -3 207 -453z m5247 239 c2 -165 -1 -216 -10 -223
-7 -4 -140 -8 -295 -8 l-283 0 0 -774 c0 -696 -2 -774 -16 -780 -9 -3 -134 -6
-278 -6 l-263 0 -7 219 c-4 121 -6 472 -5 780 1 309 -1 564 -5 568 -4 5 -58 6
-119 4 -62 -3 -188 -5 -282 -5 l-170 -1 -3 210 c-1 115 0 215 2 222 4 11 174
13 868 11 l863 -3 3 -214z m696 209 c18 0 19 -10 11 -332 -4 -183 -8 -363 -8
-400 -1 -37 2 -70 7 -75 9 -9 71 -9 469 2 l287 8 0 393 c0 236 4 395 9 399 8
4 271 7 519 5 l32 0 0 -995 0 -994 -272 -3 c-150 -2 -276 -2 -280 0 -5 2 -8
174 -8 383 0 405 2 388 -44 380 -4 -1 -159 -2 -342 -2 -184 0 -341 -2 -349 -5
-13 -5 -15 -56 -15 -374 0 -238 -4 -371 -10 -375 -7 -5 -445 -9 -542 -5 -5 0
-8 446 -8 990 0 971 0 991 19 998 15 5 287 7 525 2z m-2578 -989 c282 -669
411 -988 404 -995 -11 -11 -488 -20 -552 -10 -37 6 -37 6 -69 102 -48 147 -98
251 -123 257 -12 3 -194 4 -404 3 l-384 -3 -64 -165 c-36 -91 -71 -171 -79
-179 -11 -11 -66 -14 -286 -13 -149 1 -274 3 -277 6 -6 6 -16 -19 213 511 97
226 276 640 397 920 121 281 226 520 234 533 l15 22 280 -2 280 -3 415 -984z
m7408 198 c55 -43 16 -119 -62 -119 -69 0 -97 66 -47 115 30 31 73 32 109 4z
m-584 -38 c20 -16 22 -21 11 -35 -17 -20 -45 -21 -61 -1 -7 8 -23 15 -37 15
-52 0 -45 -89 10 -120 24 -13 28 -13 54 6 15 12 32 35 37 53 9 30 47 53 63 37
8 -8 -17 -216 -29 -238 -5 -10 -20 -18 -34 -18 -26 0 -26 0 -18 67 6 60 5 66
-11 60 -67 -26 -126 -12 -156 37 -34 55 -22 102 34 136 41 25 104 25 137 1z
m283 -40 c31 -12 67 -85 67 -135 0 -46 -20 -86 -60 -120 -26 -21 -42 -26 -87
-26 -49 0 -58 4 -84 31 -62 66 -25 184 73 233 59 29 58 29 91 17z m-13753
-1130 c161 -42 296 -109 415 -205 l80 -63 45 19 c84 36 210 67 319 79 324 34
650 -87 879 -325 214 -223 322 -496 322 -813 0 -157 -20 -283 -67 -417 -110
-316 -319 -561 -586 -691 -139 -66 -198 -79 -362 -80 -165 0 -233 15 -373 81
-113 52 -172 94 -274 192 l-76 74 -67 -40 c-301 -182 -677 -155 -974 69 -219
164 -386 450 -451 769 -52 257 -41 617 27 820 41 125 136 261 207 299 14 8 26
22 26 32 0 11 27 34 73 63 120 75 249 125 390 152 103 19 348 11 447 -15z
m12475 -785 c79 -79 43 -231 -83 -348 -26 -23 -58 -51 -72 -60 -22 -14 -23
-18 -10 -32 37 -38 142 -35 186 5 20 19 74 27 74 10 0 -11 -67 -57 -103 -70
-53 -20 -148 -13 -196 14 -27 16 -59 25 -85 25 -52 0 -86 23 -86 57 0 67 87
87 141 34 l29 -29 40 29 c76 55 140 167 140 245 0 102 -68 122 -164 49 -44
-33 -86 -46 -86 -26 0 13 78 79 120 101 52 28 125 26 155 -4z m-3250 -146
c121 -12 224 -26 230 -31 6 -6 3 -15 -8 -26 -15 -15 -31 -15 -244 6 -125 13
-230 25 -233 26 -3 2 -6 -34 -6 -78 -1 -51 -12 -125 -29 -195 -15 -62 -25
-115 -24 -117 2 -2 98 -17 213 -34 115 -17 211 -33 215 -36 8 -9 -21 -25 -44
-24 -11 0 -103 12 -205 28 -125 19 -187 25 -192 18 -3 -6 -9 -37 -13 -68 -18
-154 48 -267 184 -321 46 -17 83 -22 204 -26 105 -3 147 -8 144 -16 -6 -18
-52 -24 -192 -25 -221 -2 -314 40 -383 174 -23 44 -26 62 -27 150 0 84 6 124
39 250 31 121 39 169 40 250 1 55 6 106 10 114 6 10 22 12 55 8 25 -3 145 -15
266 -27z m-2900 -144 c369 -65 665 -224 869 -466 107 -126 172 -244 220 -397
45 -142 51 -189 50 -388 0 -157 -4 -207 -22 -287 -177 -800 -895 -1263 -1692
-1091 -227 48 -485 174 -646 315 -209 182 -345 423 -410 728 -23 106 -26 378
-5 490 28 159 105 354 194 492 222 346 603 570 1052 618 101 11 287 4 390 -14z
m4320 -304 c0 -18 0 -32 1 -32 1 0 18 7 37 15 73 30 152 13 200 -44 l27 -33
33 28 c47 39 91 55 158 55 41 1 73 -6 104 -21 81 -39 96 -101 66 -273 -23
-130 -26 -202 -11 -241 8 -21 6 -27 -10 -36 -29 -16 -38 -12 -55 20 -21 41
-19 127 6 223 45 174 15 266 -94 284 -47 7 -100 -12 -142 -52 -28 -26 -35 -40
-35 -71 0 -72 -54 -226 -87 -251 -9 -7 -25 -13 -36 -13 -17 0 -19 5 -12 48 3
26 20 87 36 136 18 53 27 97 23 110 -12 39 -45 77 -62 72 -10 -3 -49 -14 -88
-26 l-71 -21 -22 -187 c-13 -103 -25 -190 -28 -194 -2 -5 -17 -8 -34 -8 l-29
0 0 133 c0 128 15 221 41 253 5 6 12 33 15 60 9 79 13 92 32 97 29 8 37 1 37
-31z m1152 -36 c18 -17 -22 -30 -88 -28 -62 3 -77 0 -109 -22 -103 -68 -109
-233 -14 -330 61 -62 171 -84 251 -51 40 17 83 20 83 6 0 -21 -112 -52 -190
-52 -163 -1 -266 87 -277 236 -4 52 -1 67 24 115 30 57 94 110 157 130 32 10
152 7 163 -4z m-1597 -36 c0 -18 -7 -20 -87 -21 -49 -1 -97 -2 -108 -3 -11 0
-28 3 -38 7 -15 7 -16 11 -6 23 9 11 39 14 125 14 107 0 114 -1 114 -20z
m5119 -119 c15 -10 17 -9 -366 -226 -170 -95 -265 -155 -269 -167 -3 -11 -3
-45 1 -75 9 -74 33 -98 108 -106 52 -7 591 -100 645 -112 12 -3 22 -10 22 -15
0 -5 -67 -43 -148 -84 -82 -41 -193 -100 -248 -132 -54 -31 -146 -84 -204
-117 -222 -128 -321 -208 -301 -246 16 -29 102 -60 285 -102 173 -41 629 -165
656 -179 11 -7 9 -11 -12 -21 -24 -10 -83 4 -535 131 -279 78 -512 146 -516
150 -27 25 543 394 780 506 104 50 132 68 120 80 -5 6 -92 25 -217 49 -41 8
-179 30 -307 49 -249 38 -308 56 -319 100 -15 61 49 120 231 213 72 36 213
113 313 170 279 158 258 148 281 134z m-5122 -127 c10 -26 -17 -34 -124 -34
-102 0 -120 6 -109 35 8 23 224 22 233 -1z m-12823 -29 c46 -42 29 -122 -36
-163 l-32 -21 28 -7 c16 -4 59 -4 97 -1 64 5 69 4 69 -14 0 -27 -37 -39 -119
-39 -52 0 -79 6 -120 26 -49 25 -71 47 -58 60 3 3 25 10 48 15 50 12 68 24 80
57 12 31 -6 64 -34 62 -38 -3 -47 0 -47 15 0 39 84 47 124 10z m-519 -285 c14
-22 41 -65 61 -95 l35 -56 66 78 c36 43 71 81 77 85 17 12 46 9 46 -3 0 -6
-39 -57 -87 -112 l-88 -100 -15 -111 c-15 -109 -16 -111 -43 -114 -26 -3 -27
-1 -27 40 1 85 18 179 37 200 15 18 15 20 2 16 -22 -9 -30 -2 -79 77 -24 39
-50 80 -58 92 -13 21 -12 24 9 32 36 14 37 14 64 -29z m19290 11 c12 -21 -39
-31 -159 -31 -122 0 -147 7 -108 29 22 13 259 14 267 2z m0 -390 c12 -21 -39
-31 -159 -31 -122 0 -147 7 -108 29 22 13 259 14 267 2z m-2878 -621 c80 -873
150 -1572 223 -2235 22 -198 40 -364 40 -368 0 -5 43 58 96 139 164 254 477
696 508 716 28 19 46 6 73 -54 75 -171 345 -693 373 -721 4 -5 35 45 69 110
117 222 266 426 447 611 77 80 106 103 123 100 19 -2 54 -73 228 -455 l205
-453 187 -2 c178 -3 186 -4 186 -23 0 -19 -8 -20 -170 -23 -137 -2 -171 -5
-178 -17 -11 -21 -54 -19 -66 3 -9 16 -68 17 -1027 15 -907 -1 -1018 -3 -1026
-17 -30 -54 -73 -62 -83 -15 l-7 31 -212 -3 c-206 -4 -211 -3 -211 16 0 19 8
20 210 25 l210 5 -2 25 c-2 14 -21 191 -43 394 -127 1165 -253 2515 -238 2534
6 7 21 12 32 10 20 -3 22 -18 53 -348z m-3521 -332 c258 -261 362 -375 568
-623 520 -624 972 -1303 1420 -2135 90 -168 113 -217 103 -227 -22 -22 -532
-111 -892 -157 -940 -119 -1973 -138 -3233 -59 -87 5 -102 8 -100 22 3 12 18
17 68 19 36 2 69 7 74 13 13 12 46 12 46 0 0 -5 -6 -11 -12 -14 -13 -4 43 -8
422 -28 492 -26 1428 -26 1845 0 465 30 927 81 1315 146 364 61 378 66 366
127 -7 34 -193 380 -341 633 -377 644 -822 1273 -1259 1775 -218 251 -631 681
-641 668 -1 -2 -25 -46 -52 -98 -424 -799 -1688 -3168 -1695 -3177 -12 -15
-44 -17 -52 -5 -6 10 1761 3333 1778 3344 6 4 18 8 26 8 9 0 120 -105 246
-232z m-161 -123 c0 -57 -1 -60 -26 -63 -25 -3 -27 0 -33 48 -8 58 4 83 38 78
19 -3 21 -10 21 -63z m-7288 -210 c17 -19 23 -39 23 -71 0 -38 -5 -49 -41 -84
-22 -21 -49 -42 -60 -45 -27 -9 -24 -18 11 -39 27 -16 36 -16 81 -5 36 9 52
10 60 2 14 -14 -32 -40 -90 -49 -44 -7 -119 15 -141 42 -7 7 -27 14 -44 14
-37 0 -56 15 -56 46 0 46 71 65 110 29 18 -16 23 -17 47 -4 31 17 63 65 63 96
0 36 -42 61 -95 55 -54 -6 -61 12 -12 34 48 22 116 12 144 -21z m1124 6 c54
-55 32 -142 -51 -197 -29 -20 -38 -30 -30 -38 10 -10 75 -13 130 -5 37 6 38
-26 1 -45 -48 -25 -131 -21 -175 9 -20 14 -50 25 -66 25 -32 0 -70 30 -70 55
0 22 37 55 61 55 11 0 34 -8 50 -17 27 -16 32 -16 57 -3 15 9 36 32 46 52 19
34 19 37 2 62 -16 25 -22 27 -69 24 -40 -2 -52 0 -55 13 -4 22 34 38 91 38 41
1 53 -4 78 -28z m-3171 8 c0 -6 -33 -46 -73 -89 -186 -198 -243 -458 -161
-737 8 -27 -29 -51 -51 -33 -45 38 -65 323 -32 450 21 77 73 191 118 256 52
77 145 164 174 164 14 0 25 -5 25 -11z m465 -79 c16 -26 265 -846 260 -858 -3
-8 -16 -12 -32 -10 -26 3 -29 13 -142 376 -63 204 -117 372 -121 372 -10 0
-203 -430 -197 -437 4 -3 70 -10 148 -14 78 -5 144 -11 147 -14 3 -3 -1 -12
-9 -20 -12 -13 -38 -14 -164 -6 -83 5 -151 8 -152 7 -1 -1 -24 -51 -51 -111
-39 -87 -54 -111 -72 -113 -12 -2 -26 0 -31 5 -11 11 353 812 374 825 17 11
35 10 42 -2z m1043 -42 c46 -126 56 -188 56 -348 0 -189 -13 -249 -92 -423
-26 -57 -42 -79 -58 -83 -43 -11 -45 5 -10 74 117 233 133 509 44 750 -23 61
-19 82 16 82 21 0 28 -9 44 -52z m7909 -43 c11 -53 10 -61 -5 -73 -31 -24 -46
-10 -59 53 -13 66 -5 88 31 83 17 -2 23 -15 33 -63z m-8491 -326 l-7 -212 33
22 c89 59 183 73 235 35 74 -55 79 -128 14 -193 -64 -64 -150 -75 -276 -35
-63 21 -72 29 -47 43 15 8 39 8 89 0 160 -28 261 38 192 125 -23 29 -56 34
-97 12 -15 -7 -47 -20 -72 -27 -36 -11 -49 -22 -63 -51 -18 -37 -52 -58 -67
-41 -8 8 6 495 15 521 2 6 16 12 31 12 l27 0 -7 -211z m1827 34 c4 -2 7 -38 7
-79 0 -47 6 -86 15 -104 32 -63 110 -97 180 -79 83 22 95 22 95 5 0 -10 -15
-23 -35 -32 -83 -34 -168 -27 -238 20 l-36 25 -21 -35 c-32 -51 -95 -84 -162
-84 -101 0 -168 72 -168 180 0 99 59 169 160 191 34 7 187 1 203 -8z m6711
-85 c10 -80 5 -98 -28 -98 -26 0 -28 5 -41 102 -5 38 -3 48 12 57 36 21 48 9
57 -61z m-11054 -288 c0 -6 -10 -15 -22 -20 -29 -12 -390 -29 -402 -19 -20 17
46 30 194 38 226 12 230 12 230 1z m11118 -52 c-3 -60 -4 -63 -30 -66 -28 -3
-28 -3 -28 56 0 66 3 72 37 72 23 0 24 -2 21 -62z m-11280 -1182 c1 -833 -1
-1142 -9 -1152 -6 -8 -22 -14 -35 -14 l-24 0 0 1143 c0 895 3 1146 12 1155 7
7 22 11 33 10 20 -3 20 -9 23 -1142z m11312 930 c0 -56 -8 -66 -51 -66 -16 0
-19 7 -19 48 0 53 12 72 47 72 21 0 23 -4 23 -54z m200 -339 c77 -50 95 -79
52 -85 -24 -4 -192 101 -192 119 0 12 42 28 55 21 6 -3 44 -28 85 -55z m-253
36 c5 -15 -169 -133 -197 -133 -41 0 -18 31 68 89 83 57 121 70 129 44z m-367
-253 c0 -5 -66 -57 -147 -114 -106 -75 -156 -105 -177 -106 -39 0 -38 1 137
127 128 92 187 121 187 93z m992 -56 c196 -113 200 -115 187 -130 -6 -8 -20
-14 -30 -14 -22 0 -269 138 -269 151 0 8 29 28 42 29 4 0 35 -16 70 -36z
m-11238 -155 c3 -17 6 -49 6 -70 0 -44 14 -58 30 -30 20 38 92 71 153 71 46 0
61 -5 88 -27 17 -15 38 -42 45 -60 17 -41 18 -123 1 -188 -12 -45 -16 -50 -44
-53 l-30 -3 15 69 c20 95 10 156 -33 199 -81 81 -178 -4 -192 -167 -5 -63 -9
-73 -30 -83 -14 -6 -27 -7 -32 -1 -10 12 -45 339 -38 359 4 8 17 15 30 15 19
0 26 -7 31 -31z m4233 -551 c105 -271 188 -496 184 -500 -3 -4 -17 -9 -31 -10
-22 -3 -28 7 -75 126 l-50 129 -80 -7 c-44 -3 -127 -6 -185 -6 l-106 0 -18
-97 c-22 -117 -29 -133 -61 -133 -14 0 -25 2 -25 5 0 26 195 963 202 973 6 6
20 12 32 12 19 0 43 -55 213 -492z m2710 465 c98 -46 97 -185 -3 -272 -46 -41
-35 -56 45 -56 47 0 64 5 94 28 38 28 61 34 72 16 9 -14 -22 -47 -70 -72 -54
-28 -155 -30 -209 -3 -24 12 -55 19 -81 17 -65 -4 -96 39 -58 81 20 22 75 24
107 3 22 -15 26 -14 54 10 38 32 65 99 57 142 -8 43 -47 73 -96 73 -46 0 -57
13 -27 34 29 21 71 20 115 -1z m-844 -20 c16 -16 -19 -33 -67 -33 -28 0 -68
-3 -88 -6 l-38 -7 -2 -436 -3 -436 -27 -3 -28 -3 0 440 0 441 -130 0 -130 0
-2 -437 -3 -438 -27 -3 -28 -3 0 440 0 441 -70 0 c-90 0 -116 -12 -218 -99
-46 -39 -85 -71 -87 -71 -12 0 -35 13 -35 20 0 15 152 129 208 157 56 28 61
28 292 34 395 9 476 9 483 2z m5595 -73 c81 -54 94 -73 50 -78 -37 -4 -193 99
-176 116 21 21 46 13 126 -38z m-1940 -12 c-3 -7 -81 -66 -174 -130 -157 -109
-209 -134 -209 -101 0 21 326 241 358 242 19 1 27 -3 25 -11z m-4828 -208 c0
-5 -8 -13 -17 -18 -24 -13 -361 -48 -370 -39 -17 17 22 28 167 45 186 23 220
25 220 12z m7397 -231 c180 -103 184 -106 163 -119 -28 -18 -49 -10 -207 82
-183 106 -183 106 -163 118 28 18 51 10 207 -81z m-6016 55 c11 -9 22 -35 26
-56 l6 -39 26 25 c89 84 249 99 328 31 l28 -23 -29 -8 c-22 -5 -40 -2 -67 14
-69 40 -147 27 -212 -36 -64 -61 -78 -101 -88 -237 -9 -122 -18 -145 -57 -145
-12 0 -13 30 -7 199 5 144 4 209 -5 235 -13 39 -16 41 -56 26 -40 -15 -54 4
-18 24 35 20 98 15 125 -10z m2869 -9 c0 -3 -81 -46 -181 -96 -123 -61 -190
-89 -208 -87 -20 3 13 23 154 95 153 78 235 109 235 88z m-4248 -57 c-11 -11
-162 -25 -281 -27 -36 -1 -43 2 -33 12 12 11 110 21 267 25 46 2 56 -1 47 -10z
m11151 -748 c-14 -338 -16 -360 -29 -371 -30 -25 -44 -3 -44 73 l0 73 -31 -47
c-23 -35 -38 -48 -55 -48 -30 0 -31 22 -3 61 36 52 78 155 90 225 16 97 15 96
46 92 27 -3 28 -5 26 -58z m-16563 -7 c12 -4 11 -8 -6 -21 -18 -15 -40 -16
-203 -10 -101 4 -186 10 -189 13 -3 2 1 12 8 20 12 14 36 15 194 10 100 -4
188 -9 196 -12z m17170 -223 c19 -12 27 -291 11 -398 -25 -161 -73 -308 -103
-318 -37 -11 -40 10 -14 87 54 164 79 393 59 542 -8 55 -7 72 4 83 17 16 23
17 43 4z m-3551 -232 c4 -13 14 -69 21 -126 11 -94 14 -101 27 -83 27 39 100
73 167 78 210 17 304 -206 126 -297 -56 -28 -141 -26 -228 5 -38 14 -81 25
-96 25 -31 0 -29 -8 -56 218 -17 136 -19 176 -10 187 18 22 39 18 49 -7z
m-506 -18 c-1 -8 -9 -40 -17 -70 -33 -117 -15 -268 46 -382 26 -50 29 -61 17
-69 -29 -19 -52 -4 -80 51 -16 30 -36 80 -45 110 -31 101 -19 292 23 358 16
26 59 27 56 2z m-1576 -101 c95 -149 82 -142 134 -68 34 48 51 65 72 67 39 5
35 -12 -28 -101 -30 -42 -55 -80 -55 -82 0 -3 20 -36 45 -75 50 -78 54 -96 25
-105 -26 -8 -38 1 -75 64 -16 28 -33 51 -37 51 -3 0 -36 -43 -73 -95 -53 -76
-71 -95 -90 -95 -14 0 -25 6 -25 13 0 8 34 62 75 121 41 59 75 110 75 115 0 4
-31 55 -70 114 -85 132 -92 145 -85 157 3 6 17 10 30 10 19 0 35 -18 82 -91z
m3541 -4 c2 -2 2 -11 -1 -20 -4 -10 -19 -15 -44 -15 -55 0 -83 -23 -83 -67 0
-74 75 -123 188 -123 36 0 43 -3 40 -17 -4 -25 -102 -29 -173 -8 -152 44 -170
214 -27 253 34 10 89 8 100 -3z m-2498 -73 c0 -27 -30 -32 -187 -32 -129 0
-163 3 -163 13 0 8 3 17 7 20 9 10 343 9 343 -1z m4245 -2 c4 -6 1 -17 -5 -25
-10 -13 -61 -15 -301 -15 -274 0 -289 1 -289 18 0 10 3 22 7 25 11 12 581 8
588 -3z m-14527 -16 c35 -24 55 -72 49 -116 -6 -44 -27 -72 -72 -96 l-30 -16
40 -12 c22 -7 60 -13 84 -13 37 -1 42 -3 31 -16 -16 -19 -87 -19 -158 -1 -64
17 -145 63 -139 79 4 13 54 14 99 2 37 -10 74 15 83 54 8 38 -19 99 -52 114
-18 8 -20 13 -12 24 15 18 49 17 77 -3z m12162 -39 l0 -55 51 0 c65 0 63 -24
-3 -28 l-46 -3 -9 -47 c-7 -41 -11 -47 -36 -50 -26 -3 -27 -2 -27 46 0 53 -10
62 -68 62 -44 0 -16 25 31 28 l47 3 0 39 c0 27 6 42 18 49 35 21 42 13 42 -44z
m1330 38 c14 -13 -35 -23 -112 -23 -86 0 -114 10 -82 28 16 9 183 5 194 -5z
m-14862 -37 c37 -20 62 -66 62 -114 0 -37 -6 -50 -34 -78 -19 -19 -42 -34 -52
-35 -43 -2 44 -28 94 -29 55 0 66 -12 30 -31 -25 -14 -106 -6 -169 16 -50 18
-119 61 -119 74 0 19 43 23 79 6 101 -45 153 81 64 154 l-37 30 25 10 c31 12
30 13 57 -3z m2878 -32 c54 -36 71 -122 35 -181 -11 -17 -29 -34 -40 -38 -34
-11 -15 -23 47 -30 82 -9 87 -12 71 -31 -31 -38 -227 5 -291 63 -23 21 -23 30
3 43 16 9 26 8 44 -4 38 -25 80 -20 104 10 33 42 27 81 -18 124 -29 28 -36 41
-28 49 16 16 44 14 73 -5z m-1879 -20 c3 -9 1 -86 -6 -173 -15 -196 -15 -329
-2 -361 5 -14 20 -38 34 -54 l24 -29 39 20 c21 11 52 26 68 32 26 11 28 15 23
48 -10 58 -65 103 -127 103 -25 0 -31 4 -28 18 5 25 92 29 136 6 93 -50 96
-200 5 -248 -88 -45 -176 -24 -221 52 -24 42 -27 59 -31 159 -3 119 24 409 41
431 14 17 37 15 45 -4z m14635 -130 c15 -8 28 -19 28 -24 0 -6 10 -10 23 -10
49 0 62 -50 27 -100 -19 -26 -19 -35 -9 -165 9 -113 9 -139 -3 -146 -37 -24
-50 0 -64 122 -7 63 -13 115 -13 117 -1 1 -27 2 -58 2 -120 0 -179 84 -120
171 38 57 116 70 189 33z m-3982 2 c0 -23 -24 -26 -191 -26 -130 0 -159 3
-159 14 0 22 15 24 188 25 132 1 162 -2 162 -13z m-9130 -135 c-8 -5 -46 -14
-85 -20 -89 -16 -141 -45 -171 -97 -49 -84 -19 -181 69 -220 34 -15 63 -19
155 -18 86 2 111 -1 102 -10 -7 -7 -60 -11 -153 -11 -137 0 -144 1 -189 27
-36 22 -50 38 -63 72 -44 114 38 230 188 271 57 15 172 20 147 6z m-1866 -150
c11 -17 -26 -21 -192 -21 -149 1 -165 2 -148 15 16 12 54 15 177 15 87 0 160
-4 163 -9z m1254 -3 c-6 -16 -348 -24 -348 -9 0 17 23 19 188 20 127 1 163 -2
160 -11z m5406 -166 c-2 -31 0 -32 37 -32 33 0 39 -3 39 -20 0 -18 -4 -20 -32
-15 -28 5 -59 1 -127 -16 -8 -2 -16 3 -18 13 -3 11 5 18 26 23 37 8 47 21 31
40 -10 12 -10 18 0 30 22 26 45 14 44 -23z m-6659 -52 c13 -20 -50 -30 -195
-30 -144 0 -180 7 -143 29 24 14 330 14 338 1z m1253 -7 c-3 -16 -20 -18 -167
-21 -93 -1 -169 2 -174 7 -25 25 9 31 174 31 157 0 170 -1 167 -17z"/>
<path d="M11805 17110 c-285 -36 -589 -212 -803 -465 -135 -160 -229 -326
-285 -500 -23 -72 -32 -110 -51 -222 l-5 -33 710 0 c696 0 711 0 736 20 17 14
41 20 72 20 33 0 54 -6 69 -20 21 -20 35 -20 628 -20 l607 0 -8 72 c-40 414
-333 815 -740 1013 -100 49 -232 95 -345 120 -87 20 -469 29 -585 15z"/>
<path d="M13129 16774 c106 -101 171 -181 239 -294 82 -137 144 -311 163 -459
6 -47 13 -96 15 -108 l4 -23 768 0 768 0 0 21 c0 24 -99 74 -666 341 -424 200
-1190 541 -1369 609 -13 5 22 -34 78 -87z"/>
<path d="M15333 15898 c-31 -15 -29 -21 12 -41 44 -21 45 -21 45 2 0 49 -16
59 -57 39z"/>
<path d="M10663 15758 c22 -283 188 -539 475 -736 315 -216 766 -351 1132
-340 117 4 132 7 245 47 302 109 493 184 530 208 59 39 184 170 237 250 124
185 198 404 198 591 l0 62 -600 0 -599 0 -15 -29 c-17 -32 -70 -61 -111 -61
-29 0 -85 48 -85 74 0 14 -70 16 -706 16 l-707 0 6 -82z"/>
<path d="M12140 15831 c0 -11 28 -41 39 -41 12 0 31 23 31 37 0 8 -13 13 -35
13 -19 0 -35 -4 -35 -9z"/>
<path d="M13545 15773 c-28 -298 -128 -527 -323 -745 l-44 -48 39 14 c396 142
1891 801 1885 831 -1 7 -270 11 -776 13 l-774 2 -7 -67z"/>
<path d="M15200 15830 c-13 -9 -11 -14 13 -35 15 -13 42 -27 60 -30 33 -6 87
8 87 23 0 13 -88 52 -118 52 -15 0 -34 -5 -42 -10z"/>
<path d="M12860 14831 c-8 -5 -75 -30 -148 -56 -73 -27 -130 -50 -128 -52 8
-9 171 46 241 81 39 19 66 35 60 35 -5 0 -17 -3 -25 -8z"/>
<path d="M3555 15180 c-27 -5 -126 -9 -219 -9 l-169 -1 7 -167 c10 -267 27
-505 37 -545 13 -49 57 -84 121 -97 59 -11 598 -22 598 -12 0 3 -27 159 -60
346 -33 187 -60 350 -60 362 0 42 -32 103 -61 118 -30 16 -110 18 -194 5z"/>
<path d="M3919 16013 c-40 -34 -79 -116 -79 -169 0 -30 6 -46 24 -63 43 -40
96 -11 182 100 51 66 51 80 3 129 -40 39 -85 40 -130 3z"/>
<path d="M12582 12976 c-189 -303 -343 -555 -343 -561 1 -5 126 -52 278 -102
207 -69 279 -90 285 -80 4 6 8 32 8 56 0 51 36 438 84 906 19 182 33 331 33
331 -1 1 -156 -246 -345 -550z"/>
<path d="M12990 13508 c0 -16 5 -28 10 -28 13 0 13 20 0 40 -8 12 -10 9 -10
-12z"/>
<path d="M13008 13427 c-21 -17 -29 -34 -34 -76 -6 -50 -6 -53 12 -43 10 6 34
23 53 39 l34 29 -19 37 -19 37 -27 -23z"/>
<path d="M13030 13288 c-36 -27 -66 -51 -66 -51 -1 -1 -4 -32 -8 -70 l-7 -68
100 67 100 66 -26 52 c-14 28 -26 52 -27 53 -1 1 -31 -21 -66 -49z"/>
<path d="M13056 13131 c-54 -38 -102 -74 -106 -82 -4 -8 -10 -40 -12 -71 l-5
-57 51 26 c42 21 224 128 234 138 4 4 -51 115 -58 115 -3 -1 -49 -32 -104 -69z"/>
<path d="M13180 13024 c-30 -19 -99 -58 -152 -87 l-97 -52 -6 -58 c-4 -32 -5
-60 -3 -62 7 -7 358 199 358 210 -1 6 -11 26 -23 47 l-23 36 -54 -34z"/>
<path d="M13120 12825 c-96 -57 -183 -104 -192 -105 -13 0 -18 -8 -18 -29 0
-15 -3 -49 -6 -75 l-7 -48 124 62 c117 59 218 114 301 167 l38 23 -27 55 c-15
30 -30 55 -33 54 -3 0 -84 -47 -180 -104z"/>
<path d="M13315 12753 c-84 -51 -383 -203 -399 -203 -8 0 -16 -10 -20 -22 -9
-34 -7 -98 3 -98 38 0 307 135 441 221 l80 51 -21 41 c-12 23 -22 43 -23 44
-1 1 -29 -14 -61 -34z"/>
<path d="M13340 12604 c-89 -57 -284 -155 -385 -195 -33 -12 -63 -25 -67 -28
-9 -9 -20 -124 -11 -119 4 2 40 19 78 39 39 20 115 55 171 78 108 46 176 92
273 185 46 43 60 63 56 77 -4 10 -12 19 -18 18 -7 0 -50 -25 -97 -55z"/>
<path d="M13408 12496 c-79 -76 -132 -106 -338 -195 -52 -23 -113 -53 -135
-67 l-40 -25 75 5 c103 8 326 49 306 56 -22 7 -20 9 141 124 l123 87 -14 27
c-36 67 -34 67 -118 -12z"/>
<path d="M13437 12363 c-65 -47 -116 -87 -115 -88 2 -2 67 11 146 28 92 20
142 35 142 44 0 16 -42 103 -49 102 -4 0 -59 -39 -124 -86z"/>
<path d="M12260 12346 c0 -3 53 -96 118 -208 65 -112 196 -337 291 -501 95
-164 181 -313 192 -330 l20 -32 -5 40 c-45 310 -76 622 -76 768 0 86 -2 97
-17 97 -10 0 -130 38 -266 85 -257 88 -257 88 -257 81z"/>
<path d="M13396 12270 c-88 -16 -225 -43 -305 -59 -80 -17 -163 -33 -183 -36
-38 -6 -38 -6 -38 -53 0 -26 6 -103 14 -172 8 -69 27 -260 42 -425 15 -165 29
-302 30 -304 5 -6 -3 -20 159 254 300 506 399 671 435 725 20 30 42 65 49 78
11 20 10 22 -16 21 -15 0 -100 -14 -187 -29z"/>
<path d="M15792 12664 c-11 -38 -32 -114 -47 -169 -14 -55 -29 -109 -32 -119
-5 -18 -1 -19 80 -13 101 8 117 13 117 37 0 21 -77 297 -89 318 -6 10 -15 -6
-29 -54z"/>
<path d="M5443 12376 c-45 -12 -89 -28 -98 -36 -22 -18 -42 -58 -50 -101 l-7
-36 85 -36 c139 -60 203 -59 263 4 25 26 29 38 29 86 0 53 -2 57 -48 99 -28
25 -58 44 -70 43 -12 0 -59 -11 -104 -23z"/>
<path d="M16165 9617 c-254 -170 -584 -406 -585 -418 0 -12 618 -227 839 -293
l54 -16 -6 163 c-10 227 -37 405 -92 595 -14 47 -26 86 -27 88 -2 1 -84 -52
-183 -119z"/>
<path d="M6021 9415 l0 -967 22 6 c12 3 97 6 189 6 l168 0 2 633 3 632 29 0
c29 0 32 -4 183 -350 84 -192 174 -395 200 -450 26 -55 61 -138 78 -185 l32
-85 142 0 143 0 28 75 c15 41 53 131 86 200 32 69 124 276 204 460 137 314
148 335 173 338 l27 3 0 -229 c0 -126 3 -412 7 -635 l6 -407 186 0 186 0 -3
957 -3 958 -244 3 -243 4 -27 -46 c-15 -25 -53 -112 -85 -193 -32 -82 -78
-191 -102 -243 -25 -52 -57 -122 -72 -155 -252 -553 -240 -530 -270 -530 -27
0 -33 10 -162 293 -73 161 -159 359 -190 440 -73 187 -142 335 -184 391 l-32
44 -117 -7 c-150 -9 -322 -9 -343 -1 -16 6 -17 -60 -17 -960z"/>
<path d="M10345 10195 l0 -180 290 0 290 0 0 -778 1 -778 219 -2 c190 -1 219
0 216 13 -10 36 1 1526 11 1538 8 9 80 12 299 12 l289 0 -2 133 c0 72 2 146 5
162 14 62 64 58 -815 59 l-803 1 0 -180z"/>
<path d="M12228 9442 c-2 -515 -1 -947 1 -960 2 -12 11 -26 20 -30 9 -4 107
-6 219 -4 l202 4 0 373 c0 222 4 376 9 380 12 7 850 9 857 2 3 -3 5 -174 5
-381 l-1 -376 220 0 219 0 3 938 c2 515 0 948 -3 962 l-5 25 -215 0 -214 0 -5
-400 -5 -400 -432 -3 -433 -2 -2 372 c-1 205 -1 387 -1 405 l1 32 -219 1 -218
0 -3 -938z"/>
<path d="M9185 10348 c-22 -55 -289 -674 -442 -1028 -80 -184 -174 -409 -210
-500 -36 -91 -88 -210 -115 -264 -53 -106 -53 -114 7 -118 35 -2 55 -1 244 6
l144 5 19 43 c11 24 42 100 69 170 28 70 56 131 63 137 9 8 152 10 462 9 l449
-3 66 -170 c55 -144 69 -172 93 -183 35 -17 440 -6 433 12 -3 6 -91 216 -197
466 -106 250 -216 511 -245 580 -29 69 -111 265 -184 437 -72 172 -138 334
-147 360 -9 26 -21 54 -26 61 -8 9 -68 12 -240 12 l-229 0 -14 -32z m275 -470
c73 -169 270 -702 262 -710 -13 -13 -615 -15 -619 -3 -1 6 62 174 141 375 138
349 152 376 189 379 4 1 16 -18 27 -41z"/>
<path d="M9367 9693 c-25 -65 -65 -172 -87 -238 -23 -66 -57 -151 -76 -188
-19 -38 -34 -70 -34 -73 0 -2 109 -4 241 -4 225 0 241 1 236 18 -3 9 -53 141
-112 292 -59 151 -110 283 -114 293 -5 13 -20 -14 -54 -100z"/>
<path d="M17470 9578 c0 -7 5 -20 10 -28 12 -20 33 0 24 23 -7 20 -34 23 -34
5z"/>
<path d="M17150 9462 c-52 -52 -48 -140 7 -154 72 -19 114 83 67 160 -19 30
-40 28 -74 -6z"/>
<path d="M3124 8388 c-99 -8 -194 -31 -285 -68 -55 -23 -159 -77 -159 -83 0
-1 38 -2 84 -2 89 0 102 -4 93 -30 -5 -12 -23 -15 -86 -15 -107 0 -179 -27
-242 -90 -127 -127 -186 -366 -176 -710 9 -288 52 -482 154 -683 126 -251 352
-450 596 -526 154 -47 296 -46 450 3 78 24 227 102 227 118 0 5 -17 35 -39 66
-107 158 -186 374 -221 602 -29 190 -18 470 25 647 36 146 122 291 208 354 23
16 42 37 43 46 2 9 7 19 12 22 5 3 32 21 60 40 29 18 52 35 52 36 0 2 -35 30
-77 62 -213 160 -462 233 -719 211z m-364 -917 c0 -12 -26 -21 -61 -21 -68 0
-94 -89 -43 -150 22 -26 33 -31 63 -28 31 3 38 8 47 37 7 23 8 45 0 72 -12 44
-9 49 30 52 23 2 29 -3 37 -28 31 -103 93 -172 180 -201 35 -12 45 -19 36 -25
-42 -26 -135 5 -199 67 l-35 34 -49 -25 c-59 -30 -78 -31 -132 -6 -115 52 -90
169 45 217 42 15 81 18 81 5z"/>
<path d="M4230 8181 c-87 -19 -196 -56 -204 -70 -3 -4 20 -37 49 -74 105 -130
173 -265 221 -438 35 -127 45 -396 20 -533 -16 -83 -83 -305 -96 -316 -3 -3
-23 -36 -44 -75 -60 -110 -123 -193 -219 -288 -86 -86 -88 -89 -73 -112 18
-28 134 -129 197 -172 66 -46 154 -88 249 -118 74 -24 102 -28 210 -29 104 -1
137 3 200 22 357 112 633 444 726 872 26 118 26 362 0 480 -50 234 -154 420
-326 584 -125 119 -267 200 -445 252 -124 36 -339 43 -465 15z m600 -845 c0
-7 -7 -30 -15 -50 -9 -20 -24 -59 -35 -85 l-19 -48 37 18 c101 52 201 -7 161
-94 -25 -56 -136 -81 -180 -41 -38 35 -43 53 -15 65 22 11 28 8 60 -25 30 -32
38 -36 55 -26 26 13 29 71 5 95 -22 22 -56 13 -116 -31 -27 -19 -59 -34 -72
-34 l-25 0 49 121 c27 67 55 128 61 135 15 18 49 18 49 0z"/>
<path d="M3915 8056 l-39 -24 49 5 c59 7 63 9 44 28 -12 13 -19 12 -54 -9z"/>
<path d="M3864 7982 c-63 -22 -142 -82 -122 -92 21 -12 420 -132 424 -128 6 6
-56 119 -99 181 l-40 57 -56 0 c-31 -1 -79 -9 -107 -18z"/>
<path d="M3680 7825 c-6 -8 -25 -47 -40 -87 l-28 -73 146 -53 c81 -29 199 -71
262 -93 63 -23 144 -52 179 -65 l63 -24 -6 48 c-13 88 -48 202 -65 211 -17 9
-480 151 -492 151 -4 0 -12 -7 -19 -15z"/>
<path d="M3597 7596 c-3 -8 -11 -60 -18 -116 -11 -86 -11 -103 1 -110 14 -9
80 -32 475 -167 234 -80 217 -86 213 71 l-3 100 -230 82 c-126 46 -270 98
-320 115 -49 17 -95 34 -101 36 -6 2 -14 -3 -17 -11z"/>
<path d="M3570 7191 c0 -128 4 -151 26 -151 8 0 138 -54 289 -121 151 -66 279
-118 284 -114 12 7 68 177 77 233 5 32 3 40 -12 47 -26 10 -656 225 -660 225
-2 0 -4 -54 -4 -119z"/>
<path d="M3587 6963 c10 -72 55 -253 64 -259 5 -3 93 -36 196 -75 l188 -69 20
25 c12 14 38 56 58 95 l38 69 -33 14 c-62 27 -523 229 -530 233 -4 3 -4 -13
-1 -33z"/>
<path d="M3670 6634 c0 -16 74 -162 114 -224 l46 -71 39 31 c22 16 63 57 91
90 51 59 52 60 28 69 -60 23 -309 111 -313 111 -3 0 -5 -3 -5 -6z"/>
<path d="M9345 7304 c-399 -62 -697 -247 -902 -562 -126 -191 -197 -402 -219
-641 l-6 -75 68 61 c38 34 85 77 103 97 24 25 44 36 63 36 15 0 28 -4 28 -8 0
-11 -106 -112 -172 -166 -27 -21 -48 -42 -48 -47 0 -5 275 -9 633 -9 l632 0
42 83 c23 45 81 139 127 210 130 195 181 286 273 487 46 102 102 218 124 258
22 39 37 72 34 72 -3 0 -20 -7 -37 -16 -47 -24 -84 -33 -99 -24 -10 7 -10 11
0 24 8 9 17 16 22 16 14 0 101 42 133 64 l29 20 -84 32 c-233 91 -513 124
-744 88z m437 -564 c16 -29 17 -29 48 -13 42 21 57 5 30 -30 -12 -15 -36 -30
-53 -35 -30 -8 -32 -12 -35 -56 -3 -40 -7 -48 -28 -57 -14 -5 -30 -7 -35 -3
-5 3 -9 35 -9 72 -1 65 -1 66 -16 40 -10 -20 -23 -28 -40 -28 -23 0 -25 3 -20
26 10 39 36 75 71 95 43 27 67 24 87 -11z"/>
<path d="M10256 7026 l7 -115 -27 -7 c-15 -3 -29 -4 -31 -2 -3 2 -8 44 -11 91
l-7 88 -26 -43 c-14 -24 -63 -124 -109 -223 -128 -277 -150 -318 -271 -499
-62 -94 -130 -205 -152 -248 l-39 -78 597 -1 c329 -1 614 -3 633 -5 l34 -4
-42 40 c-47 45 -54 75 -20 86 17 5 28 -1 51 -30 50 -62 60 -51 53 62 -21 319
-130 568 -341 777 -76 76 -274 225 -299 225 -4 0 -4 -52 0 -114z"/>
<path d="M8290 5910 c17 -22 36 -42 41 -45 18 -11 9 -43 -13 -49 -18 -5 -30 2
-57 31 l-33 38 7 -50 c23 -159 94 -353 181 -491 201 -321 511 -533 897 -616
137 -29 391 -31 517 -5 261 56 453 160 646 352 161 159 264 322 337 531 35
101 73 252 65 260 -3 2 -24 -16 -47 -41 -28 -30 -50 -45 -67 -45 l-25 0 28 34
c15 18 48 56 71 85 l44 51 -1312 0 -1312 0 32 -40z m1313 -143 c10 -123 18
-147 52 -147 28 0 44 -25 27 -42 -5 -5 -27 -10 -48 -10 -29 0 -44 6 -61 27
-13 14 -23 33 -23 42 0 14 -4 13 -22 -4 -51 -46 -92 -54 -129 -24 -23 18 -23
18 -42 -5 -19 -25 -51 -32 -62 -14 -9 14 12 47 64 103 52 56 106 87 151 87 28
0 30 2 30 39 0 39 11 52 40 48 12 -2 17 -25 23 -100z"/>
<path d="M9472 5710 c-28 -12 -39 -37 -23 -53 10 -9 18 -6 37 16 37 43 32 55
-14 37z"/>
<path d="M18595 3538 c-104 -111 -232 -279 -308 -403 -60 -100 -181 -335 -174
-341 2 -2 218 -3 480 -2 l475 3 -188 413 c-103 227 -190 415 -192 418 -3 3
-45 -37 -93 -88z"/>
<path d="M17567 3498 c-147 -201 -426 -611 -466 -685 l-12 -23 476 0 c261 0
475 1 475 3 0 1 -38 70 -85 152 -47 83 -138 257 -203 387 -64 131 -120 238
-124 238 -4 0 -31 -33 -61 -72z"/>
<path d="M6272 4243 c-52 -26 -77 -69 -77 -135 0 -46 4 -61 24 -82 32 -34 77
-42 129 -21 54 22 85 64 82 113 -2 20 -3 61 -4 90 l-1 52 -60 0 c-35 0 -74 -7
-93 -17z"/>
<path d="M6594 2367 l-59 -297 160 0 c88 0 165 4 172 8 8 5 -21 89 -98 287
-60 154 -110 284 -112 289 -2 5 -30 -124 -63 -287z"/>
<path d="M15925 803 c-54 -28 -81 -60 -99 -119 -6 -18 3 -25 65 -54 111 -51
208 -40 238 27 47 104 -94 205 -204 146z"/>
<path d="M18587 508 c-13 -9 -18 -24 -15 -43 4 -39 42 -60 90 -51 34 6 36 9
40 49 3 23 3 44 2 46 -10 12 -101 11 -117 -1z"/>
<path d="M17950 16160 l0 -280 63 24 c154 58 400 208 376 230 -2 2 -102 71
-221 154 l-218 151 0 -279z"/>
<path d="M18370 16050 c-88 -67 -206 -131 -322 -176 l-98 -37 0 -1094 0 -1093
388 0 c214 0 673 -3 1020 -7 l632 -6 0 704 -1 704 -282 188 c-385 257 -630
424 -1055 719 -117 81 -214 148 -215 147 -1 0 -31 -22 -67 -49z"/>
<path d="M45 4635 c-22 -8 -41 -15 -42 -15 -2 0 -3 -54 -3 -120 0 -108 2 -120
18 -120 74 0 167 66 178 127 11 60 -29 119 -91 136 -11 3 -38 0 -60 -8z"/>
<path d="M0 3534 c0 -308 3 -384 13 -377 6 6 82 62 167 125 294 217 498 354
767 519 l143 86 -153 7 c-83 3 -314 8 -512 11 -198 3 -375 8 -392 11 l-33 5 0
-387z"/>
<path d="M975 3757 c-269 -163 -518 -334 -867 -592 l-108 -80 0 -841 0 -842
107 -6 c190 -11 531 -25 801 -32 l262 -7 0 755 c0 851 -10 1748 -20 1748 -3 0
-82 -46 -175 -103z"/>
<path d="M0 881 l0 -481 498 397 c273 218 532 424 574 458 l76 62 -251 7
c-278 7 -649 22 -799 32 l-98 6 0 -481z"/>
<path d="M2797 239 c-73 -17 -125 -75 -113 -124 10 -40 71 -85 115 -85 32 0
45 7 75 40 36 40 41 53 49 128 5 40 4 42 -21 42 -15 0 -36 2 -47 4 -11 3 -37
0 -58 -5z"/>
<path d="M2909 38 l-37 -38 107 1 c87 1 100 3 71 11 -19 5 -51 21 -70 36 l-35
27 -36 -37z"/>
</g>
</svg>
