<?xml version="1.0" standalone="no"?>
<!DOCTYPE svg PUBLIC "-//W3C//DTD SVG 20010904//EN"
 "http://www.w3.org/TR/2001/REC-SVG-20010904/DTD/svg10.dtd">
<svg version="1.0" xmlns="http://www.w3.org/2000/svg"
 width="1920.000000pt" height="1920.000000pt" viewBox="0 0 1920.000000 1920.000000"
 preserveAspectRatio="xMidYMid meet">

<g transform="translate(0.000000,1920.000000) scale(0.100000,-0.100000)"
fill="#000000" stroke="none">
<path d="M0 18641 c0 -550 0 -559 20 -564 26 -7 26 -44 0 -77 -17 -22 -20 -42
-20 -177 l0 -151 36 -36 c43 -43 42 -70 -4 -74 l-32 -3 0 -155 0 -155 33 6
c108 18 244 35 287 35 40 0 51 -4 61 -21 8 -17 8 -24 -3 -34 -11 -10 -298 -55
-356 -55 l-22 0 0 -2446 c0 -2290 1 -2446 17 -2440 21 9 619 221 694 247 l57
20 12 97 c63 506 222 788 485 858 67 18 192 18 245 -1 137 -48 227 -175 351
-493 l44 -114 40 7 c22 3 67 14 100 25 91 29 442 125 608 166 l147 36 -1 97
c0 53 -6 173 -13 266 -7 94 -11 178 -8 188 3 11 14 17 33 17 16 0 29 -1 29 -2
0 -2 7 -66 16 -143 8 -77 17 -196 20 -265 3 -68 7 -126 10 -129 2 -2 66 15
142 38 168 53 194 57 210 38 33 -40 -19 -70 -208 -122 -74 -20 -139 -41 -144
-45 -4 -5 -12 -58 -16 -118 -21 -285 -123 -600 -233 -719 -55 -60 -103 -83
-171 -83 -106 0 -204 54 -323 179 -72 76 -135 172 -211 321 -35 68 -67 129
-73 136 -7 8 -56 -2 -192 -41 -458 -132 -809 -243 -824 -261 -6 -9 -14 -48
-18 -87 -10 -109 -51 -305 -83 -393 -111 -315 -330 -465 -602 -414 -29 6 -55
8 -58 5 -3 -2 7 -80 21 -172 15 -92 36 -235 47 -318 26 -184 68 -445 80 -500
5 -22 32 -164 60 -315 28 -151 60 -313 71 -359 20 -81 20 -85 3 -98 -23 -17
-29 -16 -48 2 -22 22 -30 57 -87 360 -27 149 -61 324 -74 390 -14 66 -38 224
-55 350 -31 236 -88 597 -96 604 -2 2 -4 -1231 -4 -2740 l0 -2744 62 -40 c33
-21 97 -70 142 -108 531 -450 731 -1219 496 -1909 -22 -64 -40 -123 -40 -131
0 -7 11 -24 25 -37 50 -47 23 -99 -61 -119 -47 -12 -51 -16 -104 -99 -118
-188 -292 -377 -447 -485 l-73 -51 0 -834 c0 -914 -3 -876 56 -756 19 39 28
77 33 138 6 85 20 116 51 116 38 0 43 -23 31 -137 -7 -64 -9 -209 -6 -356 l5
-248 -27 3 c-45 5 -53 36 -53 204 0 83 -3 153 -6 157 -3 3 -24 -6 -45 -20
l-39 -26 0 -249 0 -250 33 5 c17 3 93 9 168 13 137 7 137 7 144 -16 11 -35
-13 -46 -123 -55 -53 -5 -110 -10 -127 -11 -16 -1 -45 -3 -62 -3 l-33 -1 0
-65 0 -64 111 -3 c93 -3 114 -6 123 -20 8 -14 7 -21 -6 -34 -13 -13 -40 -18
-110 -21 -51 -2 -99 -5 -105 -8 -8 -3 -13 -23 -13 -53 0 -49 0 -49 46 -67 53
-20 86 -65 78 -105 -8 -33 -58 -79 -95 -87 l-29 -5 0 -114 0 -114 1090 0 c984
1 1092 2 1097 17 3 8 0 81 -7 162 -14 166 -18 174 -82 159 -52 -11 -68 -5 -68
26 0 27 16 36 68 36 61 0 63 5 52 111 -5 52 -10 100 -10 107 0 6 -11 12 -24
12 -28 0 -51 24 -42 45 3 8 14 15 25 15 24 0 45 35 36 58 -4 9 -8 46 -11 82
-2 36 -9 107 -15 157 l-11 93 -50 0 c-36 0 -50 4 -55 16 -9 24 23 44 70 44 38
0 39 1 32 28 -3 15 -8 46 -10 70 -1 24 -5 46 -8 49 -3 3 -20 0 -38 -6 -39 -14
-76 -14 -84 -1 -12 20 17 49 65 65 l51 17 -6 147 c-3 80 -11 205 -17 276 -5
72 -12 337 -13 590 -2 253 -6 472 -10 486 -4 17 -1 30 9 38 21 18 53 -2 60
-36 3 -16 4 -138 1 -273 -2 -135 0 -324 5 -420 5 -96 12 -247 16 -335 8 -231
28 -450 39 -449 6 1 22 4 36 8 32 7 63 -13 54 -36 -3 -9 -27 -21 -52 -28 l-45
-13 7 -76 c4 -42 10 -80 15 -85 5 -4 24 -3 44 4 29 9 40 9 51 0 34 -28 11 -52
-59 -65 l-38 -8 7 -81 c3 -44 11 -118 17 -164 5 -46 7 -86 4 -89 -3 -3 -1 -13
4 -23 8 -15 15 -16 55 -7 86 20 89 -31 5 -62 l-45 -17 2 -70 c4 -122 11 -151
38 -158 34 -9 33 -43 -1 -56 -23 -9 -25 -14 -19 -52 15 -112 24 -224 20 -242
-3 -12 -1 -27 4 -35 10 -16 10 -17 237 169 78 63 296 240 485 392 189 152 448
361 574 463 127 102 317 256 423 342 106 85 203 168 214 184 12 15 33 32 48
38 15 5 137 98 271 208 414 337 408 332 429 294 13 -26 7 -33 -210 -207 -102
-81 -282 -227 -400 -324 -118 -97 -307 -250 -420 -340 -113 -90 -322 -259
-465 -375 -143 -116 -375 -303 -515 -416 -140 -113 -318 -256 -395 -319 l-140
-113 205 7 c113 4 222 9 242 13 37 5 38 6 38 49 0 36 3 44 19 44 24 0 37 -17
46 -58 l7 -32 161 5 c88 3 163 8 165 10 3 3 -3 29 -12 59 -19 59 -16 76 13 76
24 0 35 -15 55 -76 l17 -51 52 -6 c29 -3 71 -2 93 2 23 4 67 6 98 3 62 -5 62
-5 45 63 -15 60 -5 97 24 93 18 -2 24 -14 37 -73 l16 -70 179 2 c99 1 231 5
293 8 l113 7 -6 42 c-5 32 -3 45 10 56 14 11 18 11 32 -2 8 -9 18 -31 22 -49
6 -32 10 -34 56 -40 55 -7 416 10 427 20 3 3 -2 38 -13 76 -21 79 -19 95 11
95 24 0 54 -58 65 -129 l7 -43 162 7 c88 5 172 7 185 7 12 -1 26 0 30 3 4 2 0
44 -10 92 -20 97 -17 123 11 123 26 0 36 -21 54 -120 9 -46 18 -86 21 -88 3
-3 80 0 172 6 93 6 210 11 262 12 52 1 97 3 101 5 3 2 75 6 160 9 85 3 205 8
265 10 61 3 191 8 290 11 99 3 266 9 370 14 105 4 206 7 225 7 19 0 240 7 490
14 531 16 518 16 533 1 16 -16 -2 -43 -35 -52 -13 -3 -162 -10 -329 -14 -400
-9 -501 -12 -704 -20 -170 -7 -224 -8 -640 -19 -121 -4 -236 -8 -255 -11 -19
-3 -114 -7 -210 -10 -96 -3 -240 -10 -320 -15 -80 -5 -188 -10 -240 -10 -103
0 -118 -5 -125 -38 -10 -53 -40 -57 -60 -8 l-14 34 -93 -4 c-240 -11 -280 -15
-274 -31 3 -8 6 -21 6 -29 0 -12 237 -14 1683 -14 l1682 0 42 138 c48 156 59
207 46 215 -5 3 -38 11 -73 16 -73 12 -101 32 -84 59 13 19 24 19 128 5 120
-17 129 -55 61 -278 -20 -66 -38 -128 -41 -137 -5 -17 257 -18 5405 -18 l5411
0 0 472 0 471 -502 -7 c-277 -3 -516 -9 -533 -12 -30 -5 -31 -8 -78 -178 -89
-324 -111 -512 -66 -585 25 -41 14 -60 -28 -45 -44 15 -57 55 -57 169 0 111
15 188 79 431 24 89 45 171 47 181 3 17 -12 18 -284 18 -249 0 -290 3 -304 16
-14 15 -14 18 2 33 14 15 37 17 168 15 234 -3 419 2 438 12 9 5 20 23 24 41
23 107 99 309 166 442 148 295 364 471 552 450 174 -19 266 -135 341 -427 l33
-132 1 6559 1 6559 -157 -8 c-87 -4 -198 -9 -248 -11 -49 -2 -144 -6 -210 -9
-121 -7 -185 -10 -375 -19 -58 -3 -168 -10 -245 -16 -77 -6 -214 -15 -305 -20
-91 -6 -170 -12 -177 -15 -6 -2 -13 -19 -15 -37 -4 -48 -37 -45 -62 5 -16 33
-22 37 -45 33 -30 -6 -111 -13 -268 -22 l-113 -7 0 -33 c0 -18 -5 -36 -10 -39
-19 -12 -48 6 -59 35 -7 22 -16 30 -33 30 -74 -1 -510 -29 -514 -33 -2 -2 1
-27 7 -56 13 -60 7 -81 -20 -81 -26 0 -46 31 -62 92 l-11 48 -82 -6 c-44 -3
-187 -11 -316 -18 -198 -10 -234 -14 -231 -26 14 -50 12 -70 -4 -76 -25 -10
-47 7 -68 51 l-19 38 -96 -6 c-53 -4 -123 -7 -154 -7 l-57 0 -3 -37 c-2 -31
-7 -39 -25 -41 -17 -3 -28 6 -44 33 l-22 36 -176 -6 c-97 -4 -182 -8 -189 -11
-10 -3 -10 -9 -2 -23 5 -11 10 -31 10 -45 0 -54 -75 -19 -95 45 -7 21 -10 21
-285 3 -341 -22 -412 -30 -426 -48 -7 -11 -12 -22 -9 -25 2 -4 13 -112 25
-241 46 -518 71 -791 85 -914 16 -136 13 -156 -26 -156 -10 0 -22 8 -27 18 -9
18 -29 155 -37 252 -2 30 -13 144 -24 252 -21 205 -33 353 -31 401 0 16 -4 45
-10 66 -6 21 -11 74 -11 117 -1 44 -4 99 -8 123 l-6 43 -385 -318 c-212 -176
-429 -356 -483 -401 -59 -50 -107 -83 -121 -83 -23 0 -46 17 -46 35 0 12 128
122 435 375 121 100 295 243 386 318 l166 137 -42 3 c-38 3 -185 -10 -792 -69
-122 -12 -229 -19 -237 -16 -19 7 -21 52 -4 63 7 4 33 9 58 10 82 5 293 25
470 45 187 22 315 34 473 45 60 4 101 12 103 19 3 6 -3 90 -13 186 l-18 174
-75 0 c-64 0 -75 3 -78 18 -6 29 17 47 59 47 21 0 48 4 62 9 l23 9 -12 114
c-7 62 -13 116 -13 120 -1 4 -13 8 -27 10 -15 2 -33 13 -42 26 -14 21 -13 23
22 37 34 14 45 36 36 70 -2 6 -5 30 -7 55 -2 25 -5 65 -8 90 -3 25 -9 83 -13
130 l-7 85 -60 5 c-56 5 -60 7 -63 32 -3 23 2 28 35 37 21 6 49 11 62 11 20 0
22 4 16 23 -4 12 -9 48 -12 80 -6 63 -8 65 -73 42 -49 -17 -80 -12 -80 14 0
24 27 46 75 61 58 18 62 26 54 122 -4 45 -11 135 -15 198 -7 117 -8 143 -18
333 -3 59 -8 120 -12 135 -3 15 -7 218 -9 452 -2 234 -7 444 -11 466 -6 38 -4
43 16 49 16 5 28 1 44 -14 20 -21 21 -30 23 -329 1 -302 15 -617 49 -1111 l17
-250 56 2 c54 2 56 1 56 -23 0 -21 -8 -28 -50 -42 -56 -18 -54 -10 -39 -145 6
-58 14 -63 73 -42 38 13 64 -2 59 -35 -2 -15 -15 -25 -48 -34 -25 -8 -51 -16
-58 -18 -15 -4 -11 -82 10 -239 6 -44 12 -99 12 -122 1 -23 5 -45 9 -49 4 -4
30 -2 58 5 43 11 53 11 65 -1 20 -20 8 -44 -29 -58 -82 -30 -82 -30 -80 -106
1 -38 5 -92 8 -121 6 -47 9 -52 36 -58 39 -9 41 -51 4 -65 -14 -5 -25 -11 -25
-14 0 -2 7 -66 15 -143 9 -76 13 -152 10 -169 -7 -41 17 -64 43 -42 9 8 124
103 255 211 130 109 342 284 470 390 213 178 487 404 1092 902 127 104 255
215 285 245 30 31 66 61 80 67 14 6 167 129 340 273 173 144 329 274 347 287
40 31 77 28 81 -7 3 -22 -34 -56 -295 -270 -163 -135 -356 -295 -428 -355 -71
-61 -229 -192 -350 -292 -355 -293 -1167 -965 -1469 -1216 -323 -268 -317
-246 -64 -228 82 6 182 11 222 11 102 0 104 1 98 61 -5 50 -5 51 23 47 30 -3
40 -16 50 -62 l6 -29 181 6 c100 4 184 9 187 12 2 3 -3 28 -13 55 -21 57 -18
93 7 98 28 6 44 -14 68 -85 l21 -65 161 5 c105 4 163 9 165 17 2 6 -2 33 -8
60 -16 66 -7 100 25 100 20 0 26 -7 35 -40 5 -22 15 -58 20 -79 10 -39 11 -39
70 -46 32 -4 64 -4 69 -1 6 4 50 7 98 7 48 0 133 4 188 9 85 8 187 17 231 19
8 1 9 12 4 36 -10 43 -3 72 17 79 24 9 40 -10 53 -63 l11 -48 82 3 c45 1 152
5 237 8 155 6 220 12 220 22 0 3 -9 42 -21 86 -22 87 -20 108 9 108 29 0 44
-24 68 -113 12 -45 26 -81 30 -80 5 1 61 4 124 7 63 3 154 9 203 12 99 7 95 1
72 104 -21 96 -20 140 4 140 34 0 46 -24 65 -124 12 -62 24 -100 33 -103 8 -3
199 6 426 21 227 14 613 36 859 48 l448 22 0 868 0 868 -25 6 c-36 9 -48 35
-29 62 8 12 24 22 35 22 18 0 19 10 19 311 l0 311 -57 -7 c-32 -4 -83 -9 -113
-10 -30 -2 -125 -10 -210 -18 -85 -9 -191 -18 -235 -22 -44 -3 -131 -13 -194
-22 -109 -15 -115 -15 -128 3 -20 27 -17 34 30 54 29 13 107 24 262 39 121 12
265 26 320 31 55 5 151 12 213 16 l112 7 0 1058 0 1059 -664 0 -663 0 -7 -112
c-11 -183 -77 -473 -132 -579 -12 -25 -11 -30 16 -64 50 -63 37 -95 -50 -122
-50 -16 -58 -24 -96 -83 -274 -429 -646 -693 -1121 -796 -59 -13 -129 -17
-288 -17 -183 0 -223 3 -309 22 -466 106 -827 382 -1070 816 -126 226 -206
543 -206 817 l0 118 -419 0 -419 0 -5 -57 c-2 -32 -19 -155 -36 -273 -17 -118
-33 -234 -36 -257 -5 -37 -10 -43 -29 -43 -37 0 -49 23 -43 83 3 28 19 144 36
257 16 112 29 206 27 207 -1 1 -18 -3 -38 -9 -46 -14 -84 4 -117 55 l-24 37
-472 0 c-283 0 -475 -4 -481 -9 -5 -6 -35 -17 -68 -25 -50 -13 -62 -14 -92 -1
-19 8 -34 19 -34 24 0 7 -68 11 -204 11 l-203 0 -6 -59 c-9 -79 -37 -152 -81
-206 l-36 -43 66 -7 c39 -5 88 -3 121 4 78 15 110 14 117 -5 10 -25 -11 -43
-73 -61 -46 -13 -83 -15 -205 -10 -100 4 -163 3 -192 -5 -39 -11 -47 -10 -71
8 -16 12 -29 30 -31 41 -6 38 27 50 146 52 14 1 44 21 76 54 58 58 86 121 86
194 l0 43 -1328 0 -1329 0 -13 -40 c-17 -52 -45 -78 -68 -63 -18 11 -20 30 -7
76 l7 27 -954 0 -954 0 -37 -38 c-20 -21 -37 -41 -37 -44 0 -4 15 -11 33 -17
56 -19 99 -72 105 -129 10 -105 -48 -148 -218 -165 -126 -12 -195 -4 -211 24
-21 40 3 49 125 49 185 0 266 38 222 104 -21 33 -46 46 -126 66 -57 14 -65 19
-68 42 -2 20 6 32 40 59 24 18 47 36 52 41 6 4 -1591 8 -3547 8 l-3557 0 0
-559z m10195 439 c65 -100 116 -150 153 -150 44 0 82 70 82 151 0 40 15 59 46
59 29 0 38 -28 29 -95 -3 -29 -1 -190 5 -356 11 -285 10 -304 -6 -316 -55 -40
-65 -1 -69 259 -2 119 -6 221 -9 226 -4 6 -21 7 -47 1 -57 -13 -96 2 -151 59
-42 42 -158 214 -158 233 0 16 31 38 46 32 9 -3 45 -50 79 -103z m3003 63 c6
-39 -36 -53 -280 -94 -290 -49 -430 -75 -533 -100 -79 -19 -80 -18 -100 1 -19
20 -19 20 2 41 28 28 78 39 492 109 195 33 357 62 360 65 3 3 17 5 31 3 17 -2
26 -10 28 -25z m-2020 -84 l-3 -32 -164 -39 c-144 -35 -166 -38 -178 -25 -29
28 -7 54 60 71 161 42 215 54 250 55 37 1 38 0 35 -30z m-3043 -19 c7 -21 -12
-57 -113 -215 -48 -73 -62 -103 -55 -115 5 -8 42 -37 81 -63 56 -38 72 -54 72
-73 0 -49 -83 -25 -168 48 -18 16 -38 26 -44 22 -5 -3 -30 -38 -55 -78 -74
-116 -108 -141 -132 -99 -11 21 -1 43 74 153 30 45 55 85 55 89 0 5 -36 50
-80 100 -44 50 -80 97 -80 104 0 24 28 41 50 31 11 -5 48 -42 83 -83 34 -41
67 -76 72 -78 6 -2 51 60 100 137 70 109 95 140 112 140 13 0 24 -8 28 -20z
m4648 -136 c59 -30 84 -63 103 -133 21 -82 34 -93 94 -85 50 7 75 -9 68 -43
-2 -14 -16 -19 -63 -23 l-60 -5 -3 -107 c-3 -116 -13 -139 -51 -119 -28 15
-34 44 -26 117 11 106 10 107 -105 99 -95 -7 -98 -7 -110 15 -10 18 -9 25 4
39 16 15 47 19 169 21 33 0 35 22 9 89 -20 51 -70 85 -114 76 -51 -12 -88 31
-56 63 17 17 104 15 141 -4z m-1522 -25 c8 -15 8 -24 0 -32 -18 -18 -116 -32
-228 -32 -108 0 -108 0 -108 24 0 19 7 27 33 33 26 7 144 19 269 27 13 0 27
-7 34 -20z m-1523 -36 c2 -16 -6 -28 -29 -42 -40 -25 -438 -157 -496 -165 -42
-6 -43 -6 -43 22 0 37 17 44 246 115 99 31 202 65 230 76 61 25 88 23 92 -6z
m-880 -119 c2 -11 -7 -29 -19 -40 -19 -17 -39 -19 -225 -22 -184 -3 -205 -1
-211 14 -3 9 -2 24 4 33 9 14 35 16 174 17 90 1 178 6 194 12 46 16 79 11 83
-14z m-1298 -9 c6 -8 10 -22 8 -31 -2 -14 -35 -22 -168 -45 -151 -26 -287 -56
-536 -119 -50 -13 -98 -20 -107 -17 -24 9 -21 44 6 61 40 26 358 100 642 150
105 19 140 19 155 1z m2007 -140 c14 -16 23 -39 23 -61 0 -46 -40 -123 -79
-152 -17 -12 -31 -26 -31 -30 0 -11 152 -62 202 -68 57 -7 73 -22 52 -52 -12
-18 -24 -22 -67 -21 -29 0 -66 5 -83 12 -16 7 -90 32 -163 56 -79 27 -136 51
-141 61 -15 29 11 50 70 59 89 12 151 56 167 119 8 33 -12 44 -65 37 -64 -9
-93 23 -55 61 14 13 29 15 82 11 55 -4 69 -9 88 -32z m-2457 -123 c-1 -15 -7
-56 -15 -92 -24 -107 -20 -137 17 -160 27 -16 35 -17 61 -7 39 16 67 69 68
132 2 90 10 110 44 110 l29 0 22 -133 c12 -74 29 -161 37 -195 24 -96 33 -207
17 -217 -37 -23 -62 22 -84 153 -23 135 -21 131 -66 101 -110 -73 -230 -13
-230 113 0 64 35 224 51 234 21 13 49 -9 49 -39z m11968 -258 c6 -10 5 -33 0
-58 -9 -38 -5 -296 7 -376 39 -280 54 -425 42 -432 -36 -23 -62 4 -70 74 -50
413 -59 512 -55 633 2 80 8 139 16 153 15 26 47 29 60 6z m-9996 -39 c8 -19
21 -25 57 -30 79 -10 96 -18 96 -45 0 -22 -5 -25 -44 -28 -23 -2 -73 1 -109 7
-36 6 -67 9 -69 7 -2 -1 13 -24 33 -49 44 -56 55 -117 30 -165 -20 -39 -44
-52 -94 -52 -42 0 -92 30 -92 55 0 22 30 34 64 24 43 -12 45 -12 57 15 10 21
6 32 -31 87 -24 35 -52 74 -62 86 -28 31 -20 66 17 73 17 4 44 14 60 23 44 24
73 21 87 -8z m-621 -174 c37 -36 39 -42 39 -98 0 -50 -5 -68 -35 -118 -20 -32
-34 -58 -33 -59 91 -34 160 -108 160 -170 0 -103 -176 -193 -247 -126 -15 14
-25 35 -25 52 0 23 4 28 25 28 14 0 33 -5 44 -11 27 -18 87 -3 110 27 19 24
19 28 5 55 -10 20 -34 38 -72 55 -31 15 -68 32 -82 38 -37 17 -36 42 3 89 83
101 99 161 51 192 -20 13 -36 15 -63 10 -69 -13 -76 -12 -79 17 -5 39 29 58
101 58 56 0 62 -3 98 -39z m2365 -366 c48 -58 91 -105 95 -105 8 0 43 41 147
170 17 20 24 23 39 14 35 -22 26 -49 -52 -149 -65 -82 -74 -99 -63 -112 7 -9
59 -54 115 -100 57 -47 103 -91 103 -99 0 -17 -38 -34 -60 -26 -19 7 -79 52
-156 119 -34 29 -64 53 -68 53 -4 0 -40 -30 -79 -66 -40 -36 -89 -74 -109 -85
-33 -17 -38 -17 -52 -3 -24 23 -20 33 26 73 23 20 68 60 100 90 l58 54 -20 27
c-10 14 -51 64 -89 110 -65 76 -83 115 -64 133 20 20 49 -2 129 -98z m2879 42
c17 -12 53 -36 80 -54 87 -57 95 -64 95 -82 0 -10 -7 -24 -15 -31 -19 -16 -39
-7 -143 68 -40 28 -79 52 -86 52 -26 0 -49 26 -42 48 12 37 58 37 111 -1z
m-6738 -215 c7 -5 15 -38 17 -78 7 -102 43 -342 62 -403 12 -41 13 -56 3 -67
-23 -28 -49 -16 -70 31 -22 49 -53 251 -64 407 -6 87 -5 97 12 107 22 13 25
13 40 3z m-688 -62 c73 -10 111 -39 142 -105 35 -75 23 -149 -39 -243 -29 -44
-33 -56 -21 -63 33 -21 169 -43 256 -42 69 0 93 -3 97 -13 27 -69 -120 -85
-320 -34 -87 22 -142 30 -206 30 -75 0 -91 3 -108 20 -24 24 -25 38 -4 69 16
22 21 23 99 17 l81 -7 38 37 c75 72 92 180 38 233 -55 56 -214 47 -272 -14
-29 -31 -47 -32 -61 -1 -23 49 22 89 122 111 79 17 80 17 158 5z m-3536 -79
c41 -37 78 -104 108 -199 18 -55 28 -74 44 -77 11 -2 310 -6 665 -9 355 -3
697 -9 760 -12 63 -3 252 -7 420 -8 360 -1 358 -1 422 -100 22 -34 129 -241
238 -461 110 -220 247 -483 306 -585 146 -254 312 -551 429 -765 215 -395 500
-852 565 -904 29 -23 40 -39 38 -54 -6 -45 -49 -33 -211 57 -83 47 -179 97
-212 112 -33 15 -76 37 -95 49 -19 12 -93 52 -165 90 -71 37 -186 100 -255
140 -69 39 -192 109 -275 155 -82 46 -294 165 -470 265 -176 100 -351 199
-390 220 -38 21 -144 79 -235 130 -91 51 -298 163 -460 250 -162 87 -401 214
-530 283 -129 69 -311 168 -404 219 -93 51 -170 92 -171 91 -1 -2 -17 -66 -35
-143 -59 -258 -139 -472 -193 -523 -21 -20 -29 -22 -46 -13 -12 7 -21 16 -21
22 0 5 17 44 39 87 54 108 105 263 146 443 19 85 35 157 35 161 0 9 -179 115
-380 225 -80 44 -260 144 -400 223 -140 79 -316 172 -390 207 -74 36 -141 68
-148 71 -7 4 -21 20 -30 35 -17 28 -16 29 7 48 24 19 35 20 280 14 141 -3 344
-7 451 -10 107 -2 288 -7 403 -11 180 -6 207 -5 207 8 0 27 -36 124 -64 171
-23 41 -31 47 -59 47 -52 0 -73 33 -41 64 26 26 79 20 117 -13z m5297 -9 c0
-19 -6 -33 -17 -37 -10 -5 -99 -11 -198 -15 -99 -4 -208 -13 -243 -19 -71 -14
-92 -6 -92 35 0 17 7 25 23 28 50 10 165 24 202 26 21 0 40 2 41 3 1 1 66 3
143 5 l141 3 0 -29z m2140 8 c16 -30 3 -60 -26 -60 -28 0 -39 19 -30 55 8 31
41 34 56 5z m-8622 -47 c22 -39 -31 -87 -205 -187 -46 -26 -83 -51 -83 -55 0
-17 30 -43 105 -89 62 -38 81 -55 83 -75 5 -44 -28 -43 -108 5 -134 80 -180
141 -149 197 9 15 56 49 112 81 53 30 121 74 150 97 56 46 81 53 95 26z m8015
-18 c137 -21 139 -21 135 -53 -4 -32 -9 -32 -208 -13 -143 13 -264 10 -506
-13 -308 -29 -488 -59 -587 -97 -58 -23 -83 -24 -91 -3 -9 22 10 51 44 69 54
28 264 73 375 80 28 2 86 9 130 15 231 32 546 39 708 15z m-4423 -25 c10 -5
34 -32 53 -59 20 -27 66 -81 102 -120 71 -74 80 -104 35 -109 -21 -2 -40 12
-95 70 -39 40 -86 92 -105 116 -33 41 -37 43 -64 32 -16 -6 -46 -24 -66 -40
-42 -33 -71 -38 -90 -15 -19 23 8 54 95 105 51 30 101 38 135 20z m2675 -125
l170 -3 3 -25 c6 -45 -22 -50 -213 -45 -176 6 -215 14 -215 46 0 30 22 44 55
36 17 -4 107 -8 200 -9z m1565 -210 c26 -14 30 -21 30 -60 l0 -44 53 2 c47 2
52 0 55 -20 4 -29 -27 -48 -113 -68 -86 -19 -196 -54 -213 -68 -7 -5 -12 -24
-10 -41 5 -89 -95 -157 -172 -116 -30 16 -52 72 -41 103 10 26 62 73 99 90 22
10 23 15 17 71 -7 76 15 118 78 146 53 25 174 27 217 5z m-838 -90 c7 -84 34
-203 59 -267 17 -43 17 -49 3 -63 -14 -14 -19 -14 -38 -2 -31 21 -46 58 -71
181 -15 73 -21 131 -17 169 4 56 6 58 31 55 25 -3 26 -7 33 -73z m7464 -579
c50 -7 100 -19 112 -25 25 -13 29 -49 7 -57 -8 -4 -73 2 -143 12 -106 16 -127
22 -130 37 -10 51 9 55 154 33z m-639 -26 c81 0 94 -2 103 -19 7 -15 6 -24 -6
-36 -13 -13 -38 -15 -143 -14 -138 2 -171 9 -171 37 0 33 21 44 75 38 28 -3
91 -6 142 -6z m-577 -60 c20 -20 18 -49 -4 -52 -6 0 -31 -2 -56 -3 -25 -1 -84
-6 -131 -10 -91 -8 -106 -2 -94 34 8 25 27 32 110 41 128 13 153 12 175 -10z
m-583 -47 c3 -7 -3 -23 -12 -33 -16 -18 -32 -20 -140 -20 -100 0 -125 3 -136
16 -9 11 -10 20 -2 32 8 14 33 18 129 22 133 6 153 3 161 -17z m1980 -316 c19
-56 37 -209 29 -240 -7 -30 -27 -35 -46 -12 -14 17 -50 207 -50 263 0 30 2 33
28 30 21 -2 30 -11 39 -41z m-5098 -113 c30 -32 33 -41 28 -78 -8 -54 -56 -99
-131 -121 -67 -20 -71 -37 -24 -90 53 -61 98 -78 197 -74 82 4 86 3 89 -18 5
-31 -36 -54 -106 -60 -112 -10 -220 47 -266 139 -14 29 -26 60 -26 70 0 10
-18 29 -39 44 -44 29 -55 47 -45 78 14 43 47 48 68 9 14 -26 15 -27 22 -8 34
95 52 120 99 141 47 22 95 10 134 -32z m-1021 -121 c5 -10 12 -61 16 -113 4
-52 9 -96 12 -99 2 -3 12 6 21 20 40 57 115 126 168 152 65 34 101 31 111 -9
8 -31 2 -37 -56 -53 -50 -14 -132 -90 -188 -175 -28 -43 -32 -58 -32 -116 0
-83 -16 -110 -54 -92 -30 14 -33 25 -40 162 -3 58 -9 151 -12 207 -4 55 -4
108 -1 117 8 21 44 20 55 -1z m-1738 -299 c34 -22 54 -48 83 -103 33 -65 37
-80 37 -148 0 -67 -4 -82 -36 -144 -31 -58 -46 -76 -95 -107 -32 -20 -59 -40
-59 -43 0 -10 133 -22 270 -25 153 -2 140 0 140 -24 0 -61 -155 -74 -414 -34
l-39 6 8 -48 c4 -27 15 -73 25 -102 19 -52 19 -53 -1 -73 -21 -21 -28 -23 -46
-11 -17 10 -27 43 -49 150 -16 82 -21 95 -45 107 -39 21 -44 44 -15 74 23 23
24 31 16 61 -5 19 -23 109 -40 199 -27 152 -29 167 -14 189 8 13 23 22 32 20
13 -2 23 -33 44 -143 15 -77 35 -172 43 -212 l16 -72 32 12 c18 6 55 34 83 61
51 52 74 106 74 173 0 65 -83 186 -137 199 -12 3 -38 1 -58 -6 -64 -21 -87 10
-42 58 19 21 29 23 82 20 47 -3 71 -11 105 -34z m2220 15 c16 -28 5 -66 -21
-74 -38 -12 -61 31 -43 79 9 23 51 20 64 -5z m5568 -78 c8 -4 17 -37 22 -72 4
-35 13 -83 19 -107 14 -50 9 -62 -24 -62 -37 0 -53 35 -60 136 -9 110 1 132
43 105z m-7069 -266 c67 -8 101 -29 101 -64 0 -10 -7 -24 -15 -31 -13 -11 -24
-9 -61 9 -46 24 -55 24 -219 9 -26 -3 -30 1 -33 24 -4 31 16 45 81 57 45 8 47
8 146 -4z m2295 -154 c10 -8 16 -25 14 -40 -2 -21 -8 -25 -28 -23 -14 1 -50 5
-81 8 -53 6 -361 -9 -844 -42 -290 -19 -395 -30 -485 -50 -112 -25 -124 -24
-128 8 -3 23 3 30 36 47 21 11 68 24 103 30 154 24 228 33 236 28 5 -3 27 -2
50 3 39 9 111 13 453 25 85 4 180 9 210 13 30 4 143 7 251 7 153 0 200 -3 213
-14z m4788 7 c13 -10 17 -37 20 -123 3 -107 2 -110 -19 -113 -36 -5 -55 37
-58 126 -4 110 14 143 57 110z m-6984 -57 c20 -12 10 -44 -18 -58 -15 -8 -60
-13 -110 -13 -47 0 -131 -3 -187 -6 -109 -7 -133 0 -133 38 0 25 6 27 140 37
157 11 292 12 308 2z m1516 -295 c18 -8 41 -24 50 -37 20 -29 21 -108 2 -153
-19 -47 -81 -112 -134 -143 -53 -31 -49 -35 70 -62 127 -30 250 -41 326 -28
52 8 65 8 73 -4 31 -50 -28 -79 -161 -79 -99 0 -278 34 -407 76 -43 15 -111
30 -151 34 -56 6 -79 13 -98 31 -31 29 -28 58 8 79 26 14 33 13 93 -8 70 -25
95 -24 171 9 50 21 119 81 140 120 8 16 14 41 14 57 0 24 -6 32 -31 42 -24 10
-36 11 -50 2 -23 -15 -56 -15 -64 -1 -12 18 4 55 27 67 32 15 83 14 122 -2z
m-3785 -150 c6 -7 25 -54 42 -102 38 -112 41 -185 8 -220 -31 -33 -142 -66
-210 -62 l-54 3 0 35 c0 33 2 35 35 36 59 1 134 15 158 30 30 19 28 50 -8 154
-35 97 -35 103 -14 124 19 20 28 20 43 2z m-3553 -860 c129 -14 157 -25 175
-68 10 -25 6 -38 -41 -130 -67 -131 -95 -175 -120 -188 -24 -13 -50 1 -50 26
0 7 29 65 65 127 36 63 65 121 65 130 0 19 -12 22 -144 37 -108 11 -126 20
-126 56 0 29 5 29 176 10z m12988 -93 c3 -10 8 -103 11 -207 6 -191 2 -216
-31 -216 -28 0 -36 45 -41 232 -5 157 -4 191 8 199 23 14 47 10 53 -8z m-372
-68 c4 -22 7 -70 7 -107 1 -77 -3 -75 109 -59 45 6 55 5 63 -10 5 -10 9 -23 9
-29 0 -18 -66 -40 -120 -40 l-50 0 0 -78 c0 -80 -9 -102 -42 -102 -27 0 -38
32 -38 109 l0 70 -57 6 c-74 8 -82 11 -90 31 -10 28 25 45 86 42 l55 -3 -3 93
c-3 100 6 125 43 120 16 -2 22 -13 28 -43z m-324 -58 c6 -29 -53 -140 -104
-196 l-45 -50 42 -27 c50 -31 139 -74 155 -74 18 0 35 -26 28 -43 -17 -45 -85
-32 -200 37 -88 53 -91 54 -150 49 -83 -8 -120 12 -129 67 -15 87 41 113 135
64 l49 -26 30 21 c27 19 42 41 115 159 21 33 32 42 49 40 12 -2 23 -11 25 -21z
m-5633 -211 c24 -37 10 -59 -35 -53 -20 2 -51 -1 -68 -8 -43 -19 -115 -87
-152 -146 -29 -45 -35 -49 -71 -49 -46 0 -45 5 17 101 69 105 171 178 251 179
34 0 46 -5 58 -24z m5063 -199 c4 -34 -12 -49 -201 -198 l-129 -101 29 -30
c15 -16 69 -60 118 -98 117 -88 135 -108 124 -137 -11 -30 -26 -29 -74 4 -52
35 -218 168 -235 188 -7 8 -18 15 -24 15 -6 0 -51 -29 -99 -64 -96 -71 -117
-81 -153 -72 -43 11 -29 42 39 87 34 23 83 58 110 76 l47 35 -50 55 c-52 57
-58 71 -38 91 22 22 42 12 93 -44 l50 -57 100 75 c55 41 136 105 180 142 44
36 87 65 95 64 8 -2 16 -16 18 -31z m-11710 0 c2 -11 -10 -41 -27 -69 -17 -27
-31 -51 -31 -52 0 -2 28 -20 62 -41 85 -53 101 -70 88 -95 -16 -29 -35 -25
-117 26 -41 25 -75 45 -77 43 -2 -2 -22 -32 -45 -67 -46 -69 -63 -81 -86 -62
-23 19 -18 48 14 89 47 60 56 82 38 93 -43 24 -78 62 -75 82 5 32 49 33 86 2
16 -15 35 -26 41 -26 6 0 25 23 42 51 26 42 36 50 58 47 16 -2 27 -10 29 -21z
m13637 -477 c4 -12 8 -87 10 -168 1 -81 3 -150 4 -153 0 -4 35 -6 76 -5 80 1
97 -8 88 -45 -6 -22 -25 -28 -103 -31 l-55 -3 0 -63 c0 -67 -11 -85 -50 -80
-17 3 -20 12 -23 71 l-3 67 -114 0 c-105 0 -115 2 -125 21 -19 35 -5 49 47 49
26 0 78 3 116 7 l67 6 0 161 c0 113 4 166 12 174 19 19 46 14 53 -8z m983 -80
c24 -15 32 -27 32 -49 0 -37 -20 -44 -56 -20 -72 47 -202 -1 -250 -93 -21 -41
-18 -101 8 -133 23 -30 121 -79 180 -90 39 -7 80 8 112 44 11 12 30 21 43 21
19 0 23 -5 23 -31 0 -23 -10 -42 -39 -70 -37 -37 -42 -39 -103 -39 -121 0
-254 61 -291 134 -27 51 -26 138 1 199 49 111 245 185 340 127z m-1508 -190
c14 -26 1 -45 -38 -54 -15 -4 -283 -11 -597 -16 -618 -10 -638 -11 -1337 -91
-152 -18 -190 -20 -203 -9 -17 14 -19 29 -6 48 9 15 114 31 356 56 83 9 188
20 235 26 301 36 404 41 848 42 249 0 485 3 525 7 173 15 205 14 217 -9z
m-987 -545 c13 -13 13 -20 1 -62 -9 -27 -16 -91 -17 -143 l-2 -95 95 -5 c77
-4 95 -8 98 -21 7 -35 -25 -49 -114 -49 l-84 0 0 -123 c0 -130 -5 -147 -46
-147 -30 0 -34 23 -28 155 4 85 2 114 -8 122 -7 6 -52 13 -100 17 -110 8 -140
19 -136 49 3 22 5 22 126 19 l122 -3 0 68 c0 88 25 204 47 221 22 16 28 15 46
-3z m-519 -51 c22 -8 20 -50 -5 -103 -34 -76 -131 -201 -192 -248 -32 -25 -56
-50 -54 -56 2 -6 33 -27 70 -46 49 -25 84 -36 133 -40 50 -4 70 -11 78 -24 9
-15 6 -22 -14 -39 -20 -16 -35 -19 -83 -16 -47 4 -81 16 -170 62 l-112 57 -47
-20 c-25 -12 -83 -26 -127 -32 -77 -10 -84 -10 -129 13 l-47 23 -3 153 -3 152
32 0 c36 0 78 -22 228 -123 117 -78 110 -78 199 -8 62 50 131 139 178 234 35
68 39 72 68 61z m1098 -114 c16 -35 25 -135 33 -402 4 -127 -4 -150 -44 -129
-26 15 -30 37 -37 246 -3 99 -7 182 -10 184 -2 3 -19 -10 -38 -28 -29 -28 -36
-30 -59 -22 -34 13 -34 25 1 65 15 18 42 54 60 80 40 58 68 60 94 6z m-11202
-42 l100 -42 0 -74 0 -73 -66 -31 c-152 -71 -260 -38 -293 89 -16 59 2 125 42
159 41 34 82 29 217 -28z m13195 -712 c28 -28 44 -82 54 -185 19 -195 -25
-501 -73 -501 -25 0 -25 12 0 115 34 136 42 319 20 435 -15 82 -31 110 -68
122 -19 7 -1 38 22 38 12 0 32 -11 45 -24z m-335 -46 c0 -14 -7 -20 -21 -20
-55 0 -151 -94 -199 -194 -59 -125 -91 -295 -63 -335 17 -25 11 -51 -11 -51
-49 0 -60 111 -25 251 38 152 115 278 207 339 55 36 112 42 112 10z m275 -81
c4 -5 -20 -36 -53 -67 -33 -31 -71 -80 -85 -108 -25 -50 -25 -50 -5 -63 19
-12 19 -13 2 -32 -9 -10 -23 -19 -30 -19 -7 0 -18 -19 -24 -42 -6 -24 -14 -56
-18 -73 -5 -21 -14 -30 -27 -30 -22 0 -24 16 -11 96 l8 46 -49 7 c-45 6 -49 4
-68 -21 -33 -48 -92 -103 -109 -103 -23 0 -20 37 4 52 11 7 32 30 47 51 25 36
25 38 8 57 -25 27 -7 49 27 33 21 -10 30 -4 93 58 44 43 103 86 160 118 91 51
119 59 130 40z m-1047 -258 c3 -188 -2 -216 -33 -191 -12 10 -15 35 -15 122 0
72 -3 107 -10 103 -6 -4 -29 -31 -51 -61 -39 -53 -90 -94 -116 -94 -24 0 -53
40 -53 73 0 71 71 137 147 137 41 0 44 2 68 51 18 35 31 49 43 47 15 -3 17
-23 20 -187z m192 99 c6 -56 29 -64 61 -21 23 32 43 39 54 21 4 -6 -3 -81 -14
-168 -11 -86 -23 -187 -26 -224 l-5 -68 82 0 c72 0 205 -9 533 -38 61 -5 80
-10 80 -22 0 -19 -129 -20 -365 -2 -91 6 -231 12 -311 12 -144 0 -147 0 -152
-22 -3 -13 -9 -97 -12 -188 -7 -168 -15 -201 -42 -178 -12 10 -14 30 -8 108
l7 95 -51 -71 c-61 -87 -93 -114 -137 -114 -42 0 -58 27 -51 83 9 64 87 133
166 146 26 5 38 14 53 43 10 20 20 49 21 65 2 25 -1 28 -28 27 -68 -1 -246
-15 -323 -25 -61 -8 -87 -8 -95 0 -37 37 78 56 461 77 123 6 133 8 129 25 -3
10 3 83 14 161 25 191 25 190 -5 182 -33 -8 -75 31 -83 78 -7 46 2 70 24 66
13 -2 19 -16 23 -48z m1466 -55 c4 -9 -1 -37 -10 -63 -37 -103 -37 -145 -1
-158 51 -20 105 51 105 138 0 46 17 74 42 66 15 -5 15 -435 0 -450 -6 -6 -16
-1 -26 13 -12 18 -16 47 -16 116 0 51 -3 93 -7 93 -5 0 -17 -7 -27 -15 -26
-20 -76 -19 -102 3 -51 41 -57 101 -19 186 14 31 25 63 25 71 0 20 29 19 36 0z
m-17768 -147 c19 -19 14 -47 -17 -99 -17 -26 -54 -102 -84 -168 -82 -181 -103
-213 -135 -209 -39 4 -39 36 -2 102 l32 56 -36 41 c-37 44 -109 202 -104 228
2 10 14 16 33 16 27 0 32 -6 63 -80 18 -44 37 -84 41 -88 5 -5 34 32 66 82 73
117 112 150 143 119z m14587 -273 c50 -41 95 -75 101 -75 6 0 47 34 92 76 45
41 86 73 92 69 26 -16 6 -51 -65 -119 l-74 -71 74 -65 c84 -74 107 -106 85
-120 -20 -12 -43 3 -132 82 l-76 69 -40 -26 c-47 -31 -95 -38 -100 -13 -2 11
12 25 42 43 25 15 46 31 46 35 0 5 -28 31 -62 58 -84 67 -112 98 -105 116 11
27 29 18 122 -59z m-743 -3 c-2 -29 -1 -79 3 -111 l7 -59 33 11 c75 23 89 -27
15 -53 l-44 -15 3 -45 c8 -98 7 -104 -13 -108 -31 -6 -46 26 -46 95 l0 64 -72
-6 c-81 -7 -117 6 -104 40 5 15 14 17 61 11 31 -3 66 -4 80 0 23 6 24 8 24
105 -1 103 9 133 40 127 13 -3 15 -14 13 -56z m3588 28 c0 -19 -7 -20 -120
-20 -113 0 -120 1 -120 20 0 19 7 20 120 20 113 0 120 -1 120 -20z m-3239 0
c10 -6 28 -29 40 -52 30 -58 22 -124 -20 -183 -17 -24 -31 -47 -31 -50 0 -8
104 -2 193 11 54 8 63 -8 26 -42 -19 -17 -38 -19 -198 -19 l-176 0 0 25 c0 19
6 25 32 31 48 9 98 52 123 104 24 50 22 78 -9 116 -16 19 -22 22 -32 12 -22
-22 -49 -16 -49 10 0 13 5 28 12 35 15 15 63 16 89 2z m3168 -74 c78 -1 101
-15 60 -37 -16 -8 -51 -10 -117 -5 -101 7 -132 17 -132 43 0 13 8 14 58 7 31
-4 90 -8 131 -8z m-3909 -31 c14 -16 6 -35 -16 -35 -8 0 -14 10 -14 25 0 28
12 32 30 10z m2975 -54 c19 -38 39 -72 43 -75 5 -3 33 19 61 50 42 45 55 53
66 44 19 -16 9 -33 -49 -90 -25 -24 -46 -48 -46 -52 0 -4 14 -23 31 -43 18
-20 29 -41 25 -50 -8 -23 -20 -18 -62 24 l-38 40 -27 -20 c-29 -20 -64 -25
-74 -10 -6 10 21 41 35 41 5 0 16 7 24 16 14 14 13 21 -19 81 -34 65 -42 93
-28 106 14 15 24 4 58 -62z m1595 -26 c0 -26 -40 -33 -217 -41 -130 -5 -172
-4 -178 5 -15 25 17 36 123 41 267 12 272 12 272 -5z m-70 -150 c-6 -7 -43
-14 -83 -17 -41 -3 -87 -12 -107 -23 -39 -20 -38 -21 48 -45 45 -12 82 -41 82
-64 0 -8 -9 -24 -19 -37 -36 -45 -151 -23 -151 29 0 11 7 13 28 8 71 -18 82
-18 82 -3 0 10 -17 19 -52 27 -29 6 -63 17 -75 26 -28 18 -30 55 -3 79 11 10
20 24 20 31 0 10 27 14 108 16 109 3 141 -4 122 -27z m-4410 -45 c0 -24 -51
-52 -88 -48 -21 2 -28 9 -30 30 -3 23 1 27 30 31 78 9 88 8 88 -13z m1585
-175 c0 -15 -7 -20 -25 -21 -14 0 -41 -3 -60 -7 -62 -12 -796 -111 -975 -132
-226 -26 -324 -35 -465 -41 -91 -4 -167 -6 -170 -5 -3 0 -5 12 -5 26 0 25 1
26 95 31 217 10 826 80 1345 153 72 11 159 18 195 17 58 -1 65 -3 65 -21z
m-814 -202 c0 -5 2 -51 3 -103 2 -52 6 -110 10 -127 l8 -33 30 16 c55 29 156
-2 177 -55 14 -33 7 -53 -31 -88 -68 -63 -298 -72 -298 -12 0 27 12 30 74 18
50 -9 66 -7 121 11 99 33 106 62 20 75 -37 6 -41 4 -57 -25 -39 -69 -75 -46
-94 62 -14 76 -18 225 -8 252 6 16 43 23 45 9z m-10965 -36 c4 -12 10 -51 13
-87 l6 -65 71 -3 c57 -2 75 -7 90 -23 18 -20 18 -21 -5 -40 -17 -14 -39 -19
-83 -19 l-60 0 6 -32 c3 -18 11 -71 16 -118 6 -47 13 -93 16 -102 8 -28 -5
-58 -26 -58 -33 0 -48 40 -66 174 l-17 128 -56 -7 c-31 -5 -74 -9 -96 -9 -34
-1 -40 2 -43 22 -4 28 36 47 122 57 l59 8 -6 88 c-6 71 -4 91 8 103 19 19 42
11 51 -17z m764 -26 c12 -24 14 -141 1 -141 -4 0 -23 29 -41 65 -27 53 -31 67
-20 80 17 21 47 19 60 -4z m-1294 -36 c28 -19 65 -53 83 -75 75 -94 172 -333
211 -525 24 -115 25 -168 5 -253 -19 -78 -40 -112 -71 -112 -35 0 -39 36 -14
101 19 46 21 66 16 139 -7 110 -36 226 -92 375 -55 145 -89 206 -145 263 -43
43 -47 45 -108 46 -48 1 -64 30 -32 57 37 30 88 25 147 -16z m11013 -29 c7 -8
20 -43 30 -77 21 -77 29 -80 186 -78 97 1 110 -1 113 -16 7 -32 -14 -37 -141
-36 l-124 1 15 -66 c13 -60 13 -67 -2 -82 -16 -16 -18 -16 -31 1 -7 10 -16 35
-20 55 -17 99 -23 109 -63 117 -43 8 -62 21 -62 42 0 12 10 14 40 11 45 -4 44
-7 29 60 -16 69 0 104 30 68z m-299 -61 c16 -19 1 -59 -46 -118 -19 -23 -34
-46 -34 -50 0 -5 34 -24 75 -43 56 -26 75 -40 75 -54 0 -29 -43 -26 -117 10
l-63 29 0 60 c0 33 5 63 10 66 6 4 25 31 41 61 33 58 40 62 59 39z m-9668 -11
c25 -8 53 -23 62 -33 31 -34 50 -273 26 -337 -39 -102 -204 -171 -265 -109
-29 28 -31 42 -9 73 19 28 38 28 56 1 11 -18 20 -20 46 -14 82 18 120 93 105
208 l-8 66 -63 -53 c-67 -57 -112 -73 -155 -57 -37 14 -57 49 -57 101 0 62 34
110 102 144 60 30 96 32 160 10z m-2594 -42 c3 -16 -9 -35 -37 -63 -81 -82
-126 -267 -130 -538 -3 -195 39 -404 94 -470 31 -36 31 -46 1 -66 -35 -23 -50
-11 -84 63 -67 149 -84 245 -84 462 1 259 31 429 94 535 53 89 138 134 146 77z
m2852 -177 c0 -39 -4 -46 -29 -60 -17 -8 -37 -12 -45 -9 -18 7 -30 39 -21 54
7 12 76 59 88 59 4 1 7 -19 7 -44z m-1516 -210 c38 -58 73 -108 78 -111 12 -8
57 35 110 104 47 61 81 68 86 19 3 -23 -8 -42 -55 -95 -95 -109 -91 -94 -36
-153 26 -29 63 -58 81 -66 39 -16 43 -48 8 -64 -38 -18 -68 -4 -130 61 -32 33
-61 60 -66 60 -4 0 -31 -16 -60 -35 -55 -37 -108 -46 -129 -21 -18 22 -4 40
54 64 63 28 94 57 80 76 -38 49 -135 200 -140 217 -8 23 10 49 34 49 11 0 43
-40 85 -105z m-999 5 c22 -24 14 -48 -20 -55 -14 -3 -35 -7 -47 -10 -13 -2
-32 -11 -43 -19 -19 -14 -18 -17 46 -83 90 -93 103 -115 96 -160 -12 -73 -91
-123 -203 -131 -65 -4 -73 -2 -83 16 -11 21 -7 46 12 70 8 10 15 9 34 -3 22
-15 29 -15 77 -1 52 15 86 41 86 65 0 7 -29 43 -64 79 -70 74 -86 99 -86 136
0 38 45 84 98 100 64 20 76 19 97 -4z m273 -24 c5 -25 -12 -39 -36 -32 -20 7
-35 39 -24 51 13 13 57 -1 60 -19z m-1842 -11 c4 -17 -1 -33 -15 -51 -12 -15
-21 -36 -21 -48 1 -33 36 -103 58 -115 44 -23 74 -13 129 44 55 57 86 68 101
38 15 -29 22 -231 12 -329 -16 -155 -47 -211 -145 -262 -68 -35 -195 -44 -226
-16 -32 29 -41 51 -29 74 14 26 40 25 75 -1 26 -21 28 -22 88 -5 131 37 158
84 165 289 l5 137 -58 -30 c-67 -35 -85 -37 -139 -10 -97 46 -138 204 -75 284
27 34 66 35 75 1z m2065 -48 c-3 -47 -2 -49 21 -40 36 13 110 8 145 -11 52
-26 103 -84 134 -150 24 -51 29 -74 29 -137 0 -81 -11 -104 -47 -97 -15 3 -19
16 -23 78 -3 41 -12 89 -20 105 -60 127 -156 180 -217 119 -24 -24 -25 -29
-18 -98 7 -80 -5 -104 -45 -91 -35 11 -40 38 -37 184 4 154 17 195 60 189 19
-3 21 -8 18 -51z m15353 -32 c35 -17 66 -61 66 -95 0 -58 -54 -112 -137 -136
-67 -20 -69 -39 -9 -99 53 -53 99 -67 199 -63 68 3 72 2 75 -19 7 -51 -110
-78 -211 -49 -79 23 -152 92 -177 166 -13 40 -27 61 -51 78 -43 29 -53 51 -40
85 14 36 46 36 65 0 13 -26 15 -27 21 -8 28 85 57 125 105 144 36 14 58 13 94
-4z m-15671 -30 c17 -17 26 -71 37 -225 8 -116 4 -140 -26 -140 -30 0 -42 46
-53 203 -6 87 -9 162 -6 167 9 14 31 12 48 -5z m-934 -74 c21 -38 -5 -49 -124
-54 -60 -3 -120 -7 -133 -10 -27 -7 -65 25 -56 48 10 24 60 33 186 34 105 1
118 -1 127 -18z m15619 -43 c7 -7 12 -37 13 -67 0 -31 4 -78 7 -106 l7 -50 23
30 c106 138 239 211 276 153 16 -27 -2 -48 -61 -70 -56 -20 -131 -93 -185
-177 -24 -38 -28 -55 -28 -112 0 -76 -17 -107 -49 -90 -34 19 -39 37 -44 178
-3 78 -9 148 -13 155 -8 13 -7 145 2 159 8 13 38 11 52 -3z m-15733 -77 c33 0
80 4 105 9 71 13 107 -20 58 -54 -18 -13 -51 -16 -153 -16 -138 0 -155 5 -155
45 0 31 6 34 48 24 20 -5 64 -8 97 -8z m13972 -213 c130 -73 183 -260 114
-396 -31 -60 -74 -107 -128 -137 -18 -10 -30 -22 -28 -26 6 -9 193 -23 310
-24 83 0 90 -2 93 -21 6 -41 -22 -49 -162 -49 -72 0 -166 4 -210 8 l-78 9 7
-44 c3 -23 13 -64 21 -90 22 -68 16 -92 -23 -96 -36 -4 -39 2 -69 156 -12 57
-22 86 -35 92 -23 13 -49 39 -49 50 0 5 11 20 25 32 22 21 24 27 15 58 -19 71
-60 311 -60 354 0 37 4 46 21 51 12 4 25 3 30 -2 5 -5 22 -83 39 -173 37 -198
48 -240 61 -240 22 0 88 41 113 71 40 47 57 86 63 143 7 63 -22 131 -80 189
-38 38 -41 39 -86 33 -84 -13 -86 -12 -89 11 -4 24 25 54 61 64 44 12 73 6
124 -23z m2237 10 c21 -30 20 -51 -3 -72 -29 -26 -61 -6 -61 37 0 56 36 75 64
35z m-12980 -89 c76 -35 52 -170 -50 -276 -51 -53 -51 -66 -8 -140 29 -50 52
-64 97 -61 40 2 57 -7 57 -31 0 -26 -23 -42 -69 -48 -71 -10 -131 43 -177 156
-19 46 -28 57 -53 64 -37 9 -40 31 -7 52 18 12 26 31 35 78 17 88 55 162 99
192 42 29 43 29 76 14z m-1354 -244 l5 -90 44 -5 c80 -9 80 -70 0 -70 l-39 0
0 -79 c0 -95 -5 -111 -35 -111 -36 0 -47 22 -41 86 9 92 3 103 -57 106 -42 2
-53 7 -55 22 -6 27 24 46 70 46 l38 0 0 76 c0 87 11 117 43 112 20 -3 22 -10
27 -93z m-496 26 c112 -90 202 -285 241 -526 19 -116 19 -348 0 -457 -24 -138
-81 -289 -118 -312 -13 -8 -21 -7 -34 6 -16 16 -14 26 30 155 81 245 83 493 6
768 -41 145 -88 234 -156 293 -32 28 -53 55 -53 68 0 44 33 46 84 5z m1426
-16 c19 -23 4 -49 -65 -114 l-64 -60 27 -28 c15 -16 42 -38 60 -48 50 -30 36
-65 -27 -65 -28 0 -42 8 -76 46 l-42 46 -50 -18 c-61 -21 -86 -14 -81 23 2 19
11 29 35 37 47 16 48 21 15 68 -49 72 -55 87 -41 104 24 29 53 16 84 -39 17
-28 39 -53 48 -55 11 -2 42 20 80 57 66 64 77 70 97 46z m11903 -26 c51 -7 77
-16 90 -31 21 -25 22 -51 2 -68 -13 -11 -22 -10 -54 8 -46 26 -131 33 -190 16
-49 -14 -71 -6 -71 26 0 25 21 39 71 49 62 12 71 12 152 0z m-12389 -20 c14
-7 27 -18 31 -27 7 -18 -3 -52 -15 -52 -5 0 4 -13 20 -28 65 -65 67 -233 3
-304 -24 -28 -91 -58 -128 -58 -43 0 -75 25 -75 60 0 38 14 45 61 30 36 -12
42 -11 67 7 34 25 55 86 47 138 -10 68 -16 73 -73 52 -102 -36 -181 -8 -182
64 -1 79 159 156 244 118z m14664 -125 c23 -5 34 -13 38 -30 10 -39 -10 -54
-54 -42 -23 7 -93 8 -187 4 -214 -9 -818 -45 -960 -56 -127 -11 -289 -37 -317
-51 -44 -23 -68 38 -25 65 52 33 126 45 442 71 393 33 977 54 1063 39z
m-18073 -44 c4 -6 8 -37 10 -69 4 -80 48 -165 88 -169 35 -4 78 27 117 84 34
48 65 57 92 27 13 -15 17 -61 21 -268 3 -137 8 -261 12 -275 4 -15 1 -32 -8
-44 -11 -15 -17 -17 -35 -7 -39 21 -43 47 -49 262 l-6 209 -35 -26 c-69 -53
-148 -49 -200 10 -61 69 -91 205 -56 254 16 23 39 29 49 12z m1223 -17 c3 -17
-6 -28 -32 -44 -69 -40 -104 -139 -113 -319 -7 -124 6 -194 49 -280 34 -69 32
-93 -9 -88 -33 4 -64 52 -94 151 -42 134 -11 450 52 539 47 65 140 91 147 41z
m14676 1 c28 -11 19 -44 -16 -58 -45 -18 -396 -30 -415 -15 -16 14 -17 48 0
54 39 15 401 30 431 19z m-14129 -179 c0 -11 -12 -26 -28 -35 -27 -14 -29 -14
-47 8 -29 35 -16 54 34 50 33 -2 41 -7 41 -23z m588 -9 c8 -8 27 -51 43 -95
16 -45 32 -81 35 -81 12 0 99 121 105 146 8 31 59 34 69 4 8 -26 -33 -101 -91
-168 -24 -28 -44 -58 -44 -68 0 -10 23 -53 51 -95 43 -66 49 -81 39 -98 -6
-12 -14 -21 -19 -21 -19 0 -61 43 -97 100 -38 58 -41 60 -81 60 -39 0 -43 2
-43 25 0 14 8 29 20 35 26 14 25 34 -5 107 -33 82 -42 142 -24 154 19 12 25
11 42 -5z m-834 -34 c17 -31 -5 -52 -54 -52 -24 0 -47 -5 -50 -11 -4 -5 14
-32 39 -59 77 -82 72 -130 -18 -175 -54 -27 -133 -34 -154 -13 -16 16 -15 53
2 71 12 12 23 12 55 4 40 -11 91 1 91 21 0 5 -23 35 -51 67 -64 73 -65 108 -4
142 51 29 130 32 144 5z m-803 -48 c27 -5 38 -32 23 -50 -12 -15 -104 -18
-194 -6 -38 5 -51 11 -53 26 -7 36 24 46 117 40 47 -3 96 -7 107 -10z m16704
-29 c42 -22 60 -53 60 -106 0 -88 -45 -157 -144 -221 -32 -21 -56 -38 -53 -38
3 0 53 -12 109 -27 90 -24 122 -27 258 -28 l155 0 0 -25 c0 -42 -43 -55 -170
-54 -121 2 -253 26 -409 74 -54 16 -120 30 -146 30 -52 0 -112 32 -118 64 -5
26 27 56 59 56 16 0 51 -9 80 -20 48 -19 55 -20 103 -6 70 21 139 67 176 117
58 81 27 150 -54 121 -18 -7 -41 -10 -50 -6 -23 9 -20 50 6 68 28 20 100 21
138 1z m-15732 -22 c4 -10 5 -76 2 -148 -5 -122 -6 -130 -26 -133 -11 -2 -25
3 -31 10 -16 20 -25 262 -11 276 18 18 56 14 66 -5z m325 -7 c58 -54 122 -250
98 -302 -23 -51 -63 -15 -75 66 -11 74 -35 135 -65 164 l-28 27 -22 -27 c-25
-32 -28 -92 -5 -136 14 -27 14 -32 1 -45 -19 -19 -53 -9 -72 21 -20 30 -21
132 -2 177 23 55 54 79 102 79 30 0 49 -7 68 -24z m-1300 -79 l108 3 -3 -33
-3 -32 -80 -7 c-96 -8 -222 5 -242 25 -10 9 -13 23 -8 36 6 21 11 22 63 14 32
-4 106 -7 165 -6z m10112 -481 c129 -49 388 -137 545 -184 36 -11 69 -17 73
-13 4 5 1 51 -7 104 -23 143 -23 147 19 147 19 0 35 -1 35 -2 1 -2 7 -39 15
-83 8 -44 15 -115 15 -158 0 -75 -1 -78 -27 -88 -46 -18 -208 28 -608 171
-104 38 -200 71 -213 75 -20 6 -26 -1 -56 -67 -48 -106 -156 -430 -156 -470 0
-19 -5 -39 -12 -46 -20 -20 -57 -14 -69 12 -17 36 82 348 188 593 3 8 -23 21
-74 37 l-78 24 135 1 135 1 140 -54z m1179 3 c-7 -49 -6 -51 14 -45 27 9 107
-25 120 -51 34 -64 18 -143 -38 -183 -38 -27 -171 -60 -243 -60 -48 0 -62 4
-82 25 -27 26 -29 33 -16 54 7 10 23 13 63 8 l54 -5 2 44 c1 25 6 52 10 62 5
9 18 59 28 110 l18 92 38 0 39 0 -7 -51z m4157 -472 c73 -49 112 -227 113
-512 0 -188 -8 -263 -51 -455 -32 -145 -45 -172 -81 -168 -34 4 -34 26 1 163
46 177 51 229 52 470 0 181 -4 245 -17 303 -23 98 -37 124 -81 147 -35 19 -49
50 -30 68 14 14 61 6 94 -16z m-537 -63 c33 -32 11 -64 -45 -64 -82 0 -220
-133 -299 -287 -65 -128 -128 -355 -134 -480 -2 -55 1 -71 21 -100 32 -47 27
-68 -16 -68 -54 0 -75 37 -79 139 -9 198 94 502 229 681 105 138 272 231 323
179z m-5570 -68 c73 -30 87 -108 36 -189 -16 -26 -30 -49 -30 -51 0 -2 11 -7
24 -10 14 -3 41 -21 60 -40 30 -28 36 -40 36 -76 0 -38 -5 -49 -43 -85 -76
-72 -192 -111 -247 -83 -54 29 -32 82 31 72 69 -11 208 76 179 111 -5 6 -29
20 -52 29 -107 44 -108 45 -108 69 0 16 14 35 41 56 22 18 48 48 56 67 15 31
15 35 -2 54 -20 22 -45 26 -62 9 -6 -6 -21 -9 -34 -7 -58 8 -14 88 48 88 19 0
49 -6 67 -14z m6020 -87 c20 -29 11 -45 -40 -75 -61 -36 -132 -119 -182 -212
-23 -44 -42 -82 -42 -85 0 -2 11 -8 24 -11 29 -7 43 -41 26 -61 -7 -8 -29 -20
-50 -26 -36 -11 -39 -15 -54 -73 -8 -33 -18 -85 -22 -114 -6 -44 -10 -53 -31
-58 -16 -4 -30 -1 -41 9 -14 15 -14 23 1 99 9 46 20 92 23 104 5 19 0 22 -55
27 -34 4 -72 9 -85 13 -19 4 -31 -6 -80 -71 -91 -121 -177 -169 -184 -103 -3
23 3 32 32 49 33 19 126 130 126 149 0 5 -9 12 -20 15 -24 8 -42 38 -34 59 9
23 35 28 60 11 13 -8 31 -15 39 -15 9 0 50 35 90 78 41 44 99 98 129 121 54
42 320 189 343 190 6 1 19 -9 27 -20z m-1725 -123 c8 -10 12 -102 13 -312 1
-263 -1 -299 -15 -308 -12 -8 -21 -5 -36 8 -19 17 -21 32 -23 208 l-3 190 -85
-113 c-106 -141 -161 -181 -225 -165 -14 4 -34 21 -45 39 -42 68 -14 165 67
236 55 49 100 65 164 59 58 -6 66 1 108 94 35 76 56 93 80 64z m-3284 -111 c0
-92 4 -118 22 -157 12 -27 26 -48 31 -48 6 0 34 18 63 40 70 52 89 44 89 -39
0 -31 -5 -83 -11 -115 -5 -31 -23 -152 -39 -268 -16 -116 -33 -215 -38 -220
-16 -16 -52 2 -58 29 -4 14 0 69 9 122 9 53 23 148 32 211 8 63 18 129 21 147
l5 32 -51 -6 c-44 -5 -54 -3 -76 18 -53 49 -76 130 -75 252 2 90 15 119 51
115 25 -3 25 -3 25 -113z m3606 -10 c7 -73 15 -92 41 -101 22 -7 59 22 86 69
18 29 52 36 71 14 8 -10 2 -80 -24 -273 -20 -142 -38 -302 -42 -354 -3 -52
-10 -103 -15 -112 -8 -17 2 -18 149 -18 157 0 310 -10 472 -29 46 -6 180 -16
298 -23 185 -10 216 -14 224 -29 6 -13 4 -22 -8 -34 -14 -15 -34 -16 -162 -10
-80 4 -184 10 -231 15 -162 17 -546 35 -743 35 -164 0 -199 -3 -207 -15 -15
-24 -20 -98 -28 -362 -6 -214 -9 -250 -24 -265 -16 -16 -19 -16 -38 2 -21 19
-21 25 -14 174 5 114 4 152 -5 147 -6 -4 -11 -11 -11 -16 0 -17 -96 -146 -156
-210 l-61 -64 -58 -1 c-51 0 -60 3 -78 27 -30 40 -27 114 6 171 55 94 179 177
265 177 37 0 45 4 62 33 27 43 64 163 56 184 -6 14 -16 15 -74 8 -37 -4 -89
-9 -117 -10 -27 -2 -88 -6 -135 -10 -47 -4 -96 -7 -110 -7 -14 -1 -69 -7 -122
-14 -127 -18 -177 -18 -184 0 -12 30 14 53 73 64 106 21 663 62 835 62 l76 0
-10 28 c-9 23 -4 84 20 278 42 326 43 302 -16 296 -41 -3 -52 0 -79 22 -35 30
-52 71 -54 131 -3 64 8 87 39 83 25 -3 27 -7 33 -63z m-9965 14 c41 -25 54
-47 54 -89 0 -46 -26 -93 -74 -138 l-43 -39 54 -27 c65 -32 93 -73 93 -138 0
-55 -32 -100 -88 -124 -74 -30 -316 -38 -334 -10 -12 18 -9 56 5 57 6 1 66 2
132 4 123 1 175 14 203 48 28 33 -15 90 -80 107 -21 6 -56 15 -78 20 -70 19
-54 56 62 141 26 19 55 49 65 67 18 33 18 34 -6 53 -30 25 -63 24 -86 -1 -20
-23 -45 -26 -63 -8 -27 27 -7 75 38 91 37 14 114 6 146 -14z m4648 -22 c63
-35 91 -100 91 -207 0 -72 -4 -93 -28 -140 -15 -30 -41 -71 -58 -90 l-31 -35
73 -3 c41 -2 104 2 141 9 54 10 70 10 83 -1 26 -22 17 -40 -32 -63 -44 -20
-65 -22 -248 -24 -110 -1 -208 -2 -218 -3 -27 -2 -67 27 -67 49 0 32 32 49
101 53 86 5 134 41 180 133 47 95 41 208 -13 252 -25 21 -64 25 -77 9 -31 -38
-83 -5 -63 40 22 47 102 58 166 21z m-2606 -39 c16 -16 15 -53 -2 -68 -8 -6
-27 -42 -41 -80 -31 -81 -45 -96 -74 -80 -12 6 -21 16 -21 22 0 21 63 183 78
201 17 20 43 22 60 5z m10330 -51 c15 -17 -1 -94 -38 -176 -16 -38 -30 -83
-30 -101 0 -38 24 -86 49 -100 83 -44 167 61 180 225 7 92 21 118 60 113 25
-3 26 -5 25 -73 -3 -436 -4 -605 -1 -630 2 -27 -1 -30 -28 -30 -47 0 -56 31
-56 202 -1 81 -3 151 -6 156 -2 4 -16 -2 -30 -13 -33 -26 -98 -43 -132 -35
-46 11 -99 55 -115 96 -27 67 -21 128 24 235 22 53 40 104 40 113 0 10 3 21 7
24 11 11 40 8 51 -6z m-9441 -109 c12 -13 38 -50 58 -83 45 -72 90 -121 129
-142 26 -14 31 -13 55 4 31 23 50 72 50 129 1 50 32 85 59 67 15 -9 17 -31 18
-164 1 -85 3 -255 5 -379 l4 -225 -27 -3 c-41 -5 -50 29 -53 208 -1 85 -3 185
-4 222 l-1 67 -62 -5 c-59 -6 -65 -4 -101 24 -47 38 -113 120 -160 198 -41 68
-42 75 -25 92 18 18 32 15 55 -10z m3057 -4 c18 -18 8 -47 -22 -63 -9 -5 -141
-30 -292 -55 -151 -25 -344 -60 -427 -78 -125 -25 -155 -29 -168 -18 -21 18
-19 37 8 54 27 18 190 51 544 111 150 25 283 50 295 55 33 13 45 12 62 -6z
m-2007 -94 c2 -8 -1 -21 -5 -28 -9 -13 -284 -81 -329 -82 -25 0 -41 36 -24 53
7 7 69 26 139 44 136 34 215 39 219 13z m-3047 -36 c0 -18 -56 -116 -129 -224
-28 -41 -51 -80 -51 -86 0 -14 46 -50 113 -89 40 -23 48 -32 45 -54 -2 -15
-10 -27 -21 -29 -24 -5 -95 31 -144 73 l-41 35 -43 -68 c-66 -102 -92 -132
-114 -132 -27 0 -45 18 -37 39 3 9 34 58 69 109 35 51 63 99 63 106 0 6 -36
52 -80 101 -44 50 -80 95 -80 102 0 18 29 43 44 37 7 -3 46 -41 85 -85 40 -43
76 -79 80 -79 5 0 46 57 92 127 46 69 90 132 97 140 16 16 52 0 52 -23z m4665
-138 c43 -22 73 -72 97 -156 l13 -45 62 -3 c52 -2 63 -6 68 -23 11 -33 -12
-49 -71 -49 l-53 0 -3 -112 c-3 -108 -4 -113 -25 -116 -39 -6 -56 36 -49 120
4 43 3 79 -3 88 -8 12 -32 15 -108 15 l-98 0 -3 26 c-4 35 14 41 116 40 l82
-1 -1 27 c-2 83 -58 143 -133 143 -52 0 -69 11 -64 41 2 20 10 25 48 30 54 7
73 3 125 -25z m-1543 -12 c10 -22 10 -28 -6 -39 -21 -16 -102 -25 -230 -28
-76 -2 -90 1 -100 16 -16 26 13 45 78 51 28 3 87 9 131 14 44 5 88 10 98 10
10 1 22 -9 29 -24z m-1524 -41 c3 -18 -6 -27 -45 -46 -68 -34 -416 -147 -474
-154 -48 -6 -49 -5 -49 20 0 35 17 43 236 110 99 31 202 65 230 76 62 26 98
24 102 -6z m-879 -107 c18 -22 -18 -57 -69 -67 -51 -9 -223 -10 -320 0 -61 6
-65 8 -65 31 l0 25 187 5 c103 3 190 9 194 13 12 12 61 8 73 -7z m-1308 -6
c20 -11 26 -45 10 -54 -5 -3 -75 -17 -157 -31 -81 -14 -257 -52 -391 -86 -195
-49 -247 -58 -258 -49 -17 14 -19 29 -6 48 15 25 335 104 611 152 91 16 166
29 168 29 2 1 12 -4 23 -9z m11460 -80 c22 -13 26 -55 4 -63 -8 -4 -93 -6
-189 -6 -167 -1 -176 0 -186 20 -23 42 -1 48 169 52 86 1 162 4 169 5 7 1 22
-3 33 -8z m-9495 -41 c25 -6 51 -21 59 -32 36 -51 2 -166 -62 -209 -18 -13
-33 -27 -33 -33 0 -12 169 -64 219 -67 48 -4 64 -33 32 -59 -32 -26 -78 -24
-164 7 -39 14 -117 41 -171 58 -55 18 -104 40 -110 49 -19 29 5 51 62 58 28 4
68 16 89 26 44 23 85 78 81 108 -3 17 -12 21 -68 25 -73 6 -87 23 -51 59 24
24 52 26 117 10z m9194 -101 c25 -6 108 -11 185 -12 138 -1 140 -1 143 -24 7
-48 -112 -65 -285 -41 -118 16 -161 37 -147 73 7 19 40 20 104 4z m-11602 -42
c2 -17 -4 -66 -13 -110 -21 -99 -18 -123 17 -149 22 -17 33 -19 54 -11 47 16
66 54 77 153 9 75 14 92 29 97 31 9 46 -13 58 -89 6 -40 22 -126 35 -192 36
-186 46 -255 40 -265 -10 -16 -41 -12 -57 8 -16 17 -40 112 -53 204 -3 26 -10
50 -15 53 -5 3 -25 -6 -46 -20 -28 -19 -50 -25 -92 -25 -50 0 -58 3 -93 39
-37 36 -39 42 -39 99 0 56 29 207 45 232 4 6 17 10 28 8 16 -2 23 -11 25 -32z
m10218 -4 c7 -4 32 -50 57 -102 72 -153 61 -149 160 -52 66 66 89 83 108 80
16 -2 25 -11 27 -26 3 -18 -17 -43 -88 -112 -104 -100 -103 -95 -26 -170 47
-45 55 -67 34 -88 -22 -22 -40 -13 -102 53 l-62 64 -49 -35 c-55 -39 -107 -44
-113 -11 -5 24 20 50 68 72 22 10 42 26 45 35 3 10 -10 45 -31 81 -37 66 -84
166 -84 180 0 9 29 39 38 39 4 0 12 -4 18 -8z m2670 -144 c15 -49 -23 -55
-481 -73 -149 -6 -183 2 -170 38 11 26 74 38 202 37 65 0 161 3 213 8 52 5
125 10 162 10 60 2 67 0 74 -20z m-10925 -138 c10 -6 19 -20 19 -30 0 -16 7
-20 38 -20 20 0 54 -5 75 -11 30 -8 37 -15 37 -35 0 -35 -19 -39 -123 -26 -50
6 -93 9 -96 7 -2 -3 5 -18 17 -33 46 -57 54 -72 55 -105 3 -98 -80 -155 -162
-112 -34 17 -46 42 -30 61 13 16 43 18 69 4 21 -11 50 10 50 36 0 9 -27 54
-61 101 -33 46 -59 92 -57 101 2 9 18 20 36 24 18 5 47 18 65 28 37 23 42 24
68 10z m10807 -72 c18 -18 15 -45 -5 -53 -10 -4 -57 -8 -104 -10 -93 -4 -153
-17 -211 -46 -61 -31 -55 -37 57 -59 114 -23 173 -70 160 -128 -10 -49 -69
-92 -125 -92 -35 0 -96 23 -122 47 -20 18 -24 58 -7 68 6 4 37 -5 70 -19 46
-21 63 -25 79 -16 36 19 23 39 -37 55 -32 9 -74 20 -93 25 -19 5 -50 19 -67
30 -45 27 -46 79 -3 120 18 17 30 38 30 54 l0 26 163 3 c89 1 171 4 183 5 11
1 25 -3 32 -10z m-11429 -109 c70 -51 75 -136 16 -231 l-33 -52 41 -24 c153
-86 164 -213 23 -278 -69 -32 -116 -31 -150 2 -49 50 -23 105 34 72 15 -9 40
-13 58 -10 32 4 82 42 82 63 0 24 -68 77 -127 99 -77 28 -86 47 -46 96 90 113
105 166 56 204 -19 15 -36 20 -53 16 -87 -20 -90 -20 -90 6 0 24 20 49 50 61
29 12 109 -2 139 -24z m2342 -336 c29 -38 71 -87 92 -111 47 -50 42 -53 133
65 65 83 80 93 102 71 23 -23 12 -47 -62 -140 l-74 -93 41 -43 c23 -24 75 -68
115 -98 86 -66 95 -104 25 -104 -19 0 -102 61 -180 132 l-54 48 -80 -70 c-44
-39 -96 -78 -115 -88 -34 -16 -37 -16 -50 2 -18 26 -7 44 68 104 35 28 76 64
92 81 27 28 28 32 14 48 -96 112 -168 207 -168 221 0 21 18 42 36 42 7 0 36
-30 65 -67z m-3813 -225 c7 -7 12 -39 12 -74 0 -89 27 -285 51 -377 17 -62 19
-80 9 -92 -26 -31 -62 -5 -81 56 -30 102 -62 472 -42 492 10 11 38 8 51 -5z
m-642 -67 c74 -34 109 -103 102 -201 -3 -48 -12 -69 -44 -117 -21 -32 -40 -61
-42 -65 -6 -12 31 -26 108 -42 91 -18 142 -21 197 -12 36 7 43 5 53 -14 10
-19 9 -26 -9 -44 -34 -34 -171 -29 -326 11 -99 26 -132 30 -191 26 -65 -5 -72
-3 -100 20 -28 25 -28 27 -14 54 16 27 18 28 102 28 83 0 88 1 118 30 92 87
100 219 15 259 -66 32 -197 15 -242 -30 -28 -28 -50 -28 -67 -1 -13 20 -2 41
36 70 62 47 229 62 304 28z m8955 -48 c5 -14 10 -50 11 -79 1 -30 5 -59 9 -65
5 -8 30 -12 72 -10 48 2 68 -2 81 -14 38 -39 4 -65 -86 -65 l-51 0 6 -42 c3
-24 11 -86 18 -139 13 -106 10 -129 -20 -129 -30 0 -41 30 -61 167 -10 68 -21
127 -24 131 -4 3 -38 1 -77 -6 -90 -15 -106 -15 -112 3 -12 30 25 55 103 68
l75 13 -4 86 c-2 48 0 91 4 97 12 21 45 12 56 -16z m-7252 -15 c16 -40 -8 -51
-130 -59 -61 -5 -115 -6 -120 -3 -4 2 -67 -3 -139 -11 -102 -13 -134 -14 -146
-4 -21 17 -17 48 9 58 22 8 242 29 367 34 36 2 84 4 108 5 36 2 44 -2 51 -20z
m2135 3 c21 -23 18 -49 -6 -64 -34 -22 -66 41 -36 71 16 16 22 15 42 -7z
m5914 -70 c24 -44 57 -92 74 -108 l30 -28 89 93 c78 82 91 92 109 82 40 -22
28 -46 -83 -159 l-72 -73 68 -64 c37 -35 83 -70 102 -78 43 -18 47 -51 9 -68
-37 -17 -101 19 -165 94 -28 32 -56 58 -61 58 -6 0 -31 -17 -57 -39 -67 -56
-129 -85 -147 -70 -29 24 -16 53 39 87 30 18 66 45 80 60 l27 28 -51 69 c-98
134 -115 196 -55 195 16 -1 32 -21 64 -79z m-1337 31 c70 -45 118 -107 174
-226 62 -130 97 -231 125 -356 42 -190 10 -390 -62 -390 -31 0 -38 39 -17 93
24 60 25 169 3 275 -31 155 -122 388 -182 466 -54 71 -85 91 -140 91 -42 0
-47 2 -50 24 -8 56 76 69 149 23z m-5166 -33 c106 -13 138 -28 126 -62 -10
-25 -12 -25 -153 -9 -176 21 -452 12 -718 -23 -248 -33 -328 -48 -398 -71 -96
-32 -122 -32 -122 1 0 43 66 73 245 110 44 9 109 19 145 21 36 3 88 9 115 14
146 28 592 39 760 19z m6230 -80 c66 -24 68 -29 85 -157 22 -170 -4 -254 -94
-307 -97 -57 -196 -40 -196 34 0 50 39 67 69 30 13 -17 24 -20 47 -15 35 8 81
48 95 83 10 28 12 115 3 162 l-6 31 -55 -50 c-92 -84 -178 -90 -209 -14 -27
65 -12 119 48 169 70 59 124 67 213 34z m-2605 -28 c8 -16 2 -29 -35 -72 -53
-63 -80 -128 -106 -264 -25 -123 -30 -406 -10 -505 20 -103 59 -215 81 -235
28 -26 26 -63 -5 -77 -36 -16 -58 8 -94 102 -73 189 -92 458 -51 715 29 183
73 281 149 332 41 28 57 29 71 4z m-5222 -46 c19 -7 15 -53 -5 -59 -51 -14
-91 -15 -231 -8 -162 8 -191 18 -178 59 6 18 16 19 204 16 108 -3 203 -6 210
-8z m-3877 -218 c31 -23 71 -50 88 -59 22 -12 31 -24 31 -41 0 -46 -33 -39
-125 24 -47 32 -91 59 -98 59 -20 0 -36 21 -29 39 15 43 53 36 133 -22z m5282
10 c22 -14 27 -25 27 -61 l0 -43 54 5 c44 4 54 1 60 -14 12 -31 -25 -52 -147
-83 -65 -17 -135 -38 -155 -48 -33 -16 -38 -23 -43 -67 -10 -94 -107 -147
-173 -95 -64 50 -51 116 33 167 l51 32 -3 71 c-2 71 -2 71 35 104 21 17 53 37
70 43 49 16 159 10 191 -11z m-845 -52 c4 -65 43 -246 63 -297 20 -51 17 -78
-10 -78 -39 1 -57 31 -86 148 -24 98 -34 249 -18 266 4 4 16 6 28 4 16 -2 21
-11 23 -43z m6004 -95 c40 -60 78 -110 85 -110 6 0 41 36 77 80 37 44 73 80
82 80 8 0 19 -11 26 -25 12 -28 15 -24 -75 -127 -44 -50 -57 -72 -52 -86 7
-24 79 -90 123 -114 36 -19 39 -29 16 -52 -34 -34 -72 -20 -139 49 -34 36 -65
65 -69 65 -4 0 -28 -14 -52 -32 -34 -25 -55 -32 -92 -32 -41 -1 -47 2 -50 21
-3 17 7 26 50 46 29 14 64 34 77 45 l25 20 -41 54 c-23 29 -60 84 -82 122 -31
54 -38 73 -30 88 21 40 47 21 121 -92z m-1011 20 c23 -13 25 -55 3 -64 -9 -3
-27 -6 -40 -6 -28 0 -74 -27 -74 -43 0 -5 34 -45 75 -88 69 -72 75 -82 75
-120 0 -89 -98 -153 -224 -147 -60 3 -61 3 -64 34 -2 19 3 38 14 48 15 15 19
15 39 2 21 -14 29 -14 77 0 52 16 88 38 88 56 0 6 -26 37 -58 71 -32 34 -66
73 -75 87 -19 28 -22 82 -7 111 12 21 60 49 105 60 43 10 44 10 66 -1z m278
-24 c15 -18 4 -46 -19 -46 -23 0 -44 26 -36 45 7 19 40 20 55 1z m-1839 -16
c8 -16 6 -26 -11 -49 -30 -41 -23 -111 17 -152 46 -48 102 -34 162 40 39 49
73 54 90 16 8 -16 12 -84 12 -178 0 -253 -30 -339 -139 -400 -46 -26 -68 -32
-140 -35 -81 -4 -87 -3 -109 21 -27 28 -26 64 1 81 12 8 22 8 35 -2 46 -33 58
-34 118 -17 70 20 127 72 143 130 12 45 15 289 4 283 -106 -54 -137 -57 -200
-18 -84 51 -112 191 -57 276 20 29 59 32 74 4z m2062 -54 c-2 -42 0 -47 15
-41 108 42 221 -20 288 -159 29 -61 35 -84 35 -139 0 -70 -14 -97 -50 -97 -23
0 -31 23 -29 88 5 127 -106 258 -200 237 -48 -10 -55 -28 -53 -120 2 -74 0
-84 -16 -89 -59 -19 -70 20 -64 235 2 70 6 91 23 113 33 42 55 30 51 -28z
m-314 -59 c14 -16 29 -119 37 -248 5 -78 3 -98 -9 -108 -24 -20 -52 2 -60 46
-3 21 -6 65 -6 98 0 33 -5 91 -10 130 -6 47 -5 74 2 82 13 17 33 16 46 0z
m-934 -73 c4 -9 4 -25 1 -35 -6 -17 -17 -19 -101 -18 -51 0 -109 -4 -127 -10
-47 -16 -90 0 -85 32 5 33 56 46 189 46 99 1 118 -1 123 -15z m71 -125 c17
-17 -10 -43 -56 -56 -56 -15 -199 -16 -236 -2 -31 11 -43 26 -43 51 0 16 10
17 103 12 56 -3 120 -1 142 4 41 10 73 7 90 -9z m3060 -304 c20 -19 25 -34 25
-72 -1 -64 -28 -122 -90 -187 l-50 -53 18 -44 c11 -24 32 -59 47 -78 26 -30
32 -32 66 -27 27 4 42 2 53 -10 22 -21 20 -29 -10 -53 -72 -57 -167 2 -228
141 -18 41 -31 57 -50 62 -34 8 -35 42 -2 57 19 9 25 21 30 66 9 79 42 148 89
188 48 41 69 43 102 10z m1919 -40 c0 -16 -4 -38 -8 -47 -7 -16 -4 -17 25 -10
19 4 71 7 117 7 63 0 85 -4 92 -15 24 -37 8 -44 -115 -57 -66 -7 -129 -17
-141 -22 -28 -12 -44 -78 -51 -201 -6 -112 4 -147 43 -152 73 -8 44 -81 -30
-76 -37 3 -43 7 -64 48 -22 42 -23 53 -18 165 3 66 9 138 12 161 5 36 3 41
-21 52 -36 17 -29 44 15 58 29 9 40 22 63 68 24 51 30 57 55 54 23 -3 27 -7
26 -33z m-1151 -56 c8 -12 6 -27 -7 -54 -23 -47 -31 -103 -22 -150 7 -34 9
-36 34 -30 15 3 38 17 52 29 14 13 38 31 53 41 28 18 29 18 49 -3 17 -16 21
-32 20 -79 -2 -120 -88 -449 -130 -496 -24 -27 -73 -19 -92 16 -15 28 -14 29
22 60 30 26 41 47 62 117 47 160 67 271 49 270 -5 -1 -19 -7 -33 -15 -43 -25
-98 -19 -131 14 -30 31 -33 42 -30 126 6 127 65 216 104 154z m-2139 -55 c3
-9 6 -51 6 -95 l0 -79 34 0 c50 0 66 -9 66 -36 0 -24 -11 -30 -70 -36 -24 -3
-25 -6 -30 -93 -5 -82 -7 -90 -26 -93 -33 -5 -43 18 -46 103 l-3 80 -52 3
c-42 2 -53 7 -58 24 -10 28 7 41 63 48 l47 5 3 80 c2 43 8 85 14 92 15 18 45
16 52 -3z m1619 -33 c9 -25 15 -29 38 -24 62 12 116 -52 158 -191 34 -110 27
-166 -20 -166 -14 0 -35 49 -48 115 -16 75 -58 165 -76 165 -12 0 -68 -104
-88 -162 -10 -28 -55 -23 -63 6 -6 25 19 196 37 254 14 42 46 44 62 3z m2501
0 c10 -9 33 -49 52 -88 18 -40 37 -73 42 -73 16 0 85 58 132 111 41 46 47 49
64 36 39 -28 5 -80 -127 -195 l-38 -33 29 -52 c15 -29 34 -62 42 -73 15 -24 8
-51 -15 -60 -22 -9 -62 30 -91 89 -13 26 -29 47 -35 47 -5 0 -28 -9 -50 -21
-54 -27 -94 -23 -94 11 0 20 11 31 50 52 28 15 55 29 60 31 6 2 -12 49 -39
104 -42 86 -47 103 -37 122 12 22 21 21 55 -8z m-4616 -21 c79 -57 152 -183
201 -347 43 -144 55 -238 54 -418 -1 -179 -20 -297 -68 -421 -35 -89 -57 -118
-85 -109 -28 9 -26 38 9 132 53 145 65 221 66 413 0 185 -8 239 -62 420 -41
137 -95 228 -164 276 -25 17 -39 34 -39 49 0 45 31 47 88 5z m1430 -33 c3 -24
-8 -39 -64 -94 l-68 -65 34 -32 c19 -17 46 -38 60 -48 21 -13 23 -19 14 -35
-6 -10 -25 -19 -43 -21 -27 -3 -40 4 -79 43 l-46 47 -52 -18 c-62 -21 -87 -14
-82 23 2 19 11 29 35 37 17 6 35 14 38 18 4 4 -10 34 -30 66 -41 68 -43 96 -4
100 22 3 31 -5 60 -52 18 -31 40 -56 49 -56 9 0 42 27 75 60 67 68 98 75 103
27z m2822 6 c37 -25 48 -44 55 -89 5 -28 1 -60 -11 -97 -14 -47 -15 -63 -6
-95 19 -62 15 -140 -9 -190 -56 -115 -250 -144 -237 -35 4 34 40 44 68 18 16
-15 20 -14 52 5 43 25 58 56 58 118 0 61 -7 70 -54 70 -28 0 -45 7 -65 26 -23
23 -26 35 -26 89 1 78 18 128 57 167 34 35 79 40 118 13z m-3287 -54 c15 -19
16 -25 4 -42 -11 -17 -10 -23 9 -42 24 -24 54 -111 54 -155 0 -51 -29 -125
-62 -157 -37 -36 -110 -60 -151 -49 -33 8 -52 48 -37 77 11 20 45 26 55 9 13
-20 53 -10 79 21 32 38 40 67 33 125 -7 65 -17 72 -78 50 -135 -49 -231 45
-137 134 62 58 193 75 231 29z m2401 -61 c8 -13 8 -23 0 -35 -9 -15 -33 -19
-139 -25 -150 -8 -208 -1 -213 26 -6 32 16 41 116 47 163 10 223 6 236 -13z
m-5823 -153 c7 -80 13 -97 46 -142 38 -52 66 -45 138 32 61 65 91 79 113 52 7
-8 14 -112 18 -267 4 -140 11 -263 16 -273 10 -19 -13 -67 -32 -67 -14 0 -50
37 -51 53 0 6 -2 35 -4 62 -2 28 -4 121 -4 208 0 87 -5 157 -10 157 -4 0 -14
-7 -22 -16 -38 -46 -131 -58 -186 -24 -80 48 -129 254 -71 292 31 20 43 4 49
-67z m1213 58 c5 -13 -6 -29 -38 -58 -76 -66 -104 -162 -107 -355 -2 -117 9
-171 50 -245 27 -48 29 -73 8 -86 -22 -15 -50 7 -78 62 -61 123 -74 263 -40
453 23 128 50 188 99 221 43 29 97 33 106 8z m4684 -85 c3 -25 -1 -28 -55 -44
-62 -19 -302 -26 -354 -12 -32 9 -44 35 -27 55 9 11 33 13 122 9 76 -4 133 -2
181 8 103 20 129 17 133 -16z m-11388 7 c30 -3 70 -11 88 -16 28 -9 33 -15 30
-37 -3 -30 -14 -31 -138 -11 -102 16 -107 18 -114 35 -10 26 13 45 48 40 17
-3 56 -8 86 -11z m-482 -20 c6 -3 12 -15 12 -29 0 -33 -31 -39 -161 -31 -101
7 -129 15 -129 39 0 29 23 34 144 29 66 -2 127 -6 134 -8z m-584 -45 c7 -7 7
-16 0 -28 -9 -14 -33 -18 -125 -24 -63 -4 -120 -6 -126 -3 -7 2 -13 14 -13 25
0 27 39 41 102 39 26 -2 51 1 55 5 10 10 94 -1 107 -14z m-530 -31 c6 -5 2
-17 -9 -29 -17 -19 -28 -20 -128 -18 -93 3 -112 6 -121 21 -20 33 10 42 135
39 63 -2 118 -8 123 -13z m8844 -16 c6 -40 -70 -56 -84 -18 -12 30 4 46 43 43
31 -2 39 -7 41 -25z m621 -68 c11 -30 23 -66 27 -80 3 -14 10 -27 14 -30 12
-7 78 72 103 122 23 46 42 59 63 42 31 -26 5 -91 -76 -188 -27 -33 -50 -64
-50 -69 0 -4 22 -42 50 -83 53 -79 59 -99 35 -119 -13 -11 -21 -8 -47 16 -17
16 -46 53 -65 82 -31 48 -36 52 -74 52 -52 0 -61 22 -25 59 l27 28 -26 69
c-38 101 -47 152 -27 163 27 15 49 -5 71 -64z m-869 29 c23 -22 0 -48 -46 -52
-68 -6 -70 -18 -14 -78 40 -43 50 -59 50 -88 0 -28 -7 -40 -32 -59 -58 -42
-166 -68 -186 -44 -21 26 -22 54 -5 76 16 19 22 20 55 9 29 -8 44 -8 63 0 34
16 32 32 -11 73 -38 36 -64 78 -64 103 0 24 40 55 90 71 48 14 76 11 100 -11z
m-782 -57 c17 -13 15 -44 -4 -51 -25 -10 -194 -7 -213 4 -27 14 -33 37 -14 55
13 13 32 15 117 9 55 -4 107 -11 114 -17z m951 -41 c12 -14 8 -256 -4 -276
-12 -20 -46 -10 -55 16 -11 28 -14 257 -3 267 11 12 50 7 62 -7z m325 -7 c68
-54 135 -283 92 -318 -7 -6 -20 -9 -29 -5 -17 6 -37 54 -37 87 0 39 -34 128
-61 160 l-28 32 -21 -21 c-29 -29 -37 -93 -16 -135 25 -50 0 -89 -40 -61 -65
45 -55 215 17 266 33 23 91 20 123 -5z m-1191 -88 c4 -5 5 -20 1 -35 l-6 -26
-137 1 c-75 1 -147 4 -160 8 -32 9 -49 35 -34 53 9 10 46 12 170 10 87 -2 162
-7 166 -11z m-6135 -76 c7 -27 15 -85 19 -127 5 -68 4 -78 -11 -84 -30 -12
-44 18 -60 129 -21 142 -21 139 12 135 23 -3 29 -10 40 -53z m-70 -517 c5 -7
13 -38 17 -68 3 -30 11 -70 15 -89 12 -46 -2 -64 -36 -49 -13 6 -26 21 -29 32
-9 45 -16 167 -10 176 9 14 31 13 43 -2z m16 -375 c5 -17 9 -134 7 -180 -1
-13 -7 -23 -14 -23 -39 0 -64 82 -52 170 6 44 10 50 30 50 14 0 26 -7 29 -17z"/>
<path d="M1615 16970 c4 -6 60 -37 124 -69 113 -55 374 -197 671 -365 268
-152 391 -219 394 -215 12 12 28 165 32 304 3 107 1 186 -8 240 l-13 80 -75 2
c-41 1 -273 7 -515 13 -242 6 -480 13 -529 16 -66 4 -86 3 -81 -6z m1137 -135
c20 -44 -46 -111 -157 -160 -30 -14 -55 -28 -55 -32 0 -5 22 -26 48 -48 76
-64 107 -104 95 -123 -19 -32 -44 -25 -101 30 -96 90 -145 125 -187 133 -49 8
-85 40 -85 74 0 32 8 44 37 60 42 22 83 14 118 -24 l33 -35 80 40 c50 25 90
53 106 75 32 41 52 44 68 10z"/>
<path d="M2894 16925 c3 -10 11 -71 16 -136 10 -119 3 -265 -20 -433 -11 -73
-10 -80 7 -90 39 -24 583 -320 808 -440 733 -392 1013 -547 1740 -961 283
-161 503 -283 725 -402 288 -155 330 -176 336 -170 3 3 -12 32 -34 64 -65 97
-291 483 -438 748 -163 297 -315 567 -408 725 -37 63 -166 313 -288 554 -121
242 -231 456 -245 477 -13 20 -36 42 -51 48 -28 10 -359 17 -1506 27 -614 6
-649 5 -642 -11z"/>
<path d="M9209 16805 c-30 -16 -52 -60 -44 -86 8 -23 18 -24 78 -3 45 15 97
65 97 92 0 17 -99 14 -131 -3z"/>
<path d="M9083 16568 c-23 -11 -32 -48 -13 -48 13 0 50 37 50 50 0 12 -8 12
-37 -2z"/>
<path d="M10971 15584 c-12 -15 -21 -30 -21 -35 0 -4 -3 -14 -6 -23 -8 -21 15
-21 60 1 38 18 50 36 41 64 -9 28 -50 24 -74 -7z"/>
<path d="M14273 11155 c-10 -28 4 -115 22 -135 30 -33 89 -43 162 -30 35 7 66
16 68 21 6 8 -217 159 -235 159 -6 0 -13 -7 -17 -15z"/>
<path d="M4677 11224 c-4 -4 -7 -28 -7 -54 0 -37 5 -51 25 -70 21 -19 31 -22
70 -17 46 7 151 54 141 64 -9 9 -164 71 -194 78 -15 3 -31 3 -35 -1z"/>
<path d="M17739 10241 c-30 -27 -52 -51 -49 -53 3 -3 19 -8 37 -11 31 -6 33
-4 57 50 14 30 26 57 26 59 0 13 -23 -2 -71 -45z"/>
<path d="M16739 10171 c-27 -28 -41 -81 -20 -81 9 0 91 93 91 104 0 17 -45 2
-71 -23z"/>
<path d="M16873 9531 c-59 -43 -80 -122 -25 -92 20 11 61 60 81 99 17 32 -6
29 -56 -7z"/>
<path d="M4574 8786 c-61 -27 -96 -106 -52 -114 20 -4 128 93 128 114 0 18
-36 17 -76 0z"/>
<path d="M18197 8232 c-18 -20 -40 -72 -33 -79 9 -9 73 18 91 37 22 25 12 60
-19 60 -13 0 -30 -8 -39 -18z"/>
<path d="M4743 7708 c-17 -20 -43 -84 -43 -104 0 -16 2 -16 20 1 22 20 43 76
38 101 -3 15 -5 15 -15 2z"/>
<path d="M3810 7454 c-52 -17 -90 -39 -90 -51 0 -17 47 -10 92 13 15 8 36 14
48 14 27 0 26 16 -2 24 -26 6 -27 6 -48 0z"/>
<path d="M12493 6318 c-22 -10 -78 -106 -68 -116 9 -9 94 21 115 40 40 37 2
98 -47 76z"/>
<path d="M16208 5509 c-62 -46 -146 -135 -137 -143 2 -2 30 -6 62 -8 l58 -5
45 96 c24 52 43 98 42 103 -2 4 -33 -15 -70 -43z"/>
<path d="M14539 5375 c-42 -31 -69 -79 -69 -122 0 -63 33 -42 133 86 l48 61
-38 0 c-26 0 -51 -9 -74 -25z"/>
<path d="M14781 4330 c-69 -38 -87 -55 -118 -107 -27 -46 -27 -86 -1 -91 32
-6 135 107 187 206 16 31 -1 29 -68 -8z"/>
<path d="M13662 3230 c-50 -23 -81 -75 -57 -99 19 -20 48 -6 99 49 65 69 47
90 -42 50z"/>
<path d="M7228 2961 c-58 -12 -95 -53 -83 -91 14 -44 127 -7 162 53 29 48 12
55 -79 38z"/>
<path d="M7063 2710 c-26 -11 -32 -43 -7 -38 17 3 53 48 38 47 -5 0 -19 -4
-31 -9z"/>
<path d="M13837 2152 c-9 -10 -23 -37 -32 -61 -18 -51 -18 -51 -5 -51 11 0 44
63 54 103 8 32 5 33 -17 9z"/>
<path d="M16220 1917 c0 -13 11 -34 25 -47 l25 -23 0 34 c0 36 -14 59 -37 59
-7 0 -13 -10 -13 -23z"/>
<path d="M12855 1884 c-38 -19 -51 -32 -42 -41 8 -8 157 39 157 50 0 13 -84 7
-115 -9z"/>
<path d="M13600 19190 c0 -13 30 -13 50 0 11 7 7 10 -17 10 -18 0 -33 -4 -33
-10z"/>
<path d="M14680 19124 c0 -177 48 -446 109 -611 136 -370 424 -697 756 -858
228 -111 406 -153 657 -155 310 -1 621 101 886 292 116 84 291 261 374 378 66
94 67 95 47 111 -37 28 -20 56 45 79 18 7 26 14 20 20 -13 13 -122 40 -159 40
-16 0 -68 11 -115 24 -244 71 -342 101 -524 161 -109 36 -205 65 -215 65 -9 0
-43 9 -75 20 -68 23 -275 64 -283 57 -2 -3 22 -13 54 -22 80 -24 88 -28 91
-59 3 -21 -1 -26 -20 -27 -60 -3 -90 6 -179 51 l-97 49 -73 -55 c-98 -74 -124
-87 -149 -74 -37 20 -22 44 65 105 47 33 85 63 85 67 0 4 -27 30 -60 59 -68
59 -82 86 -54 106 10 7 21 13 25 13 4 0 37 -27 73 -60 87 -79 96 -78 96 8 0
37 7 110 15 162 8 52 15 103 15 113 0 16 -40 17 -705 17 l-705 0 0 -76z m1988
-586 c7 -7 12 -38 12 -71 0 -52 2 -58 18 -52 33 14 159 18 196 5 28 -9 36 -17
36 -35 0 -30 -22 -37 -95 -30 -66 7 -143 -11 -156 -35 -4 -8 -12 -34 -18 -57
-10 -35 -16 -43 -36 -43 -55 0 -71 60 -35 130 14 27 20 59 20 100 0 86 24 122
58 88z"/>
<path d="M16165 19178 c-21 -98 -32 -268 -16 -268 8 0 35 30 82 88 13 16 44
15 59 -3 20 -24 3 -61 -50 -105 -27 -23 -50 -45 -50 -49 0 -8 239 -56 246 -49
2 3 -40 77 -94 164 -55 87 -110 178 -123 201 -27 47 -46 55 -54 21z"/>
<path d="M16292 19178 c9 -13 51 -81 96 -153 44 -71 102 -161 129 -198 l48
-68 113 -38 c61 -21 112 -36 112 -33 0 3 -27 48 -59 101 -33 53 -94 167 -137
254 l-79 157 -119 0 -118 0 14 -22z"/>
<path d="M16610 19195 c0 -16 157 -317 205 -392 100 -157 110 -168 194 -192
40 -12 75 -20 77 -18 2 2 -38 88 -89 193 -51 104 -116 240 -145 302 l-53 112
-95 0 c-52 0 -94 -2 -94 -5z"/>
<path d="M16890 19196 c0 -11 114 -254 167 -356 33 -63 75 -152 93 -196 31
-76 36 -83 70 -93 21 -6 45 -11 54 -11 22 0 19 10 -46 160 -50 116 -94 224
-162 403 l-38 97 -69 0 c-38 0 -69 -2 -69 -4z"/>
<path d="M17156 19086 c74 -198 235 -570 252 -583 9 -7 35 -13 59 -13 23 0 66
-9 94 -20 56 -23 78 -18 40 9 -54 37 -81 69 -74 88 4 10 11 21 17 25 8 6 -30
110 -194 533 l-28 70 -105 3 -105 3 44 -115z"/>
<path d="M17412 19186 c8 -36 244 -636 250 -636 8 0 71 192 88 268 11 47 10
55 -6 78 -48 67 -75 120 -108 206 l-34 93 -97 3 c-80 2 -96 0 -93 -12z"/>
<path d="M17711 19125 c16 -41 36 -90 45 -108 16 -29 18 -30 25 -12 4 11 8 59
8 108 l1 87 -54 0 -54 0 29 -75z"/>
<path d="M1355 13453 c-224 -30 -359 -185 -445 -514 -30 -113 -67 -335 -59
-344 3 -2 97 24 210 59 262 82 516 158 648 192 57 16 105 34 108 42 8 18 -69
216 -129 334 -61 119 -125 188 -203 217 -55 21 -69 22 -130 14z"/>
<path d="M2680 13034 c-52 -13 -214 -58 -360 -99 -146 -41 -287 -79 -315 -86
-27 -6 -53 -15 -58 -19 -11 -9 95 -220 158 -315 140 -210 314 -317 424 -260
83 42 170 223 226 465 24 103 29 139 40 273 4 51 2 67 -7 66 -7 0 -56 -12
-108 -25z"/>
<path d="M695 12451 c-82 -30 -110 -40 -345 -122 -124 -43 -253 -90 -285 -103
l-60 -24 -3 -100 c-2 -75 4 -136 23 -238 14 -76 25 -140 25 -144 0 -4 23 -18
52 -30 46 -20 65 -22 153 -18 84 4 109 9 155 33 148 75 254 256 310 529 20 96
37 236 29 236 -2 -1 -26 -9 -54 -19z"/>
<path d="M0 5947 c0 -13 39 -86 86 -162 154 -245 290 -548 509 -1135 42 -111
83 -216 92 -234 l17 -31 8 65 c11 87 3 303 -16 420 -57 356 -207 652 -456 900
-63 63 -143 135 -177 158 -62 42 -63 43 -63 19z"/>
<path d="M0 5589 l0 -196 49 -99 c50 -103 250 -594 390 -959 132 -344 146
-376 156 -373 12 4 51 118 77 227 l20 84 -21 26 c-40 50 -71 122 -205 468
-194 503 -324 794 -431 963 l-35 55 0 -196z"/>
<path d="M1 4963 l-1 -252 56 -143 c81 -210 128 -324 206 -504 76 -176 74
-174 159 -174 15 0 51 -9 79 -20 62 -24 65 -11 6 29 -48 33 -62 64 -40 85 8 8
14 17 14 20 0 10 -203 536 -265 686 -35 85 -81 202 -103 260 -22 58 -53 132
-68 165 -15 33 -31 69 -35 80 -4 11 -7 -93 -8 -232z"/>
<path d="M2 4345 l4 -140 55 -120 c50 -108 59 -121 90 -132 41 -14 69 -16 69
-4 0 5 -27 74 -61 153 -33 78 -81 195 -106 258 -25 63 -47 117 -50 120 -2 2
-3 -58 -1 -135z"/>
<path d="M0 4010 c0 -11 4 -20 9 -20 5 0 7 9 4 20 -3 11 -7 20 -9 20 -2 0 -4
-9 -4 -20z"/>
<path d="M0 3546 l0 -367 58 44 c101 79 256 239 330 342 71 99 71 100 51 117
-36 30 -15 61 56 83 19 6 20 7 1 20 -10 8 -42 18 -70 23 -123 23 -226 48 -403
98 l-23 6 0 -366z"/>
<path d="M18713 1846 c-124 -39 -263 -178 -365 -366 -41 -77 -158 -363 -158
-388 0 -10 -9 -35 -21 -56 -11 -21 -18 -40 -15 -43 2 -3 123 0 268 6 145 6
379 11 521 11 l257 0 0 30 c0 49 -135 582 -162 642 -67 146 -187 207 -325 164z"/>
<path d="M0 335 c0 -20 4 -26 18 -23 9 2 17 12 17 23 0 11 -8 21 -17 23 -14 3
-18 -3 -18 -23z"/>
<path d="M4500 39 c-58 -4 -106 -7 -107 -8 -2 0 -3 -8 -3 -16 0 -13 34 -15
249 -15 l249 0 -11 25 c-12 25 -12 25 -142 23 -71 -1 -177 -5 -235 -9z"/>
<path d="M4109 25 c-2 -2 -82 -6 -178 -9 -96 -3 -176 -8 -179 -11 -3 -3 124
-5 282 -5 226 0 287 3 284 12 -3 9 -35 14 -105 15 -55 1 -102 0 -104 -2z"/>
<path d="M3593 3 c15 -2 37 -2 50 0 12 2 0 4 -28 4 -27 0 -38 -2 -22 -4z"/>
</g>
</svg>
